Playpen-Rg18ShortSlow.ufo
<glyph name="exclam" format="2">
  <advance width="340"/>
  <unicode hex="0021"/>
  <outline>
    <contour>
      <point x="163" y="216" type="curve" smooth="yes"/>
      <point x="191" y="216"/>
      <point x="209" y="225"/>
      <point x="215" y="244" type="curve" smooth="yes"/>
      <point x="405" y="863" type="line" smooth="yes"/>
      <point x="411" y="881"/>
      <point x="399" y="890"/>
      <point x="370" y="890" type="curve" smooth="yes"/>
      <point x="341" y="890"/>
      <point x="324" y="881"/>
      <point x="318" y="863" type="curve" smooth="yes"/>
      <point x="128" y="244" type="line" smooth="yes"/>
      <point x="121" y="225"/>
      <point x="134" y="216"/>
    </contour>
    <contour>
      <point x="100" y="-14" type="curve" smooth="yes"/>
      <point x="150" y="-14"/>
      <point x="173" y="25"/>
      <point x="171" y="61" type="curve" smooth="yes"/>
      <point x="171" y="95"/>
      <point x="150" y="113"/>
      <point x="123" y="113" type="curve" smooth="yes"/>
      <point x="73" y="113"/>
      <point x="50" y="74"/>
      <point x="51" y="38" type="curve" smooth="yes"/>
      <point x="51" y="4"/>
      <point x="73" y="-14"/>
    </contour>
  </outline>
</glyph>
<glyph name="numbersign" format="2">
  <advance width="740"/>
  <unicode hex="0023"/>
  <outline>
    <contour>
      <point x="141" y="-15" type="curve" smooth="yes"/>
      <point x="164" y="-20"/>
      <point x="177" y="-17"/>
      <point x="183" y="-2" type="curve" smooth="yes"/>
      <point x="442" y="684" type="line" smooth="yes"/>
      <point x="448" y="699"/>
      <point x="439" y="709"/>
      <point x="418" y="715" type="curve" smooth="yes"/>
      <point x="395" y="721"/>
      <point x="382" y="717"/>
      <point x="376" y="702" type="curve" smooth="yes"/>
      <point x="117" y="16" type="line" smooth="yes"/>
      <point x="111" y="1"/>
      <point x="120" y="-10"/>
    </contour>
    <contour>
      <point x="40" y="182" type="curve" smooth="yes"/>
      <point x="666" y="182" type="line" smooth="yes"/>
      <point x="682" y="182"/>
      <point x="690" y="190"/>
      <point x="698" y="214" type="curve" smooth="yes"/>
      <point x="706" y="238"/>
      <point x="702" y="246"/>
      <point x="686" y="246" type="curve" smooth="yes"/>
      <point x="60" y="246" type="line" smooth="yes"/>
      <point x="44" y="246"/>
      <point x="36" y="238"/>
      <point x="28" y="214" type="curve" smooth="yes"/>
      <point x="20" y="190"/>
      <point x="24" y="182"/>
    </contour>
    <contour>
      <point x="152" y="453" type="curve" smooth="yes"/>
      <point x="778" y="453" type="line" smooth="yes"/>
      <point x="794" y="453"/>
      <point x="802" y="461"/>
      <point x="810" y="485" type="curve" smooth="yes"/>
      <point x="818" y="509"/>
      <point x="814" y="517"/>
      <point x="798" y="517" type="curve" smooth="yes"/>
      <point x="172" y="517" type="line" smooth="yes"/>
      <point x="156" y="517"/>
      <point x="148" y="509"/>
      <point x="140" y="485" type="curve" smooth="yes"/>
      <point x="132" y="461"/>
      <point x="136" y="453"/>
    </contour>
    <contour>
      <point x="416" y="-15" type="curve" smooth="yes"/>
      <point x="439" y="-20"/>
      <point x="452" y="-17"/>
      <point x="458" y="-2" type="curve" smooth="yes"/>
      <point x="717" y="684" type="line" smooth="yes"/>
      <point x="723" y="699"/>
      <point x="714" y="709"/>
      <point x="693" y="715" type="curve" smooth="yes"/>
      <point x="670" y="721"/>
      <point x="657" y="717"/>
      <point x="651" y="702" type="curve" smooth="yes"/>
      <point x="392" y="16" type="line" smooth="yes"/>
      <point x="386" y="1"/>
      <point x="395" y="-10"/>
    </contour>
  </outline>
</glyph>
<glyph name="dollar" format="2">
  <advance width="534"/>
  <unicode hex="0024"/>
  <outline>
    <contour>
      <point x="230" y="-15" type="curve" smooth="yes"/>
      <point x="377" y="-15"/>
      <point x="484" y="68"/>
      <point x="484" y="196" type="curve" smooth="yes"/>
      <point x="484" y="272"/>
      <point x="444" y="332"/>
      <point x="341" y="384" type="curve" smooth="yes"/>
      <point x="252" y="429"/>
      <point x="225" y="468"/>
      <point x="225" y="533" type="curve" smooth="yes"/>
      <point x="225" y="606"/>
      <point x="290" y="644"/>
      <point x="383" y="644" type="curve" smooth="yes"/>
      <point x="454" y="644"/>
      <point x="504" y="617"/>
      <point x="537" y="589" type="curve" smooth="yes"/>
      <point x="547" y="580"/>
      <point x="561" y="582"/>
      <point x="573" y="594" type="curve" smooth="yes"/>
      <point x="587" y="607"/>
      <point x="590" y="619"/>
      <point x="579" y="630" type="curve" smooth="yes"/>
      <point x="540" y="672"/>
      <point x="465" y="712"/>
      <point x="383" y="712" type="curve" smooth="yes"/>
      <point x="240" y="712"/>
      <point x="151" y="634"/>
      <point x="151" y="533" type="curve" smooth="yes"/>
      <point x="151" y="424"/>
      <point x="216" y="370"/>
      <point x="302" y="324" type="curve" smooth="yes"/>
      <point x="374" y="286"/>
      <point x="410" y="254"/>
      <point x="410" y="196" type="curve" smooth="yes"/>
      <point x="410" y="96"/>
      <point x="333" y="53"/>
      <point x="230" y="53" type="curve" smooth="yes"/>
      <point x="148" y="53"/>
      <point x="95" y="81"/>
      <point x="62" y="114" type="curve" smooth="yes"/>
      <point x="51" y="125"/>
      <point x="40" y="121"/>
      <point x="26" y="109" type="curve" smooth="yes"/>
      <point x="15" y="99"/>
      <point x="6" y="87"/>
      <point x="16" y="75" type="curve" smooth="yes"/>
      <point x="60" y="26"/>
      <point x="123" y="-15"/>
    </contour>
    <contour>
      <point x="154" y="-120" type="curve" smooth="yes"/>
      <point x="175" y="-120"/>
      <point x="188" y="-113"/>
      <point x="193" y="-98" type="curve" smooth="yes"/>
      <point x="487" y="807" type="line" smooth="yes"/>
      <point x="492" y="822"/>
      <point x="483" y="829"/>
      <point x="462" y="829" type="curve" smooth="yes"/>
      <point x="441" y="829"/>
      <point x="428" y="822"/>
      <point x="423" y="807" type="curve" smooth="yes"/>
      <point x="129" y="-98" type="line" smooth="yes"/>
      <point x="124" y="-113"/>
      <point x="133" y="-120"/>
    </contour>
  </outline>
</glyph>
<glyph name="percent" format="2">
  <advance width="660"/>
  <unicode hex="0025"/>
  <outline>
    <contour>
      <point x="239" y="404" type="curve" smooth="yes"/>
      <point x="343" y="404"/>
      <point x="408" y="521"/>
      <point x="408" y="601" type="curve" smooth="yes"/>
      <point x="408" y="664"/>
      <point x="366" y="712"/>
      <point x="291" y="712" type="curve" smooth="yes"/>
      <point x="188" y="712"/>
      <point x="122" y="600"/>
      <point x="122" y="520" type="curve" smooth="yes"/>
      <point x="122" y="455"/>
      <point x="164" y="404"/>
    </contour>
    <contour>
      <point x="246" y="465" type="curve" smooth="yes"/>
      <point x="213" y="465"/>
      <point x="190" y="484"/>
      <point x="190" y="524" type="curve" smooth="yes"/>
      <point x="190" y="573"/>
      <point x="223" y="651"/>
      <point x="286" y="651" type="curve" smooth="yes"/>
      <point x="316" y="651"/>
      <point x="339" y="635"/>
      <point x="339" y="594" type="curve" smooth="yes"/>
      <point x="339" y="541"/>
      <point x="304" y="465"/>
    </contour>
    <contour>
      <point x="86" y="-7" type="curve" smooth="yes"/>
      <point x="698" y="670" type="line" smooth="yes"/>
      <point x="710" y="683"/>
      <point x="709" y="691"/>
      <point x="693" y="704" type="curve" smooth="yes"/>
      <point x="677" y="717"/>
      <point x="667" y="716"/>
      <point x="656" y="704" type="curve" smooth="yes"/>
      <point x="44" y="27" type="line" smooth="yes"/>
      <point x="32" y="14"/>
      <point x="33" y="6"/>
      <point x="49" y="-7" type="curve" smooth="yes"/>
      <point x="65" y="-20"/>
      <point x="75" y="-19"/>
    </contour>
    <contour>
      <point x="463" y="-15" type="curve" smooth="yes"/>
      <point x="567" y="-15"/>
      <point x="632" y="102"/>
      <point x="632" y="182" type="curve" smooth="yes"/>
      <point x="632" y="245"/>
      <point x="590" y="293"/>
      <point x="515" y="293" type="curve" smooth="yes"/>
      <point x="412" y="293"/>
      <point x="346" y="181"/>
      <point x="346" y="101" type="curve" smooth="yes"/>
      <point x="346" y="36"/>
      <point x="388" y="-15"/>
    </contour>
    <contour>
      <point x="470" y="46" type="curve" smooth="yes"/>
      <point x="437" y="46"/>
      <point x="414" y="65"/>
      <point x="414" y="105" type="curve" smooth="yes"/>
      <point x="414" y="154"/>
      <point x="447" y="232"/>
      <point x="510" y="232" type="curve" smooth="yes"/>
      <point x="540" y="232"/>
      <point x="563" y="216"/>
      <point x="563" y="175" type="curve" smooth="yes"/>
      <point x="563" y="122"/>
      <point x="528" y="46"/>
    </contour>
  </outline>
</glyph>
<glyph name="ampersand" format="2">
  <advance width="682"/>
  <unicode hex="0026"/>
  <outline>
    <contour>
      <point x="62" y="171" type="curve" smooth="yes"/>
      <point x="62" y="68"/>
      <point x="131" y="-15"/>
      <point x="249" y="-15" type="curve" smooth="yes"/>
      <point x="403" y="-15"/>
      <point x="560" y="110"/>
      <point x="640" y="357" type="curve" smooth="yes"/>
      <point x="645" y="372"/>
      <point x="635" y="379"/>
      <point x="612" y="379" type="curve" smooth="yes"/>
      <point x="589" y="379"/>
      <point x="575" y="372"/>
      <point x="570" y="357" type="curve" smooth="yes"/>
      <point x="503" y="149"/>
      <point x="370" y="51"/>
      <point x="257" y="51" type="curve" smooth="yes"/>
      <point x="177" y="51"/>
      <point x="137" y="101"/>
      <point x="137" y="178" type="curve" smooth="yes"/>
      <point x="137" y="425"/>
      <point x="553" y="347"/>
      <point x="553" y="578" type="curve" smooth="yes"/>
      <point x="553" y="657"/>
      <point x="490" y="712"/>
      <point x="405" y="712" type="curve" smooth="yes"/>
      <point x="294" y="712"/>
      <point x="218" y="626"/>
      <point x="218" y="516" type="curve" smooth="yes"/>
      <point x="218" y="467"/>
      <point x="241" y="414"/>
      <point x="265" y="377" type="curve" smooth="yes"/>
      <point x="516" y="-6" type="line" smooth="yes"/>
      <point x="525" y="-20"/>
      <point x="538" y="-21"/>
      <point x="560" y="-5" type="curve" smooth="yes"/>
      <point x="582" y="11"/>
      <point x="585" y="21"/>
      <point x="575" y="36" type="curve" smooth="yes"/>
      <point x="323" y="421" type="line" smooth="yes"/>
      <point x="306" y="447"/>
      <point x="293" y="488"/>
      <point x="293" y="522" type="curve" smooth="yes"/>
      <point x="293" y="593"/>
      <point x="329" y="646"/>
      <point x="399" y="646" type="curve" smooth="yes"/>
      <point x="448" y="646"/>
      <point x="478" y="619"/>
      <point x="478" y="571" type="curve" smooth="yes"/>
      <point x="478" y="399"/>
      <point x="62" y="469"/>
    </contour>
  </outline>
</glyph>
<glyph name="quotesingle" format="2">
	<unicode hex="0027"/>
	<advance width="135"/>
	<outline>
		<contour>
			<point x="169" y="518" type="curve" smooth="yes"/>
			<point x="188" y="518"/>
			<point x="197" y="530"/>
			<point x="202" y="543" type="curve" smooth="yes"/>
			<point x="266" y="704" type="line" smooth="yes"/>
			<point x="273" y="721"/>
			<point x="266" y="736"/>
			<point x="237" y="736" type="curve" smooth="yes"/>
			<point x="210" y="736"/>
			<point x="196" y="721"/>
			<point x="192" y="704" type="curve" smooth="yes"/>
			<point x="152" y="543" type="line" smooth="yes"/>
			<point x="149" y="530"/>
			<point x="145" y="518"/>
		</contour>
	</outline>
</glyph>
<glyph name="asterisk" format="2">
  <advance width="358"/>
  <unicode hex="002A"/>
  <outline>
    <contour>
      <point x="265" y="504" type="curve" smooth="yes"/>
      <point x="284" y="504"/>
      <point x="294" y="510"/>
      <point x="298" y="523" type="curve" smooth="yes"/>
      <point x="413" y="875" type="line" smooth="yes"/>
      <point x="416" y="888"/>
      <point x="406" y="894"/>
      <point x="388" y="894" type="curve" smooth="yes"/>
      <point x="369" y="894"/>
      <point x="359" y="888"/>
      <point x="355" y="875" type="curve" smooth="yes"/>
      <point x="240" y="523" type="line" smooth="yes"/>
      <point x="236" y="510"/>
      <point x="246" y="504"/>
    </contour>
    <contour>
      <point x="125" y="635" type="curve" smooth="yes"/>
      <point x="130" y="618"/>
      <point x="139" y="613"/>
      <point x="153" y="616" type="curve" smooth="yes"/>
      <point x="526" y="741" type="line" smooth="yes"/>
      <point x="540" y="746"/>
      <point x="541" y="758"/>
      <point x="536" y="774" type="curve" smooth="yes"/>
      <point x="531" y="790"/>
      <point x="524" y="796"/>
      <point x="510" y="791" type="curve" smooth="yes"/>
      <point x="136" y="668" type="line" smooth="yes"/>
      <point x="123" y="663"/>
      <point x="121" y="651"/>
    </contour>
    <contour>
      <point x="175" y="844" type="curve" smooth="yes"/>
      <point x="161" y="831"/>
      <point x="161" y="820"/>
      <point x="171" y="811" type="curve" smooth="yes"/>
      <point x="441" y="558" type="line" smooth="yes"/>
      <point x="453" y="548"/>
      <point x="463" y="553"/>
      <point x="474" y="565" type="curve" smooth="yes"/>
      <point x="488" y="576"/>
      <point x="489" y="586"/>
      <point x="479" y="596" type="curve" smooth="yes"/>
      <point x="209" y="849" type="line" smooth="yes"/>
      <point x="198" y="860"/>
      <point x="186" y="855"/>
    </contour>
  </outline>
</glyph>
<glyph name="plus" format="2">
  <advance width="763"/>
  <unicode hex="002B"/>
  <outline>
    <contour>
      <point x="355" y="151" type="curve" smooth="yes"/>
      <point x="381" y="151"/>
      <point x="391" y="156"/>
      <point x="400" y="184" type="curve" smooth="yes"/>
      <point x="561" y="685" type="line" smooth="yes"/>
      <point x="570" y="711"/>
      <point x="561" y="724"/>
      <point x="520" y="724" type="curve" smooth="yes"/>
      <point x="494" y="724"/>
      <point x="484" y="719"/>
      <point x="475" y="691" type="curve" smooth="yes"/>
      <point x="314" y="190" type="line" smooth="yes"/>
      <point x="305" y="164"/>
      <point x="314" y="151"/>
    </contour>
    <component base="minus"/>
  </outline>
</glyph>
<glyph name="comma" format="2">
	<unicode hex="002C"/>
	<advance width="250"/>
	<outline>
		<contour>
			<point x="-7" y="-144" type="curve" smooth="yes"/>
			<point x="-1" y="-144"/>
			<point x="7" y="-141"/>
			<point x="16" y="-134" type="curve" smooth="yes"/>
			<point x="72" y="-91"/>
			<point x="113" y="-13"/>
			<point x="113" y="40" type="curve" smooth="yes"/>
			<point x="113" y="58"/>
			<point x="101" y="72"/>
			<point x="75" y="72" type="curve" smooth="yes"/>
			<point x="49" y="72"/>
			<point x="34" y="57"/>
			<point x="33" y="37" type="curve" smooth="yes"/>
			<point x="31" y="-12"/>
			<point x="16" y="-46"/>
			<point x="-28" y="-104" type="curve" smooth="yes"/>
			<point x="-32" y="-110"/>
			<point x="-34" y="-115"/>
			<point x="-34" y="-120" type="curve" smooth="yes"/>
			<point x="-34" y="-131"/>
			<point x="-18" y="-144"/>
		</contour>
	</outline>
</glyph>
<glyph name="hyphen" format="2">
	<unicode hex="002D"/>
	<advance width="460"/>
	<outline>
		<contour>
			<point x="114" y="241" type="curve" smooth="yes"/>
			<point x="374" y="241" type="line" smooth="yes"/>
			<point x="390" y="241"/>
			<point x="398" y="249"/>
			<point x="406" y="273" type="curve" smooth="yes"/>
			<point x="414" y="297"/>
			<point x="410" y="305"/>
			<point x="394" y="305" type="curve" smooth="yes"/>
			<point x="134" y="305" type="line" smooth="yes"/>
			<point x="118" y="305"/>
			<point x="110" y="297"/>
			<point x="102" y="273" type="curve" smooth="yes"/>
			<point x="94" y="249"/>
			<point x="98" y="241"/>
		</contour>
	</outline>
</glyph>
<glyph name="period" format="2">
	<unicode hex="002E"/>
	<advance width="250"/>
	<outline>
		<contour>
			<point x="64" y="-27" type="curve" smooth="yes"/>
			<point x="101" y="-27"/>
			<point x="119" y="-4"/>
			<point x="119" y="35" type="curve" smooth="yes"/>
			<point x="119" y="61"/>
			<point x="104" y="77"/>
			<point x="72" y="77" type="curve" smooth="yes"/>
			<point x="36" y="77"/>
			<point x="18" y="54"/>
			<point x="18" y="15" type="curve" smooth="yes"/>
			<point x="18" y="-11"/>
			<point x="33" y="-27"/>
		</contour>
	</outline>
</glyph>
<glyph name="slash" format="2">
	<unicode hex="002F"/>
	<advance width="258"/>
	<outline>
		<contour>
			<point x="-56" y="-60" type="curve" smooth="yes"/>
			<point x="-35" y="-66"/>
			<point x="-17" y="-62"/>
			<point x="-8" y="-47" type="curve" smooth="yes"/>
			<point x="432" y="729" type="line" smooth="yes"/>
			<point x="441" y="744"/>
			<point x="430" y="754"/>
			<point x="410" y="760" type="curve" smooth="yes"/>
			<point x="389" y="766"/>
			<point x="371" y="762"/>
			<point x="362" y="747" type="curve" smooth="yes"/>
			<point x="-78" y="-29" type="line" smooth="yes"/>
			<point x="-87" y="-44"/>
			<point x="-76" y="-54"/>
		</contour>
	</outline>
</glyph>
<glyph name="zero" format="2">
	<unicode hex="0030"/>
	<advance width="610"/>
	<outline>
		<contour>
			<point x="253" y="-15" type="curve" smooth="yes"/>
			<point x="513" y="-15"/>
			<point x="646" y="287"/>
			<point x="646" y="502" type="curve" smooth="yes"/>
			<point x="646" y="647"/>
			<point x="561" y="712"/>
			<point x="455" y="712" type="curve" smooth="yes"/>
			<point x="195" y="712"/>
			<point x="60" y="410"/>
			<point x="60" y="195" type="curve" smooth="yes"/>
			<point x="60" y="50"/>
			<point x="147" y="-15"/>
		</contour>
		<contour>
			<point x="271" y="53" type="curve" smooth="yes"/>
			<point x="192" y="53"/>
			<point x="135" y="91"/>
			<point x="135" y="218" type="curve" smooth="yes"/>
			<point x="135" y="389"/>
			<point x="255" y="644"/>
			<point x="437" y="644" type="curve" smooth="yes"/>
			<point x="516" y="644"/>
			<point x="571" y="605"/>
			<point x="571" y="479" type="curve" smooth="yes"/>
			<point x="571" y="308"/>
			<point x="451" y="53"/>
		</contour>
	</outline>
</glyph>
<glyph name="one" format="2">
	<unicode hex="0031"/>
	<advance width="360"/>
	<outline>
		<contour>
			<point x="131" y="-11" type="curve" smooth="yes"/>
			<point x="155" y="-11"/>
			<point x="170" y="-6"/>
			<point x="175" y="11" type="curve" smooth="yes"/>
			<point x="390" y="688" type="line" smooth="yes"/>
			<point x="395" y="704"/>
			<point x="384" y="712"/>
			<point x="362" y="712" type="curve" smooth="yes"/>
			<point x="328" y="712"/>
			<point x="320" y="706"/>
			<point x="291" y="683" type="curve" smooth="yes"/>
			<point x="252" y="652"/>
			<point x="198" y="621"/>
			<point x="159" y="599" type="curve" smooth="yes"/>
			<point x="131" y="584"/>
			<point x="121" y="574"/>
			<point x="132" y="550" type="curve" smooth="yes"/>
			<point x="144" y="525"/>
			<point x="159" y="528"/>
			<point x="185" y="541" type="curve" smooth="yes"/>
			<point x="215" y="556"/>
			<point x="254" y="579"/>
			<point x="293" y="605" type="curve"/>
			<point x="102" y="13" type="line" smooth="yes"/>
			<point x="97" y="-3"/>
			<point x="109" y="-11"/>
		</contour>
	</outline>
</glyph>
<glyph name="three" format="2">
  <advance width="663"/>
  <unicode hex="0033"/>
  <outline>
    <contour>
      <point x="280" y="-19" type="curve" smooth="yes"/>
      <point x="496" y="-19"/>
      <point x="618" y="110"/>
      <point x="618" y="279" type="curve" smooth="yes"/>
      <point x="618" y="359"/>
      <point x="574" y="436"/>
      <point x="499" y="463" type="curve"/>
      <point x="640" y="493"/>
      <point x="711" y="583"/>
      <point x="711" y="708" type="curve" smooth="yes"/>
      <point x="711" y="818"/>
      <point x="614" y="890"/>
      <point x="501" y="890" type="curve" smooth="yes"/>
      <point x="405" y="890"/>
      <point x="310" y="856"/>
      <point x="251" y="806" type="curve" smooth="yes"/>
      <point x="221" y="781"/>
      <point x="219" y="768"/>
      <point x="235" y="749" type="curve" smooth="yes"/>
      <point x="258" y="724"/>
      <point x="273" y="725"/>
      <point x="300" y="744" type="curve" smooth="yes"/>
      <point x="364" y="788"/>
      <point x="415" y="810"/>
      <point x="483" y="810" type="curve" smooth="yes"/>
      <point x="570" y="810"/>
      <point x="620" y="768"/>
      <point x="620" y="699" type="curve" smooth="yes"/>
      <point x="620" y="575"/>
      <point x="515" y="511"/>
      <point x="376" y="511" type="curve" smooth="yes"/>
      <point x="328" y="511" type="line" smooth="yes"/>
      <point x="313" y="511"/>
      <point x="299" y="498"/>
      <point x="291" y="471" type="curve" smooth="yes"/>
      <point x="284" y="444"/>
      <point x="290" y="431"/>
      <point x="305" y="431" type="curve" smooth="yes"/>
      <point x="361" y="431" type="line" smooth="yes"/>
      <point x="466" y="431"/>
      <point x="525" y="374"/>
      <point x="525" y="276" type="curve" smooth="yes"/>
      <point x="525" y="155"/>
      <point x="459" y="61"/>
      <point x="296" y="61" type="curve" smooth="yes"/>
      <point x="195" y="61"/>
      <point x="139" y="96"/>
      <point x="75" y="168" type="curve" smooth="yes"/>
      <point x="53" y="193"/>
      <point x="41" y="193"/>
      <point x="18" y="171" type="curve" smooth="yes"/>
      <point x="-9" y="149"/>
      <point x="1" y="135"/>
      <point x="25" y="105" type="curve" smooth="yes"/>
      <point x="91" y="23"/>
      <point x="191" y="-19"/>
    </contour>
  </outline>
</glyph>
<glyph name="four" format="2">
	<unicode hex="0034"/>
	<advance width="540"/>
	<outline>
		<contour>
			<point x="47" y="178" type="curve" smooth="yes"/>
			<point x="503" y="178" type="line" smooth="yes"/>
			<point x="519" y="178"/>
			<point x="535" y="197"/>
			<point x="535" y="226" type="curve" smooth="yes"/>
			<point x="535" y="236"/>
			<point x="530" y="242"/>
			<point x="520" y="242" type="curve" smooth="yes"/>
			<point x="132" y="242" type="line"/>
			<point x="509" y="676" type="line" smooth="yes"/>
			<point x="533" y="703"/>
			<point x="508" y="712"/>
			<point x="485" y="712" type="curve" smooth="yes"/>
			<point x="458" y="712"/>
			<point x="445" y="704"/>
			<point x="431" y="687" type="curve" smooth="yes"/>
			<point x="34" y="225" type="line" smooth="yes"/>
			<point x="17" y="205"/>
			<point x="23" y="178"/>
		</contour>
		<contour>
			<point x="334" y="-11" type="curve" smooth="yes"/>
			<point x="358" y="-11"/>
			<point x="370" y="-4"/>
			<point x="375" y="11" type="curve" smooth="yes"/>
			<point x="522" y="458" type="line" smooth="yes"/>
			<point x="528" y="475"/>
			<point x="515" y="482"/>
			<point x="491" y="482" type="curve" smooth="yes"/>
			<point x="467" y="482"/>
			<point x="455" y="475"/>
			<point x="450" y="460" type="curve" smooth="yes"/>
			<point x="303" y="13" type="line" smooth="yes"/>
			<point x="297" y="-4"/>
			<point x="310" y="-11"/>
		</contour>
	</outline>
</glyph>
<glyph name="five" format="2">
  <advance width="530"/>
  <unicode hex="0035"/>
  <outline>
    <contour>
      <point x="226" y="-15" type="curve" smooth="yes"/>
      <point x="390" y="-15"/>
      <point x="513" y="91"/>
      <point x="513" y="282" type="curve" smooth="yes"/>
      <point x="513" y="372"/>
      <point x="453" y="452"/>
      <point x="331" y="452" type="curve" smooth="yes"/>
      <point x="283" y="452"/>
      <point x="238" y="435"/>
      <point x="201" y="412" type="curve"/>
      <point x="280" y="636" type="line"/>
      <point x="582" y="636" type="line" smooth="yes"/>
      <point x="598" y="636"/>
      <point x="614" y="655"/>
      <point x="614" y="684" type="curve" smooth="yes"/>
      <point x="614" y="694"/>
      <point x="609" y="700"/>
      <point x="599" y="700" type="curve" smooth="yes"/>
      <point x="257" y="700" type="line" smooth="yes"/>
      <point x="242" y="700"/>
      <point x="233" y="691"/>
      <point x="230" y="682" type="curve" smooth="yes"/>
      <point x="116" y="359" type="line" smooth="yes"/>
      <point x="99" y="311"/>
      <point x="148" y="317"/>
      <point x="172" y="334" type="curve" smooth="yes"/>
      <point x="215" y="365"/>
      <point x="264" y="388"/>
      <point x="327" y="388" type="curve" smooth="yes"/>
      <point x="412" y="388"/>
      <point x="439" y="338"/>
      <point x="439" y="271" type="curve" smooth="yes"/>
      <point x="439" y="157"/>
      <point x="371" y="50"/>
      <point x="242" y="50" type="curve" smooth="yes"/>
      <point x="161" y="50"/>
      <point x="116" y="78"/>
      <point x="66" y="134" type="curve" smooth="yes"/>
      <point x="48" y="154"/>
      <point x="39" y="154"/>
      <point x="20" y="137" type="curve" smooth="yes"/>
      <point x="-1" y="119"/>
      <point x="7" y="108"/>
      <point x="26" y="84" type="curve" smooth="yes"/>
      <point x="79" y="19"/>
      <point x="153" y="-15"/>
    </contour>
  </outline>
</glyph>
<glyph name="six" format="2">
  <advance width="713"/>
  <unicode hex="0036"/>
  <outline>
    <contour>
      <point x="356" y="-20" type="curve" smooth="yes"/>
      <point x="563" y="-20"/>
      <point x="686" y="139"/>
      <point x="686" y="341" type="curve" smooth="yes"/>
      <point x="686" y="450"/>
      <point x="623" y="553"/>
      <point x="470" y="553" type="curve" smooth="yes"/>
      <point x="334" y="553"/>
      <point x="231" y="485"/>
      <point x="156" y="360" type="curve"/>
      <point x="181" y="286" type="line"/>
      <point x="231" y="385"/>
      <point x="326" y="471"/>
      <point x="450" y="471" type="curve" smooth="yes"/>
      <point x="565" y="471"/>
      <point x="595" y="395"/>
      <point x="595" y="320" type="curve" smooth="yes"/>
      <point x="595" y="176"/>
      <point x="509" y="60"/>
      <point x="373" y="60" type="curve" smooth="yes"/>
      <point x="244" y="60"/>
      <point x="194" y="159"/>
      <point x="194" y="273" type="curve" smooth="yes"/>
      <point x="194" y="564"/>
      <point x="395" y="804"/>
      <point x="711" y="813" type="curve" smooth="yes"/>
      <point x="744" y="814"/>
      <point x="753" y="823"/>
      <point x="751" y="859" type="curve" smooth="yes"/>
      <point x="750" y="890"/>
      <point x="731" y="890"/>
      <point x="710" y="890" type="curve" smooth="yes"/>
      <point x="346" y="888"/>
      <point x="101" y="613"/>
      <point x="101" y="271" type="curve" smooth="yes"/>
      <point x="101" y="111"/>
      <point x="179" y="-20"/>
    </contour>
  </outline>
</glyph>
<glyph name="seven" format="2">
	<unicode hex="0037"/>
	<advance width="430"/>
	<outline>
		<contour>
			<point x="52" y="-11" type="curve" smooth="yes"/>
			<point x="77" y="-11"/>
			<point x="91" y="1"/>
			<point x="106" y="23" type="curve" smooth="yes"/>
			<point x="556" y="657" type="line" smooth="yes"/>
			<point x="573" y="682"/>
			<point x="554" y="700"/>
			<point x="540" y="700" type="curve" smooth="yes"/>
			<point x="167" y="700" type="line" smooth="yes"/>
			<point x="151" y="700"/>
			<point x="135" y="681"/>
			<point x="135" y="652" type="curve" smooth="yes"/>
			<point x="135" y="642"/>
			<point x="140" y="636"/>
			<point x="150" y="636" type="curve" smooth="yes"/>
			<point x="460" y="636" type="line"/>
			<point x="31" y="31" type="line" smooth="yes"/>
			<point x="12" y="5"/>
			<point x="14" y="-11"/>
		</contour>
	</outline>
</glyph>
<glyph name="question" format="2">
  <advance width="398"/>
  <unicode hex="003F"/>
  <guideline x="168" y="327" angle="252.78"/>
  <guideline y="339"/>
  <guideline x="201" y="327" angle="252.78"/>
  <outline>
    <contour>
      <point x="137" y="172" type="curve" smooth="yes"/>
      <point x="160" y="172"/>
      <point x="174" y="179"/>
      <point x="179" y="194" type="curve" smooth="yes"/>
      <point x="215" y="306" type="line"/>
      <point x="406" y="325"/>
      <point x="494" y="439"/>
      <point x="494" y="559" type="curve" smooth="yes"/>
      <point x="494" y="638"/>
      <point x="441" y="712"/>
      <point x="327" y="712" type="curve" smooth="yes"/>
      <point x="275" y="712"/>
      <point x="213" y="693"/>
      <point x="146" y="642" type="curve" smooth="yes"/>
      <point x="133" y="632"/>
      <point x="134" y="622"/>
      <point x="145" y="604" type="curve" smooth="yes"/>
      <point x="153" y="590"/>
      <point x="169" y="585"/>
      <point x="180" y="592" type="curve" smooth="yes"/>
      <point x="218" y="618"/>
      <point x="266" y="648"/>
      <point x="327" y="648" type="curve" smooth="yes"/>
      <point x="388" y="648"/>
      <point x="422" y="611"/>
      <point x="422" y="559" type="curve" smooth="yes"/>
      <point x="422" y="489"/>
      <point x="379" y="368"/>
      <point x="193" y="368" type="curve" smooth="yes"/>
      <point x="175" y="368"/>
      <point x="163" y="359"/>
      <point x="159" y="346" type="curve" smooth="yes"/>
      <point x="109" y="194" type="line" smooth="yes"/>
      <point x="104" y="179"/>
      <point x="114" y="172"/>
    </contour>
    <contour>
      <point x="93" y="-11" type="curve" smooth="yes"/>
      <point x="133" y="-11"/>
      <point x="150" y="20"/>
      <point x="150" y="49" type="curve" smooth="yes"/>
      <point x="150" y="76"/>
      <point x="133" y="90"/>
      <point x="111" y="90" type="curve" smooth="yes"/>
      <point x="71" y="90"/>
      <point x="54" y="59"/>
      <point x="54" y="30" type="curve" smooth="yes"/>
      <point x="54" y="3"/>
      <point x="71" y="-11"/>
    </contour>
  </outline>
</glyph>
<glyph name="at" format="2">
  <advance width="702"/>
  <unicode hex="0040"/>
  <outline>
    <contour>
      <point x="197" y="147" type="curve" smooth="yes"/>
      <point x="197" y="82"/>
      <point x="231" y="43"/>
      <point x="288" y="43" type="curve" smooth="yes"/>
      <point x="320" y="43"/>
      <point x="361" y="57"/>
      <point x="396" y="102" type="curve"/>
      <point x="397" y="101"/>
      <point x="397" y="100"/>
      <point x="397" y="98" type="curve" smooth="yes"/>
      <point x="399" y="67"/>
      <point x="413" y="43"/>
      <point x="461" y="43" type="curve" smooth="yes"/>
      <point x="590" y="43"/>
      <point x="684" y="160"/>
      <point x="684" y="292" type="curve" smooth="yes"/>
      <point x="684" y="439"/>
      <point x="570" y="526"/>
      <point x="418" y="526" type="curve" smooth="yes"/>
      <point x="181" y="526"/>
      <point x="40" y="338"/>
      <point x="40" y="145" type="curve" smooth="yes"/>
      <point x="40" y="-6"/>
      <point x="141" y="-118"/>
      <point x="301" y="-118" type="curve" smooth="yes"/>
      <point x="360" y="-118"/>
      <point x="415" y="-110"/>
      <point x="479" y="-88" type="curve" smooth="yes"/>
      <point x="492" y="-84"/>
      <point x="497" y="-73"/>
      <point x="492" y="-57" type="curve" smooth="yes"/>
      <point x="487" y="-42"/>
      <point x="476" y="-35"/>
      <point x="464" y="-39" type="curve" smooth="yes"/>
      <point x="407" y="-58"/>
      <point x="358" y="-68"/>
      <point x="307" y="-68" type="curve" smooth="yes"/>
      <point x="171" y="-68"/>
      <point x="93" y="24"/>
      <point x="93" y="148" type="curve" smooth="yes"/>
      <point x="93" y="309"/>
      <point x="202" y="476"/>
      <point x="412" y="476" type="curve" smooth="yes"/>
      <point x="543" y="476"/>
      <point x="631" y="413"/>
      <point x="631" y="291" type="curve" smooth="yes"/>
      <point x="631" y="199"/>
      <point x="574" y="98"/>
      <point x="472" y="98" type="curve" smooth="yes"/>
      <point x="455" y="98"/>
      <point x="458" y="115"/>
      <point x="462" y="128" type="curve" smooth="yes"/>
      <point x="532" y="344" type="line" smooth="yes"/>
      <point x="538" y="363"/>
      <point x="528" y="371"/>
      <point x="507" y="371" type="curve" smooth="yes"/>
      <point x="491" y="371"/>
      <point x="478" y="366"/>
      <point x="471" y="352" type="curve" smooth="yes"/>
      <point x="470" y="350" type="line"/>
      <point x="444" y="366"/>
      <point x="419" y="374"/>
      <point x="394" y="374" type="curve" smooth="yes"/>
      <point x="257" y="374"/>
      <point x="197" y="236"/>
    </contour>
    <contour>
      <point x="262" y="154" type="curve" smooth="yes"/>
      <point x="262" y="207"/>
      <point x="295" y="316"/>
      <point x="400" y="316" type="curve" smooth="yes"/>
      <point x="419" y="316"/>
      <point x="436" y="313"/>
      <point x="455" y="303" type="curve"/>
      <point x="416" y="187" type="line"/>
      <point x="387" y="138"/>
      <point x="350" y="102"/>
      <point x="310" y="102" type="curve" smooth="yes"/>
      <point x="280" y="102"/>
      <point x="262" y="118"/>
    </contour>
  </outline>
</glyph>
<glyph name="A" format="2">
	<unicode hex="0041"/>
	<advance width="600"/>
	<outline>
		<contour>
			<point x="-16" y="-11" type="curve" smooth="yes"/>
			<point x="11" y="-11"/>
			<point x="17" y="-7"/>
			<point x="36" y="21" type="curve" smooth="yes"/>
			<point x="153" y="195" type="line"/>
			<point x="447" y="195" type="line"/>
			<point x="457" y="18" type="line" smooth="yes"/>
			<point x="458" y="-3"/>
			<point x="463" y="-11"/>
			<point x="487" y="-11" type="curve" smooth="yes"/>
			<point x="515" y="-11"/>
			<point x="526" y="3"/>
			<point x="525" y="25" type="curve" smooth="yes"/>
			<point x="489" y="671" type="line" smooth="yes"/>
			<point x="487" y="705"/>
			<point x="475" y="712"/>
			<point x="455" y="712" type="curve" smooth="yes"/>
			<point x="429" y="712"/>
			<point x="416" y="704"/>
			<point x="400" y="680" type="curve" smooth="yes"/>
			<point x="-38" y="31" type="line" smooth="yes"/>
			<point x="-54" y="8"/>
			<point x="-44" y="-11"/>
		</contour>
		<contour>
			<point x="197" y="259" type="line"/>
			<point x="425" y="599" type="line"/>
			<point x="444" y="259" type="line"/>
		</contour>
	</outline>
	<anchor name="bottom" x="235" y="0"/>
	<anchor name="ogonek" x="508" y="0"/>
	<anchor name="top" x="422" y="670"/>
</glyph>
<glyph name="B" format="2">
  <advance width="725"/>
  <unicode hex="0042"/>
  <anchor x="281" y="0" name="bottom"/>
  <anchor x="170" y="258" name="center"/>
  <anchor x="555" y="838" name="top"/>
  <outline>
    <contour>
      <point x="88" y="0" type="curve" smooth="yes"/>
      <point x="293" y="0" type="line" smooth="yes"/>
      <point x="513" y="0"/>
      <point x="693" y="80"/>
      <point x="693" y="291" type="curve" smooth="yes"/>
      <point x="693" y="389"/>
      <point x="601" y="453"/>
      <point x="499" y="461" type="curve"/>
      <point x="500" y="465" type="line"/>
      <point x="634" y="470"/>
      <point x="783" y="565"/>
      <point x="783" y="706" type="curve" smooth="yes"/>
      <point x="783" y="824"/>
      <point x="690" y="875"/>
      <point x="556" y="875" type="curve" smooth="yes"/>
      <point x="374" y="875" type="line" smooth="yes"/>
      <point x="344" y="875"/>
      <point x="326" y="866"/>
      <point x="320" y="848" type="curve" smooth="yes"/>
      <point x="53" y="28" type="line" smooth="yes"/>
      <point x="46" y="9"/>
      <point x="59" y="0"/>
    </contour>
    <contour>
      <point x="158" y="80" type="line"/>
      <point x="269" y="423" type="line"/>
      <point x="409" y="423" type="line" smooth="yes"/>
      <point x="530" y="423"/>
      <point x="600" y="356"/>
      <point x="600" y="286" type="curve" smooth="yes"/>
      <point x="600" y="125"/>
      <point x="451" y="80"/>
      <point x="298" y="80" type="curve" smooth="yes"/>
    </contour>
    <contour>
      <point x="296" y="503" type="line"/>
      <point x="391" y="795" type="line"/>
      <point x="530" y="795" type="line" smooth="yes"/>
      <point x="644" y="795"/>
      <point x="686" y="761"/>
      <point x="686" y="688" type="curve" smooth="yes"/>
      <point x="686" y="576"/>
      <point x="551" y="503"/>
      <point x="423" y="503" type="curve" smooth="yes"/>
    </contour>
  </outline>
</glyph>
<glyph name="E" format="2">
  <advance width="663"/>
  <unicode hex="0045"/>
  <anchor x="316" y="0" name="bottom"/>
  <anchor x="535" y="13" name="ogonek"/>
  <anchor x="545" y="838" name="top"/>
  <outline>
    <contour>
      <point x="98" y="0" type="curve" smooth="yes"/>
      <point x="519" y="0" type="line" smooth="yes"/>
      <point x="534" y="0"/>
      <point x="548" y="14"/>
      <point x="555" y="40" type="curve" smooth="yes"/>
      <point x="563" y="68"/>
      <point x="556" y="80"/>
      <point x="541" y="80" type="curve" smooth="yes"/>
      <point x="160" y="80" type="line"/>
      <point x="270" y="423" type="line"/>
      <point x="591" y="423" type="line" smooth="yes"/>
      <point x="606" y="423"/>
      <point x="620" y="436"/>
      <point x="628" y="463" type="curve" smooth="yes"/>
      <point x="635" y="490"/>
      <point x="629" y="503"/>
      <point x="614" y="503" type="curve" smooth="yes"/>
      <point x="295" y="503" type="line"/>
      <point x="390" y="795" type="line"/>
      <point x="775" y="795" type="line" smooth="yes"/>
      <point x="790" y="795"/>
      <point x="804" y="809"/>
      <point x="811" y="835" type="curve" smooth="yes"/>
      <point x="819" y="863"/>
      <point x="813" y="875"/>
      <point x="798" y="875" type="curve" smooth="yes"/>
      <point x="366" y="875" type="line" smooth="yes"/>
      <point x="339" y="875"/>
      <point x="324" y="865"/>
      <point x="319" y="848" type="curve" smooth="yes"/>
      <point x="59" y="40" type="line" smooth="yes"/>
      <point x="49" y="10"/>
      <point x="64" y="0"/>
    </contour>
  </outline>
</glyph>
<glyph name="G" format="2">
	<unicode hex="0047"/>
	<advance width="700"/>
	<outline>
		<contour>
			<point x="343" y="-15" type="curve" smooth="yes"/>
			<point x="466" y="-16"/>
			<point x="610" y="65"/>
			<point x="684" y="342" type="curve" smooth="yes"/>
			<point x="690" y="366"/>
			<point x="688" y="374"/>
			<point x="672" y="374" type="curve" smooth="yes"/>
			<point x="441" y="374" type="line" smooth="yes"/>
			<point x="425" y="374"/>
			<point x="417" y="366"/>
			<point x="409" y="342" type="curve" smooth="yes"/>
			<point x="401" y="318"/>
			<point x="404" y="310"/>
			<point x="420" y="310" type="curve" smooth="yes"/>
			<point x="601" y="310" type="line"/>
			<point x="540" y="129"/>
			<point x="451" y="53"/>
			<point x="355" y="53" type="curve" smooth="yes"/>
			<point x="234" y="53"/>
			<point x="175" y="128"/>
			<point x="175" y="265" type="curve" smooth="yes"/>
			<point x="175" y="426"/>
			<point x="304" y="644"/>
			<point x="498" y="644" type="curve" smooth="yes"/>
			<point x="576" y="644"/>
			<point x="631" y="626"/>
			<point x="665" y="595" type="curve" smooth="yes"/>
			<point x="679" y="582"/>
			<point x="688" y="585"/>
			<point x="702" y="596" type="curve" smooth="yes"/>
			<point x="717" y="608"/>
			<point x="722" y="615"/>
			<point x="714" y="627" type="curve" smooth="yes"/>
			<point x="675" y="682"/>
			<point x="602" y="712"/>
			<point x="510" y="712" type="curve" smooth="yes"/>
			<point x="234" y="712"/>
			<point x="100" y="436"/>
			<point x="100" y="252" type="curve" smooth="yes"/>
			<point x="100" y="90"/>
			<point x="196" y="-14"/>
		</contour>
	</outline>
	<anchor name="bottom" x="295" y="0"/>
	<anchor name="top" x="495" y="670"/>
</glyph>
<glyph name="H" format="2">
	<unicode hex="0048"/>
	<advance width="710"/>
	<outline>
		<contour>
			<point x="67" y="-11" type="curve" smooth="yes"/>
			<point x="90" y="-11"/>
			<point x="104" y="-4"/>
			<point x="109" y="11" type="curve" smooth="yes"/>
			<point x="214" y="335" type="line"/>
			<point x="584" y="335" type="line"/>
			<point x="479" y="11" type="line" smooth="yes"/>
			<point x="474" y="-4"/>
			<point x="484" y="-11"/>
			<point x="507" y="-11" type="curve" smooth="yes"/>
			<point x="530" y="-11"/>
			<point x="544" y="-4"/>
			<point x="549" y="11" type="curve" smooth="yes"/>
			<point x="769" y="690" type="line" smooth="yes"/>
			<point x="774" y="705"/>
			<point x="764" y="712"/>
			<point x="741" y="712" type="curve" smooth="yes"/>
			<point x="718" y="712"/>
			<point x="704" y="705"/>
			<point x="699" y="690" type="curve" smooth="yes"/>
			<point x="605" y="399" type="line"/>
			<point x="235" y="399" type="line"/>
			<point x="329" y="690" type="line" smooth="yes"/>
			<point x="334" y="705"/>
			<point x="324" y="712"/>
			<point x="301" y="712" type="curve" smooth="yes"/>
			<point x="278" y="712"/>
			<point x="264" y="705"/>
			<point x="259" y="690" type="curve" smooth="yes"/>
			<point x="39" y="11" type="line" smooth="yes"/>
			<point x="34" y="-4"/>
			<point x="44" y="-11"/>
		</contour>
	</outline>
	<anchor name="bottom" x="290" y="0"/>
	<anchor name="center" x="467" y="541"/>
	<anchor name="top" x="494" y="670"/>
</glyph>
<glyph name="I" format="2">
	<unicode hex="0049"/>
	<advance width="270"/>
	<outline>
		<contour>
			<point x="70" y="-11" type="curve" smooth="yes"/>
			<point x="94" y="-11"/>
			<point x="106" y="-4"/>
			<point x="111" y="11" type="curve" smooth="yes"/>
			<point x="329" y="688" type="line" smooth="yes"/>
			<point x="334" y="705"/>
			<point x="322" y="712"/>
			<point x="298" y="712" type="curve" smooth="yes"/>
			<point x="274" y="712"/>
			<point x="262" y="705"/>
			<point x="257" y="690" type="curve" smooth="yes"/>
			<point x="39" y="13" type="line" smooth="yes"/>
			<point x="34" y="-4"/>
			<point x="46" y="-11"/>
		</contour>
	</outline>
	<anchor name="bottom" x="70" y="0"/>
	<anchor name="ogonek" x="83" y="-5"/>
	<anchor name="top" x="282" y="670"/>
</glyph>
<glyph name="J" format="2">
	<unicode hex="004A"/>
	<advance width="520"/>
	<outline>
		<contour>
			<point x="178" y="-15" type="curve" smooth="yes"/>
			<point x="284" y="-15"/>
			<point x="382" y="38"/>
			<point x="440" y="218" type="curve" smooth="yes"/>
			<point x="593" y="690" type="line" smooth="yes"/>
			<point x="598" y="705"/>
			<point x="588" y="712"/>
			<point x="565" y="712" type="curve" smooth="yes"/>
			<point x="542" y="712"/>
			<point x="528" y="705"/>
			<point x="523" y="690" type="curve" smooth="yes"/>
			<point x="370" y="218" type="line" smooth="yes"/>
			<point x="326" y="81"/>
			<point x="255" y="53"/>
			<point x="178" y="53" type="curve" smooth="yes"/>
			<point x="120" y="53"/>
			<point x="77" y="85"/>
			<point x="71" y="135" type="curve" smooth="yes"/>
			<point x="68" y="157"/>
			<point x="52" y="158"/>
			<point x="35" y="156" type="curve" smooth="yes"/>
			<point x="6" y="152"/>
			<point x="4" y="143"/>
			<point x="6" y="126" type="curve" smooth="yes"/>
			<point x="14" y="34"/>
			<point x="104" y="-15"/>
		</contour>
	</outline>
	<anchor name="bottom" x="195" y="0"/>
	<anchor name="top" x="546" y="670"/>
</glyph>
<glyph name="L" format="2">
	<unicode hex="004C"/>
	<advance width="500"/>
	<outline>
		<contour>
			<point x="73" y="0" type="curve" smooth="yes"/>
			<point x="400" y="0" type="line" smooth="yes"/>
			<point x="412" y="0"/>
			<point x="423" y="11"/>
			<point x="429" y="32" type="curve" smooth="yes"/>
			<point x="435" y="54"/>
			<point x="430" y="64"/>
			<point x="418" y="64" type="curve" smooth="yes"/>
			<point x="127" y="64" type="line"/>
			<point x="328" y="688" type="line" smooth="yes"/>
			<point x="334" y="705"/>
			<point x="321" y="712"/>
			<point x="297" y="712" type="curve" smooth="yes"/>
			<point x="273" y="712"/>
			<point x="264" y="705"/>
			<point x="259" y="690" type="curve" smooth="yes"/>
			<point x="47" y="32" type="line" smooth="yes"/>
			<point x="40" y="10"/>
			<point x="50" y="0"/>
		</contour>
	</outline>
	<anchor name="bottom" x="235" y="0"/>
	<anchor name="center" x="184" y="360"/>
	<anchor name="centerCase" x="204" y="360"/>
	<anchor name="top" x="287" y="670"/>
	<anchor name="topright" x="333" y="700"/>
</glyph>
<glyph name="N" format="2">
  <advance width="710"/>
  <unicode hex="004E"/>
  <anchor x="290" y="0" name="bottom"/>
  <anchor x="509" y="670" name="top"/>
  <outline>
    <contour>
      <point x="67" y="-11" type="curve" smooth="yes"/>
      <point x="90" y="-11"/>
      <point x="104" y="-4"/>
      <point x="109" y="11" type="curve" smooth="yes"/>
      <point x="295" y="583" type="line"/>
      <point x="479" y="11" type="line" smooth="yes"/>
      <point x="485" y="-8"/>
      <point x="491" y="-11"/>
      <point x="508" y="-11" type="curve" smooth="yes"/>
      <point x="530" y="-11"/>
      <point x="544" y="-4"/>
      <point x="549" y="11" type="curve" smooth="yes"/>
      <point x="769" y="690" type="line" smooth="yes"/>
      <point x="774" y="705"/>
      <point x="764" y="712"/>
      <point x="741" y="712" type="curve" smooth="yes"/>
      <point x="718" y="712"/>
      <point x="704" y="705"/>
      <point x="699" y="690" type="curve" smooth="yes"/>
      <point x="516" y="126" type="line"/>
      <point x="334" y="690" type="line" smooth="yes"/>
      <point x="329" y="705"/>
      <point x="320" y="712"/>
      <point x="301" y="712" type="curve" smooth="yes"/>
      <point x="278" y="712"/>
      <point x="264" y="705"/>
      <point x="259" y="690" type="curve" smooth="yes"/>
      <point x="39" y="11" type="line" smooth="yes"/>
      <point x="34" y="-4"/>
      <point x="44" y="-11"/>
    </contour>
  </outline>
</glyph>
<glyph name="O" format="2">
  <advance width="740"/>
  <unicode hex="004F"/>
  <anchor x="305" y="0" name="bottom"/>
  <anchor x="419" y="350" name="center"/>
  <anchor x="604" y="10" name="ogonek"/>
  <anchor x="504" y="670" name="top"/>
  <anchor x="570" y="700" name="topright"/>
  <outline>
    <contour>
      <point x="345" y="-15" type="curve" smooth="yes"/>
      <point x="596" y="-15"/>
      <point x="733" y="240"/>
      <point x="733" y="445" type="curve" smooth="yes"/>
      <point x="733" y="607"/>
      <point x="637" y="712"/>
      <point x="492" y="712" type="curve" smooth="yes"/>
      <point x="228" y="712"/>
      <point x="102" y="436"/>
      <point x="102" y="252" type="curve" smooth="yes"/>
      <point x="102" y="90"/>
      <point x="199" y="-15"/>
    </contour>
    <contour>
      <point x="357" y="53" type="curve" smooth="yes"/>
      <point x="236" y="53"/>
      <point x="177" y="128"/>
      <point x="177" y="265" type="curve" smooth="yes"/>
      <point x="177" y="417"/>
      <point x="286" y="644"/>
      <point x="480" y="644" type="curve" smooth="yes"/>
      <point x="598" y="644"/>
      <point x="659" y="570"/>
      <point x="659" y="432" type="curve" smooth="yes"/>
      <point x="659" y="276"/>
      <point x="555" y="53"/>
    </contour>
  </outline>
</glyph>
<glyph name="P" format="2">
	<unicode hex="0050"/>
	<advance width="560"/>
	<outline>
		<contour>
			<point x="71" y="-11" type="curve" smooth="yes"/>
			<point x="95" y="-11"/>
			<point x="105" y="-4"/>
			<point x="110" y="11" type="curve" smooth="yes"/>
			<point x="196" y="276" type="line"/>
			<point x="233" y="276"/>
			<point x="281" y="278"/>
			<point x="321" y="283" type="curve" smooth="yes"/>
			<point x="509" y="307"/>
			<point x="643" y="381"/>
			<point x="643" y="543" type="curve" smooth="yes"/>
			<point x="643" y="647"/>
			<point x="568" y="700"/>
			<point x="420" y="700" type="curve" smooth="yes"/>
			<point x="296" y="700" type="line" smooth="yes"/>
			<point x="272" y="700"/>
			<point x="260" y="693"/>
			<point x="255" y="678" type="curve" smooth="yes"/>
			<point x="40" y="13" type="line" smooth="yes"/>
			<point x="35" y="-4"/>
			<point x="47" y="-11"/>
		</contour>
		<contour>
			<point x="216" y="340" type="curve"/>
			<point x="312" y="636" type="line"/>
			<point x="409" y="636" type="line" smooth="yes"/>
			<point x="523" y="636"/>
			<point x="571" y="606"/>
			<point x="571" y="534" type="curve" smooth="yes"/>
			<point x="571" y="429"/>
			<point x="489" y="371"/>
			<point x="342" y="348" type="curve" smooth="yes"/>
			<point x="302" y="342"/>
			<point x="254" y="340"/>
		</contour>
	</outline>
</glyph>
<glyph name="Q" format="2">
  <advance width="740"/>
  <unicode hex="0051"/>
  <anchor x="305" y="0" name="bottom"/>
  <anchor x="419" y="350" name="center"/>
  <anchor x="604" y="10" name="ogonek"/>
  <anchor x="504" y="670" name="top"/>
  <anchor x="570" y="700" name="topright"/>
  <outline>
    <contour>
      <point x="470" y="-153" type="curve" smooth="yes"/>
      <point x="491" y="-149"/>
      <point x="502" y="-132"/>
      <point x="494" y="-111" type="curve" smooth="yes"/>
      <point x="412" y="134" type="line" smooth="yes"/>
      <point x="406" y="153"/>
      <point x="392" y="162"/>
      <point x="374" y="158" type="curve" smooth="yes"/>
      <point x="353" y="154"/>
      <point x="342" y="137"/>
      <point x="350" y="116" type="curve" smooth="yes"/>
      <point x="432" y="-129" type="line" smooth="yes"/>
      <point x="438" y="-148"/>
      <point x="452" y="-157"/>
    </contour>
    <component base="O"/>
  </outline>
</glyph>
<glyph name="R" format="2">
	<unicode hex="0052"/>
	<advance width="555"/>
	<outline>
		<contour>
			<point x="71" y="-11" type="curve" smooth="yes"/>
			<point x="95" y="-11"/>
			<point x="105" y="-4"/>
			<point x="110" y="11" type="curve" smooth="yes"/>
			<point x="205" y="307" type="line"/>
			<point x="258" y="198"/>
			<point x="346" y="81"/>
			<point x="427" y="0" type="curve" smooth="yes"/>
			<point x="440" y="-13"/>
			<point x="456" y="-17"/>
			<point x="472" y="-3" type="curve" smooth="yes"/>
			<point x="496" y="18"/>
			<point x="487" y="32"/>
			<point x="478" y="41" type="curve" smooth="yes"/>
			<point x="392" y="130"/>
			<point x="328" y="219"/>
			<point x="278" y="314" type="curve"/>
			<point x="495" y="323"/>
			<point x="626" y="415"/>
			<point x="626" y="552" type="curve" smooth="yes"/>
			<point x="626" y="662"/>
			<point x="557" y="700"/>
			<point x="395" y="700" type="curve" smooth="yes"/>
			<point x="296" y="700" type="line" smooth="yes"/>
			<point x="272" y="700"/>
			<point x="260" y="693"/>
			<point x="255" y="678" type="curve" smooth="yes"/>
			<point x="40" y="13" type="line" smooth="yes"/>
			<point x="35" y="-4"/>
			<point x="47" y="-11"/>
		</contour>
		<contour>
			<point x="225" y="370" type="curve"/>
			<point x="312" y="636" type="line"/>
			<point x="384" y="636" type="line" smooth="yes"/>
			<point x="518" y="636"/>
			<point x="554" y="617"/>
			<point x="554" y="546" type="curve" smooth="yes"/>
			<point x="554" y="433"/>
			<point x="436" y="370"/>
		</contour>
	</outline>
	<anchor name="bottom" x="243" y="0"/>
	<anchor name="top" x="430" y="670"/>
</glyph>
<glyph name="S" format="2">
  <advance width="550"/>
  <unicode hex="0053"/>
  <anchor x="229" y="0" name="bottom"/>
  <anchor x="387" y="670" name="top"/>
  <outline>
    <contour>
      <point x="240" y="-15" type="curve" smooth="yes"/>
      <point x="387" y="-15"/>
      <point x="494" y="68"/>
      <point x="494" y="196" type="curve" smooth="yes"/>
      <point x="494" y="272"/>
      <point x="454" y="332"/>
      <point x="351" y="384" type="curve" smooth="yes"/>
      <point x="262" y="429"/>
      <point x="235" y="468"/>
      <point x="235" y="533" type="curve" smooth="yes"/>
      <point x="235" y="606"/>
      <point x="300" y="644"/>
      <point x="393" y="644" type="curve" smooth="yes"/>
      <point x="464" y="644"/>
      <point x="514" y="617"/>
      <point x="547" y="589" type="curve" smooth="yes"/>
      <point x="557" y="580"/>
      <point x="571" y="582"/>
      <point x="583" y="594" type="curve" smooth="yes"/>
      <point x="597" y="607"/>
      <point x="600" y="619"/>
      <point x="589" y="630" type="curve" smooth="yes"/>
      <point x="550" y="672"/>
      <point x="475" y="712"/>
      <point x="393" y="712" type="curve" smooth="yes"/>
      <point x="250" y="712"/>
      <point x="161" y="634"/>
      <point x="161" y="533" type="curve" smooth="yes"/>
      <point x="161" y="424"/>
      <point x="226" y="370"/>
      <point x="312" y="324" type="curve" smooth="yes"/>
      <point x="384" y="286"/>
      <point x="420" y="254"/>
      <point x="420" y="196" type="curve" smooth="yes"/>
      <point x="420" y="96"/>
      <point x="343" y="53"/>
      <point x="240" y="53" type="curve" smooth="yes"/>
      <point x="158" y="53"/>
      <point x="105" y="81"/>
      <point x="72" y="114" type="curve" smooth="yes"/>
      <point x="61" y="125"/>
      <point x="50" y="121"/>
      <point x="36" y="109" type="curve" smooth="yes"/>
      <point x="25" y="99"/>
      <point x="16" y="87"/>
      <point x="26" y="75" type="curve" smooth="yes"/>
      <point x="70" y="26"/>
      <point x="133" y="-15"/>
    </contour>
  </outline>
</glyph>
<glyph name="T" format="2">
	<unicode hex="0054"/>
	<advance width="552"/>
	<outline>
		<contour>
			<point x="207" y="-12" type="curve" smooth="yes"/>
			<point x="230" y="-12"/>
			<point x="245" y="-5"/>
			<point x="249" y="10" type="curve" smooth="yes"/>
			<point x="453" y="636" type="line"/>
			<point x="660" y="636" type="line" smooth="yes"/>
			<point x="676" y="636"/>
			<point x="684" y="644"/>
			<point x="692" y="668" type="curve" smooth="yes"/>
			<point x="700" y="692"/>
			<point x="697" y="700"/>
			<point x="681" y="700" type="curve" smooth="yes"/>
			<point x="197" y="700" type="line" smooth="yes"/>
			<point x="181" y="700"/>
			<point x="172" y="692"/>
			<point x="164" y="668" type="curve" smooth="yes"/>
			<point x="156" y="644"/>
			<point x="160" y="636"/>
			<point x="176" y="636" type="curve" smooth="yes"/>
			<point x="383" y="636" type="line"/>
			<point x="179" y="10" type="line" smooth="yes"/>
			<point x="175" y="-5"/>
			<point x="184" y="-12"/>
		</contour>
	</outline>
	<anchor name="bottom" x="210" y="0"/>
	<anchor name="center" x="330" y="350"/>
	<anchor name="top" x="426" y="670"/>
</glyph>
<glyph name="U" format="2">
	<unicode hex="0055"/>
	<advance width="690"/>
	<outline>
		<contour>
			<point x="294" y="-15" type="curve" smooth="yes"/>
			<point x="447" y="-15"/>
			<point x="559" y="66"/>
			<point x="606" y="218" type="curve" smooth="yes"/>
			<point x="751" y="688" type="line" smooth="yes"/>
			<point x="756" y="705"/>
			<point x="744" y="712"/>
			<point x="720" y="712" type="curve" smooth="yes"/>
			<point x="695" y="712"/>
			<point x="684" y="705"/>
			<point x="679" y="690" type="curve" smooth="yes"/>
			<point x="537" y="227" type="line" smooth="yes"/>
			<point x="503" y="115"/>
			<point x="424" y="53"/>
			<point x="300" y="53" type="curve" smooth="yes"/>
			<point x="191" y="53"/>
			<point x="132" y="101"/>
			<point x="173" y="227" type="curve" smooth="yes"/>
			<point x="322" y="688" type="line" smooth="yes"/>
			<point x="327" y="705"/>
			<point x="314" y="712"/>
			<point x="290" y="712" type="curve" smooth="yes"/>
			<point x="265" y="712"/>
			<point x="254" y="705"/>
			<point x="249" y="690" type="curve" smooth="yes"/>
			<point x="104" y="236" type="line" smooth="yes"/>
			<point x="52" y="73"/>
			<point x="133" y="-15"/>
		</contour>
	</outline>
	<anchor name="bottom" x="277" y="0"/>
	<anchor name="ogonek" x="409" y="10"/>
	<anchor name="top" x="478" y="670"/>
	<anchor name="topright" x="727" y="710"/>
</glyph>
<glyph name="W" format="2">
  <advance width="960"/>
  <unicode hex="0057"/>
  <anchor x="452" y="0" name="bottom"/>
  <anchor x="622" y="670" name="top"/>
  <outline>
    <contour>
      <point x="222" y="-11" type="curve" smooth="yes"/>
      <point x="248" y="-11"/>
      <point x="263" y="-3"/>
      <point x="277" y="21" type="curve" smooth="yes"/>
      <point x="605" y="575" type="line"/>
      <point x="622" y="30" type="line" smooth="yes"/>
      <point x="623" y="-4"/>
      <point x="636" y="-11"/>
      <point x="656" y="-11" type="curve" smooth="yes"/>
      <point x="682" y="-11"/>
      <point x="696" y="-3"/>
      <point x="711" y="21" type="curve" smooth="yes"/>
      <point x="1101" y="670" type="line" smooth="yes"/>
      <point x="1115" y="693"/>
      <point x="1107" y="712"/>
      <point x="1079" y="712" type="curve" smooth="yes"/>
      <point x="1052" y="712"/>
      <point x="1044" y="708"/>
      <point x="1027" y="680" type="curve" smooth="yes"/>
      <point x="686" y="107" type="line"/>
      <point x="671" y="683" type="line" smooth="yes"/>
      <point x="670" y="704"/>
      <point x="665" y="712"/>
      <point x="641" y="712" type="curve" smooth="yes"/>
      <point x="613" y="712"/>
      <point x="605" y="709"/>
      <point x="588" y="680" type="curve" smooth="yes"/>
      <point x="252" y="109" type="line"/>
      <point x="237" y="683" type="line" smooth="yes"/>
      <point x="236" y="704"/>
      <point x="231" y="712"/>
      <point x="207" y="712" type="curve" smooth="yes"/>
      <point x="179" y="712"/>
      <point x="167" y="698"/>
      <point x="168" y="676" type="curve" smooth="yes"/>
      <point x="188" y="30" type="line" smooth="yes"/>
      <point x="189" y="-4"/>
      <point x="202" y="-11"/>
    </contour>
  </outline>
</glyph>
<glyph name="X" format="2">
	<unicode hex="0058"/>
	<advance width="550"/>
	<outline>
		<contour>
			<point x="429" y="-11" type="curve" smooth="yes"/>
			<point x="452" y="-11"/>
			<point x="465" y="7"/>
			<point x="457" y="36" type="curve" smooth="yes"/>
			<point x="366" y="352" type="line"/>
			<point x="665" y="665" type="line" smooth="yes"/>
			<point x="692" y="694"/>
			<point x="671" y="712"/>
			<point x="650" y="712" type="curve" smooth="yes"/>
			<point x="630" y="712"/>
			<point x="616" y="707"/>
			<point x="595" y="685" type="curve" smooth="yes"/>
			<point x="346" y="422" type="line"/>
			<point x="270" y="685" type="line" smooth="yes"/>
			<point x="263" y="708"/>
			<point x="253" y="712"/>
			<point x="232" y="712" type="curve" smooth="yes"/>
			<point x="209" y="712"/>
			<point x="196" y="694"/>
			<point x="204" y="665" type="curve" smooth="yes"/>
			<point x="291" y="362" type="line"/>
			<point x="-18" y="36" type="line" smooth="yes"/>
			<point x="-45" y="7"/>
			<point x="-24" y="-11"/>
			<point x="-3" y="-11" type="curve" smooth="yes"/>
			<point x="17" y="-11"/>
			<point x="31" y="-6"/>
			<point x="52" y="16" type="curve" smooth="yes"/>
			<point x="312" y="292" type="line"/>
			<point x="391" y="16" type="line" smooth="yes"/>
			<point x="398" y="-7"/>
			<point x="408" y="-11"/>
		</contour>
	</outline>
</glyph>
<glyph name="Y" format="2">
	<unicode hex="0059"/>
	<advance width="490"/>
	<outline>
		<contour>
			<point x="167" y="-11" type="curve" smooth="yes"/>
			<point x="190" y="-11"/>
			<point x="206" y="-4"/>
			<point x="211" y="11" type="curve" smooth="yes"/>
			<point x="307" y="306" type="line"/>
			<point x="639" y="670" type="line" smooth="yes"/>
			<point x="658" y="691"/>
			<point x="645" y="712"/>
			<point x="619" y="712" type="curve" smooth="yes"/>
			<point x="591" y="712"/>
			<point x="581" y="702"/>
			<point x="564" y="683" type="curve" smooth="yes"/>
			<point x="289" y="383" type="line"/>
			<point x="229" y="683" type="line" smooth="yes"/>
			<point x="225" y="702"/>
			<point x="218" y="712"/>
			<point x="194" y="712" type="curve" smooth="yes"/>
			<point x="166" y="712"/>
			<point x="156" y="697"/>
			<point x="160" y="676" type="curve" smooth="yes"/>
			<point x="236" y="308" type="line"/>
			<point x="139" y="11" type="line" smooth="yes"/>
			<point x="134" y="-4"/>
			<point x="144" y="-11"/>
		</contour>
	</outline>
	<anchor name="bottom" x="189" y="0"/>
	<anchor name="top" x="376" y="670"/>
</glyph>
<glyph name="Z" format="2">
	<unicode hex="005A"/>
	<advance width="490"/>
	<outline>
		<contour>
			<point x="-30" y="0" type="curve" smooth="yes"/>
			<point x="398" y="0" type="line" smooth="yes"/>
			<point x="410" y="0"/>
			<point x="421" y="11"/>
			<point x="427" y="32" type="curve" smooth="yes"/>
			<point x="433" y="54"/>
			<point x="428" y="64"/>
			<point x="416" y="64" type="curve" smooth="yes"/>
			<point x="71" y="64" type="line"/>
			<point x="617" y="654" type="line" smooth="yes"/>
			<point x="634" y="672"/>
			<point x="627" y="700"/>
			<point x="608" y="700" type="curve" smooth="yes"/>
			<point x="214" y="700" type="line" smooth="yes"/>
			<point x="202" y="700"/>
			<point x="191" y="689"/>
			<point x="185" y="668" type="curve" smooth="yes"/>
			<point x="179" y="646"/>
			<point x="184" y="636"/>
			<point x="196" y="636" type="curve" smooth="yes"/>
			<point x="507" y="636" type="line"/>
			<point x="-39" y="46" type="line" smooth="yes"/>
			<point x="-56" y="28"/>
			<point x="-49" y="0"/>
		</contour>
	</outline>
	<anchor name="bottom" x="190" y="0"/>
	<anchor name="center" x="294" y="369"/>
	<anchor name="top" x="367" y="670"/>
</glyph>
<glyph name="asciicircum" format="2">
  <advance width="610"/>
  <unicode hex="005E"/>
  <outline>
    <contour>
      <point x="161" y="416" type="line" smooth="yes"/>
      <point x="142" y="397"/>
      <point x="142" y="388"/>
      <point x="158" y="374" type="curve" smooth="yes"/>
      <point x="176" y="359"/>
      <point x="189" y="359"/>
      <point x="208" y="379" type="curve" smooth="yes"/>
      <point x="445" y="629" type="line"/>
      <point x="512" y="398" type="line" smooth="yes"/>
      <point x="519" y="373"/>
      <point x="532" y="366"/>
      <point x="555" y="375" type="curve" smooth="yes"/>
      <point x="577" y="383"/>
      <point x="582" y="394"/>
      <point x="576" y="415" type="curve" smooth="yes"/>
      <point x="495" y="687" type="line" smooth="yes"/>
      <point x="490" y="704"/>
      <point x="483" y="712"/>
      <point x="465" y="712" type="curve" smooth="yes"/>
      <point x="447" y="712"/>
      <point x="436" y="705"/>
      <point x="419" y="687" type="curve" smooth="yes"/>
    </contour>
  </outline>
</glyph>
<glyph name="b" format="2">
	<unicode hex="0062"/>
	<advance width="478"/>
	<outline>
		<contour>
			<point x="50" y="-12" type="curve" smooth="yes"/>
			<point x="74" y="-12"/>
			<point x="83" y="-6"/>
			<point x="88" y="9" type="curve" smooth="yes"/>
			<point x="90" y="16" type="line"/>
			<point x="119" y="-2"/>
			<point x="152" y="-14"/>
			<point x="187" y="-14" type="curve" smooth="yes"/>
			<point x="361" y="-14"/>
			<point x="442" y="157"/>
			<point x="442" y="280" type="curve" smooth="yes"/>
			<point x="442" y="363"/>
			<point x="400" y="415"/>
			<point x="326" y="415" type="curve" smooth="yes"/>
			<point x="293" y="415"/>
			<point x="246" y="403"/>
			<point x="200" y="353" type="curve"/>
			<point x="307" y="682" type="line" smooth="yes"/>
			<point x="314" y="702"/>
			<point x="307" y="712"/>
			<point x="274" y="712" type="curve" smooth="yes"/>
			<point x="253" y="712"/>
			<point x="245" y="708"/>
			<point x="238" y="686" type="curve" smooth="yes"/>
			<point x="20" y="14" type="line" smooth="yes"/>
			<point x="13" y="-6"/>
			<point x="33" y="-12"/>
		</contour>
		<contour>
			<point x="107" y="68" type="curve"/>
			<point x="167" y="252" type="line"/>
			<point x="208" y="314"/>
			<point x="256" y="351"/>
			<point x="303" y="351" type="curve" smooth="yes"/>
			<point x="348" y="351"/>
			<point x="370" y="324"/>
			<point x="370" y="273" type="curve" smooth="yes"/>
			<point x="370" y="190"/>
			<point x="321" y="49"/>
			<point x="182" y="49" type="curve" smooth="yes"/>
			<point x="157" y="49"/>
			<point x="134" y="54"/>
		</contour>
	</outline>
	<anchor name="bottom" x="194" y="0"/>
	<anchor name="center" x="259" y="200"/>
	<anchor name="top" x="324" y="400"/>
</glyph>
<glyph name="d" format="2">
	<unicode hex="0064"/>
	<advance width="503"/>
	<outline>
		<contour>
			<point x="152" y="-14" type="curve" smooth="yes"/>
			<point x="189" y="-14"/>
			<point x="246" y="1"/>
			<point x="298" y="67" type="curve"/>
			<point x="298" y="66"/>
			<point x="298" y="66"/>
			<point x="298" y="65" type="curve" smooth="yes"/>
			<point x="297" y="15"/>
			<point x="326" y="-14"/>
			<point x="380" y="-14" type="curve" smooth="yes"/>
			<point x="431" y="-14"/>
			<point x="467" y="23"/>
			<point x="484" y="53" type="curve" smooth="yes"/>
			<point x="490" y="64"/>
			<point x="493" y="76"/>
			<point x="475" y="87" type="curve" smooth="yes"/>
			<point x="457" y="98"/>
			<point x="446" y="92"/>
			<point x="440" y="83" type="curve" smooth="yes"/>
			<point x="430" y="68"/>
			<point x="412" y="46"/>
			<point x="388" y="46" type="curve" smooth="yes"/>
			<point x="366" y="46"/>
			<point x="361" y="65"/>
			<point x="372" y="99" type="curve" smooth="yes"/>
			<point x="560" y="681" type="line" smooth="yes"/>
			<point x="567" y="702"/>
			<point x="560" y="712"/>
			<point x="527" y="712" type="curve" smooth="yes"/>
			<point x="506" y="712"/>
			<point x="498" y="708"/>
			<point x="491" y="686" type="curve" smooth="yes"/>
			<point x="393" y="383" type="line"/>
			<point x="363" y="402"/>
			<point x="329" y="415"/>
			<point x="291" y="415" type="curve" smooth="yes"/>
			<point x="113" y="415"/>
			<point x="35" y="238"/>
			<point x="35" y="121" type="curve" smooth="yes"/>
			<point x="35" y="37"/>
			<point x="78" y="-14"/>
		</contour>
		<contour>
			<point x="107" y="128" type="curve" smooth="yes"/>
			<point x="107" y="207"/>
			<point x="155" y="352"/>
			<point x="296" y="352" type="curve" smooth="yes"/>
			<point x="323" y="352"/>
			<point x="347" y="346"/>
			<point x="376" y="331" type="curve"/>
			<point x="326" y="175" type="line"/>
			<point x="282" y="98"/>
			<point x="229" y="50"/>
			<point x="175" y="50" type="curve" smooth="yes"/>
			<point x="130" y="50"/>
			<point x="107" y="77"/>
		</contour>
	</outline>
	<anchor name="bottom" x="157" y="0"/>
	<anchor name="center" x="466" y="558"/>
	<anchor name="top" x="268" y="400"/>
	<anchor name="topright" x="547" y="700"/>
</glyph>
<glyph name="f" format="2">
	<unicode hex="0066"/>
	<advance width="293"/>
	<outline>
		<contour>
			<point x="-84" y="-315" type="curve" smooth="yes"/>
			<point x="-19" y="-315"/>
			<point x="14" y="-286"/>
			<point x="43" y="-198" type="curve" smooth="yes"/>
			<point x="216" y="336" type="line"/>
			<point x="320" y="336" type="line" smooth="yes"/>
			<point x="332" y="336"/>
			<point x="341" y="346"/>
			<point x="348" y="368" type="curve" smooth="yes"/>
			<point x="354" y="389"/>
			<point x="351" y="400"/>
			<point x="338" y="400" type="curve" smooth="yes"/>
			<point x="237" y="400" type="line"/>
			<point x="293" y="576" type="line" smooth="yes"/>
			<point x="310" y="630"/>
			<point x="333" y="651"/>
			<point x="378" y="651" type="curve" smooth="yes"/>
			<point x="397" y="651"/>
			<point x="424" y="641"/>
			<point x="444" y="625" type="curve" smooth="yes"/>
			<point x="456" y="616"/>
			<point x="468" y="617"/>
			<point x="482" y="631" type="curve" smooth="yes"/>
			<point x="493" y="642"/>
			<point x="499" y="655"/>
			<point x="484" y="671" type="curve" smooth="yes"/>
			<point x="468" y="689"/>
			<point x="429" y="715"/>
			<point x="381" y="715" type="curve" smooth="yes"/>
			<point x="303" y="715"/>
			<point x="255" y="676"/>
			<point x="225" y="581" type="curve" smooth="yes"/>
			<point x="167" y="400" type="line"/>
			<point x="98" y="400" type="line" smooth="yes"/>
			<point x="86" y="400"/>
			<point x="75" y="390"/>
			<point x="68" y="368" type="curve" smooth="yes"/>
			<point x="61" y="346"/>
			<point x="67" y="336"/>
			<point x="79" y="336" type="curve" smooth="yes"/>
			<point x="146" y="336" type="line"/>
			<point x="-22" y="-183" type="line" smooth="yes"/>
			<point x="-41" y="-240"/>
			<point x="-51" y="-255"/>
			<point x="-78" y="-255" type="curve" smooth="yes"/>
			<point x="-103" y="-255"/>
			<point x="-122" y="-237"/>
			<point x="-135" y="-224" type="curve" smooth="yes"/>
			<point x="-148" y="-211"/>
			<point x="-159" y="-213"/>
			<point x="-175" y="-227" type="curve" smooth="yes"/>
			<point x="-191" y="-240"/>
			<point x="-192" y="-255"/>
			<point x="-179" y="-270" type="curve" smooth="yes"/>
			<point x="-155" y="-298"/>
			<point x="-122" y="-315"/>
		</contour>
	</outline>
</glyph>
<glyph name="g" format="2">
	<unicode hex="0067"/>
	<advance width="478"/>
	<outline>
		<contour>
			<point x="82" y="-315" type="curve" smooth="yes"/>
			<point x="197" y="-315"/>
			<point x="254" y="-261"/>
			<point x="300" y="-120" type="curve" smooth="yes"/>
			<point x="463" y="381" type="line" smooth="yes"/>
			<point x="470" y="402"/>
			<point x="463" y="412"/>
			<point x="430" y="412" type="curve" smooth="yes"/>
			<point x="409" y="412"/>
			<point x="401" y="408"/>
			<point x="394" y="386" type="curve" smooth="yes"/>
			<point x="232" y="-118" type="line" smooth="yes"/>
			<point x="200" y="-217"/>
			<point x="164" y="-253"/>
			<point x="88" y="-253" type="curve" smooth="yes"/>
			<point x="53" y="-253"/>
			<point x="24" y="-247"/>
			<point x="4" y="-211" type="curve" smooth="yes"/>
			<point x="-6" y="-193"/>
			<point x="-19" y="-191"/>
			<point x="-37" y="-199" type="curve" smooth="yes"/>
			<point x="-60" y="-209"/>
			<point x="-61" y="-223"/>
			<point x="-52" y="-243" type="curve" smooth="yes"/>
			<point x="-34" y="-282"/>
			<point x="19" y="-315"/>
		</contour>
		<contour>
			<point x="154" y="-14" type="curve" smooth="yes"/>
			<point x="202" y="-14"/>
			<point x="282" y="11"/>
			<point x="342" y="143" type="curve"/>
			<point x="331" y="181" type="line"/>
			<point x="287" y="100"/>
			<point x="232" y="50"/>
			<point x="177" y="50" type="curve" smooth="yes"/>
			<point x="132" y="50"/>
			<point x="109" y="77"/>
			<point x="109" y="128" type="curve" smooth="yes"/>
			<point x="109" y="207"/>
			<point x="157" y="352"/>
			<point x="298" y="352" type="curve" smooth="yes"/>
			<point x="334" y="352"/>
			<point x="366" y="342"/>
			<point x="409" y="311" type="curve"/>
			<point x="418" y="366" type="line"/>
			<point x="384" y="394"/>
			<point x="341" y="415"/>
			<point x="293" y="415" type="curve" smooth="yes"/>
			<point x="115" y="415"/>
			<point x="37" y="238"/>
			<point x="37" y="121" type="curve" smooth="yes"/>
			<point x="37" y="37"/>
			<point x="80" y="-14"/>
		</contour>
	</outline>
	<anchor name="top" x="290" y="400"/>
</glyph>
<glyph name="h" format="2">
	<unicode hex="0068"/>
	<advance width="521"/>
	<outline>
		<contour>
			<point x="401" y="-14" type="curve" smooth="yes"/>
			<point x="452" y="-14"/>
			<point x="487" y="23"/>
			<point x="504" y="53" type="curve" smooth="yes"/>
			<point x="510" y="64"/>
			<point x="513" y="76"/>
			<point x="495" y="87" type="curve" smooth="yes"/>
			<point x="477" y="98"/>
			<point x="466" y="92"/>
			<point x="460" y="83" type="curve" smooth="yes"/>
			<point x="450" y="68"/>
			<point x="432" y="46"/>
			<point x="408" y="46" type="curve" smooth="yes"/>
			<point x="379" y="46"/>
			<point x="386" y="77"/>
			<point x="392" y="95" type="curve" smooth="yes"/>
			<point x="440" y="246" type="line" smooth="yes"/>
			<point x="471" y="344"/>
			<point x="448" y="415"/>
			<point x="353" y="415" type="curve" smooth="yes"/>
			<point x="297" y="415"/>
			<point x="242" y="388"/>
			<point x="197" y="340" type="curve"/>
			<point x="307" y="681" type="line" smooth="yes"/>
			<point x="314" y="702"/>
			<point x="307" y="712"/>
			<point x="274" y="712" type="curve" smooth="yes"/>
			<point x="253" y="712"/>
			<point x="245" y="708"/>
			<point x="238" y="686" type="curve" smooth="yes"/>
			<point x="22" y="14" type="line" smooth="yes"/>
			<point x="16" y="-6"/>
			<point x="35" y="-12"/>
			<point x="52" y="-12" type="curve" smooth="yes"/>
			<point x="76" y="-12"/>
			<point x="85" y="-6"/>
			<point x="90" y="9" type="curve" smooth="yes"/>
			<point x="163" y="234" type="line"/>
			<point x="205" y="306"/>
			<point x="268" y="352"/>
			<point x="328" y="352" type="curve" smooth="yes"/>
			<point x="377" y="352"/>
			<point x="395" y="325"/>
			<point x="379" y="275" type="curve" smooth="yes"/>
			<point x="333" y="133" type="line" smooth="yes"/>
			<point x="309" y="60"/>
			<point x="307" y="-14"/>
		</contour>
	</outline>
	<anchor name="bottom" x="213" y="0"/>
	<anchor name="center" x="262" y="558"/>
	<anchor name="top" x="274" y="670"/>
</glyph>
<glyph name="i" format="2">
  <advance width="244"/>
  <unicode hex="0069"/>
  <guideline x="183" y="489" angle="72"/>
  <anchor x="99" y="0" name="bottom"/>
  <anchor x="142" y="0" name="ogonek"/>
  <outline>
    <contour>
      <point x="120" y="-14" type="curve" smooth="yes"/>
      <point x="171" y="-14"/>
      <point x="208" y="23"/>
      <point x="225" y="53" type="curve" smooth="yes"/>
      <point x="231" y="64"/>
      <point x="234" y="76"/>
      <point x="216" y="87" type="curve" smooth="yes"/>
      <point x="198" y="98"/>
      <point x="187" y="92"/>
      <point x="181" y="83" type="curve" smooth="yes"/>
      <point x="171" y="68"/>
      <point x="152" y="46"/>
      <point x="128" y="46" type="curve" smooth="yes"/>
      <point x="106" y="46"/>
      <point x="101" y="65"/>
      <point x="112" y="99" type="curve" smooth="yes"/>
      <point x="203" y="381" type="line" smooth="yes"/>
      <point x="210" y="402"/>
      <point x="203" y="412"/>
      <point x="170" y="412" type="curve" smooth="yes"/>
      <point x="149" y="412"/>
      <point x="141" y="408"/>
      <point x="134" y="386" type="curve" smooth="yes"/>
      <point x="48" y="120" type="line" smooth="yes"/>
      <point x="21" y="37"/>
      <point x="49" y="-14"/>
    </contour>
    <contour>
      <point x="220" y="535" type="curve" smooth="yes"/>
      <point x="260" y="535"/>
      <point x="278" y="566"/>
      <point x="278" y="595" type="curve" smooth="yes"/>
      <point x="278" y="622"/>
      <point x="261" y="636"/>
      <point x="239" y="636" type="curve" smooth="yes"/>
      <point x="199" y="636"/>
      <point x="181" y="605"/>
      <point x="181" y="576" type="curve" smooth="yes"/>
      <point x="181" y="549"/>
      <point x="198" y="535"/>
    </contour>
  </outline>
</glyph>
<glyph name="j" format="2">
	<unicode hex="006A"/>
	<advance width="214"/>
	<outline>
		<contour>
			<point x="-106" y="-315" type="curve" smooth="yes"/>
			<point x="-56" y="-315"/>
			<point x="-21" y="-300"/>
			<point x="12" y="-198" type="curve" smooth="yes"/>
			<point x="201" y="381" type="line" smooth="yes"/>
			<point x="208" y="402"/>
			<point x="201" y="412"/>
			<point x="168" y="412" type="curve" smooth="yes"/>
			<point x="147" y="412"/>
			<point x="139" y="408"/>
			<point x="132" y="386" type="curve" smooth="yes"/>
			<point x="-53" y="-181" type="line" smooth="yes"/>
			<point x="-71" y="-236"/>
			<point x="-79" y="-255"/>
			<point x="-100" y="-255" type="curve" smooth="yes"/>
			<point x="-114" y="-255"/>
			<point x="-125" y="-247"/>
			<point x="-144" y="-224" type="curve" smooth="yes"/>
			<point x="-154" y="-211"/>
			<point x="-167" y="-211"/>
			<point x="-183" y="-223" type="curve" smooth="yes"/>
			<point x="-203" y="-238"/>
			<point x="-200" y="-249"/>
			<point x="-189" y="-265" type="curve" smooth="yes"/>
			<point x="-168" y="-297"/>
			<point x="-137" y="-315"/>
		</contour>
		<contour>
			<point x="221" y="535" type="curve" smooth="yes"/>
			<point x="261" y="535"/>
			<point x="279" y="566"/>
			<point x="279" y="595" type="curve" smooth="yes"/>
			<point x="279" y="622"/>
			<point x="262" y="636"/>
			<point x="240" y="636" type="curve" smooth="yes"/>
			<point x="200" y="636"/>
			<point x="182" y="605"/>
			<point x="182" y="576" type="curve" smooth="yes"/>
			<point x="182" y="549"/>
			<point x="199" y="535"/>
		</contour>
	</outline>
	<guideline x="185" y="489" angle="72"/>
</glyph>
<glyph name="k" format="2">
	<unicode hex="006B"/>
	<advance width="451"/>
	<outline>
		<contour>
			<point x="52" y="-12" type="curve" smooth="yes"/>
			<point x="76" y="-12"/>
			<point x="85" y="-6"/>
			<point x="90" y="9" type="curve" smooth="yes"/>
			<point x="146" y="181" type="line"/>
			<point x="211" y="16"/>
			<point x="241" y="-15"/>
			<point x="289" y="-15" type="curve" smooth="yes"/>
			<point x="310" y="-15"/>
			<point x="349" y="-6"/>
			<point x="398" y="41" type="curve" smooth="yes"/>
			<point x="411" y="53"/>
			<point x="408" y="66"/>
			<point x="398" y="78" type="curve" smooth="yes"/>
			<point x="389" y="89"/>
			<point x="377" y="92"/>
			<point x="364" y="82" type="curve" smooth="yes"/>
			<point x="342" y="64"/>
			<point x="315" y="46"/>
			<point x="299" y="46" type="curve" smooth="yes"/>
			<point x="273" y="46"/>
			<point x="266" y="60"/>
			<point x="202" y="221" type="curve"/>
			<point x="438" y="355" type="line" smooth="yes"/>
			<point x="459" y="367"/>
			<point x="456" y="381"/>
			<point x="447" y="397" type="curve" smooth="yes"/>
			<point x="436" y="416"/>
			<point x="424" y="416"/>
			<point x="406" y="406" type="curve" smooth="yes"/>
			<point x="176" y="275" type="line"/>
			<point x="307" y="681" type="line" smooth="yes"/>
			<point x="314" y="702"/>
			<point x="307" y="712"/>
			<point x="274" y="712" type="curve" smooth="yes"/>
			<point x="253" y="712"/>
			<point x="245" y="708"/>
			<point x="238" y="686" type="curve" smooth="yes"/>
			<point x="22" y="14" type="line" smooth="yes"/>
			<point x="16" y="-6"/>
			<point x="35" y="-12"/>
		</contour>
	</outline>
	<anchor name="bottom" x="173" y="0"/>
	<anchor name="top" x="266" y="670"/>
</glyph>
<glyph name="l" format="2">
	<unicode hex="006C"/>
	<advance width="247"/>
	<outline>
		<contour>
			<point x="122" y="-14" type="curve" smooth="yes"/>
			<point x="173" y="-14"/>
			<point x="210" y="23"/>
			<point x="228" y="53" type="curve" smooth="yes"/>
			<point x="234" y="64"/>
			<point x="237" y="76"/>
			<point x="219" y="87" type="curve" smooth="yes"/>
			<point x="201" y="98"/>
			<point x="190" y="92"/>
			<point x="184" y="83" type="curve" smooth="yes"/>
			<point x="174" y="68"/>
			<point x="154" y="46"/>
			<point x="130" y="46" type="curve" smooth="yes"/>
			<point x="108" y="46"/>
			<point x="103" y="65"/>
			<point x="114" y="99" type="curve" smooth="yes"/>
			<point x="302" y="681" type="line" smooth="yes"/>
			<point x="309" y="702"/>
			<point x="302" y="712"/>
			<point x="269" y="712" type="curve" smooth="yes"/>
			<point x="248" y="712"/>
			<point x="240" y="708"/>
			<point x="233" y="686" type="curve" smooth="yes"/>
			<point x="50" y="120" type="line" smooth="yes"/>
			<point x="23" y="37"/>
			<point x="51" y="-14"/>
		</contour>
	</outline>
	<anchor name="bottom" x="101" y="0"/>
	<anchor name="center" x="166" y="350"/>
	<anchor name="top" x="260" y="670"/>
	<anchor name="topright" x="283" y="699"/>
</glyph>
<glyph name="n" format="2">
  <advance width="646"/>
  <unicode hex="006E"/>
  <anchor x="250" y="0" name="bottom"/>
  <anchor x="359" y="500" name="top"/>
  <outline>
    <contour>
      <point x="496" y="-17" type="curve" smooth="yes"/>
      <point x="560" y="-17"/>
      <point x="604" y="29"/>
      <point x="625" y="66" type="curve" smooth="yes"/>
      <point x="633" y="80"/>
      <point x="636" y="95"/>
      <point x="614" y="109" type="curve" smooth="yes"/>
      <point x="591" y="123"/>
      <point x="578" y="115"/>
      <point x="570" y="104" type="curve" smooth="yes"/>
      <point x="558" y="85"/>
      <point x="535" y="58"/>
      <point x="505" y="58" type="curve" smooth="yes"/>
      <point x="469" y="58"/>
      <point x="478" y="96"/>
      <point x="485" y="119" type="curve" smooth="yes"/>
      <point x="545" y="308" type="line" smooth="yes"/>
      <point x="584" y="430"/>
      <point x="555" y="519"/>
      <point x="436" y="519" type="curve" smooth="yes"/>
      <point x="366" y="519"/>
      <point x="296" y="485"/>
      <point x="239" y="425" type="curve"/>
      <point x="255" y="476" type="line" smooth="yes"/>
      <point x="264" y="503"/>
      <point x="255" y="515"/>
      <point x="214" y="515" type="curve" smooth="yes"/>
      <point x="188" y="515"/>
      <point x="178" y="510"/>
      <point x="169" y="483" type="curve" smooth="yes"/>
      <point x="19" y="18" type="line" smooth="yes"/>
      <point x="10" y="-7"/>
      <point x="35" y="-15"/>
      <point x="56" y="-15" type="curve" smooth="yes"/>
      <point x="86" y="-15"/>
      <point x="98" y="-7"/>
      <point x="104" y="11" type="curve" smooth="yes"/>
      <point x="196" y="294" type="line"/>
      <point x="250" y="384"/>
      <point x="330" y="440"/>
      <point x="405" y="440" type="curve" smooth="yes"/>
      <point x="466" y="440"/>
      <point x="489" y="406"/>
      <point x="469" y="344" type="curve" smooth="yes"/>
      <point x="411" y="166" type="line" smooth="yes"/>
      <point x="381" y="75"/>
      <point x="379" y="-17"/>
    </contour>
  </outline>
</glyph>
<glyph name="p" format="2">
  <advance width="599"/>
  <unicode hex="0070"/>
  <guideline x="83" y="159" angle="72"/>
  <outline>
    <contour>
      <point x="-58" y="-390" type="curve" smooth="yes"/>
      <point x="-28" y="-390"/>
      <point x="-16" y="-382"/>
      <point x="-10" y="-364" type="curve" smooth="yes"/>
      <point x="114" y="20" type="line"/>
      <point x="150" y="-2"/>
      <point x="192" y="-17"/>
      <point x="235" y="-17" type="curve" smooth="yes"/>
      <point x="452" y="-17"/>
      <point x="554" y="196"/>
      <point x="554" y="350" type="curve" smooth="yes"/>
      <point x="554" y="454"/>
      <point x="501" y="519"/>
      <point x="409" y="519" type="curve" smooth="yes"/>
      <point x="367" y="519"/>
      <point x="309" y="504"/>
      <point x="251" y="441" type="curve"/>
      <point x="262" y="476" type="line" smooth="yes"/>
      <point x="271" y="503"/>
      <point x="262" y="515"/>
      <point x="221" y="515" type="curve" smooth="yes"/>
      <point x="195" y="515"/>
      <point x="185" y="510"/>
      <point x="176" y="483" type="curve" smooth="yes"/>
      <point x="-95" y="-357" type="line" smooth="yes"/>
      <point x="-104" y="-382"/>
      <point x="-79" y="-390"/>
    </contour>
    <contour>
      <point x="135" y="85" type="curve"/>
      <point x="210" y="315" type="line"/>
      <point x="261" y="393"/>
      <point x="321" y="439"/>
      <point x="380" y="439" type="curve" smooth="yes"/>
      <point x="436" y="439"/>
      <point x="464" y="405"/>
      <point x="464" y="341" type="curve" smooth="yes"/>
      <point x="464" y="238"/>
      <point x="402" y="61"/>
      <point x="229" y="61" type="curve" smooth="yes"/>
      <point x="197" y="61"/>
      <point x="169" y="68"/>
    </contour>
  </outline>
</glyph>
<glyph name="q" format="2">
	<unicode hex="0071"/>
	<advance width="478"/>
	<outline>
		<contour>
			<point x="152" y="-14" type="curve" smooth="yes"/>
			<point x="186" y="-14"/>
			<point x="238" y="-1"/>
			<point x="287" y="53" type="curve"/>
			<point x="177" y="-286" type="line" smooth="yes"/>
			<point x="170" y="-306"/>
			<point x="190" y="-312"/>
			<point x="207" y="-312" type="curve" smooth="yes"/>
			<point x="231" y="-312"/>
			<point x="240" y="-306"/>
			<point x="245" y="-291" type="curve" smooth="yes"/>
			<point x="463" y="381" type="line" smooth="yes"/>
			<point x="470" y="402"/>
			<point x="463" y="412"/>
			<point x="430" y="412" type="curve" smooth="yes"/>
			<point x="409" y="412"/>
			<point x="401" y="408"/>
			<point x="394" y="386" type="curve" smooth="yes"/>
			<point x="393" y="383" type="line"/>
			<point x="363" y="402"/>
			<point x="329" y="415"/>
			<point x="291" y="415" type="curve" smooth="yes"/>
			<point x="113" y="415"/>
			<point x="35" y="238"/>
			<point x="35" y="121" type="curve" smooth="yes"/>
			<point x="35" y="37"/>
			<point x="78" y="-14"/>
		</contour>
		<contour>
			<point x="107" y="128" type="curve" smooth="yes"/>
			<point x="107" y="207"/>
			<point x="155" y="352"/>
			<point x="296" y="352" type="curve" smooth="yes"/>
			<point x="323" y="352"/>
			<point x="348" y="346"/>
			<point x="376" y="331" type="curve"/>
			<point x="326" y="176" type="line"/>
			<point x="283" y="98"/>
			<point x="229" y="50"/>
			<point x="175" y="50" type="curve" smooth="yes"/>
			<point x="130" y="50"/>
			<point x="107" y="77"/>
		</contour>
	</outline>
	<guideline x="409" y="261" angle="72"/>
</glyph>
<glyph name="s" format="2">
	<unicode hex="0073"/>
	<advance width="383"/>
	<outline>
		<contour>
			<point x="156" y="-15" type="curve" smooth="yes"/>
			<point x="247" y="-15"/>
			<point x="319" y="20"/>
			<point x="319" y="115" type="curve" smooth="yes"/>
			<point x="319" y="235"/>
			<point x="160" y="219"/>
			<point x="160" y="304" type="curve" smooth="yes"/>
			<point x="160" y="334"/>
			<point x="182" y="360"/>
			<point x="234" y="360" type="curve" smooth="yes"/>
			<point x="280" y="360"/>
			<point x="317" y="341"/>
			<point x="343" y="318" type="curve" smooth="yes"/>
			<point x="355" y="307"/>
			<point x="365" y="314"/>
			<point x="377" y="324" type="curve" smooth="yes"/>
			<point x="390" y="335"/>
			<point x="390" y="344"/>
			<point x="379" y="359" type="curve" smooth="yes"/>
			<point x="359" y="387"/>
			<point x="308" y="415"/>
			<point x="235" y="415" type="curve" smooth="yes"/>
			<point x="135" y="415"/>
			<point x="90" y="356"/>
			<point x="90" y="297" type="curve" smooth="yes"/>
			<point x="90" y="169"/>
			<point x="250" y="188"/>
			<point x="250" y="105" type="curve" smooth="yes"/>
			<point x="250" y="62"/>
			<point x="217" y="40"/>
			<point x="157" y="40" type="curve" smooth="yes"/>
			<point x="108" y="40"/>
			<point x="67" y="62"/>
			<point x="43" y="86" type="curve" smooth="yes"/>
			<point x="31" y="99"/>
			<point x="21" y="95"/>
			<point x="7" y="82" type="curve" smooth="yes"/>
			<point x="-9" y="67"/>
			<point x="-6" y="57"/>
			<point x="1" y="49" type="curve" smooth="yes"/>
			<point x="34" y="11"/>
			<point x="91" y="-15"/>
		</contour>
	</outline>
	<anchor name="bottom" x="138" y="0"/>
	<anchor name="top" x="255" y="400"/>
</glyph>
<glyph name="u" format="2">
	<unicode hex="0075"/>
	<advance width="517"/>
	<outline>
		<contour>
			<point x="156" y="-14" type="curve" smooth="yes"/>
			<point x="228" y="-14"/>
			<point x="306" y="39"/>
			<point x="356" y="129" type="curve"/>
			<point x="344" y="179" type="line"/>
			<point x="304" y="100"/>
			<point x="234" y="49"/>
			<point x="181" y="49" type="curve" smooth="yes"/>
			<point x="123" y="49"/>
			<point x="107" y="77"/>
			<point x="129" y="144" type="curve" smooth="yes"/>
			<point x="206" y="381" type="line" smooth="yes"/>
			<point x="213" y="402"/>
			<point x="206" y="412"/>
			<point x="173" y="412" type="curve" smooth="yes"/>
			<point x="152" y="412"/>
			<point x="144" y="408"/>
			<point x="137" y="386" type="curve" smooth="yes"/>
			<point x="58" y="144" type="line" smooth="yes"/>
			<point x="27" y="49"/>
			<point x="66" y="-14"/>
		</contour>
		<contour>
			<point x="394" y="-14" type="curve" smooth="yes"/>
			<point x="445" y="-14"/>
			<point x="481" y="23"/>
			<point x="498" y="53" type="curve" smooth="yes"/>
			<point x="504" y="64"/>
			<point x="507" y="76"/>
			<point x="489" y="87" type="curve" smooth="yes"/>
			<point x="471" y="98"/>
			<point x="460" y="92"/>
			<point x="454" y="83" type="curve" smooth="yes"/>
			<point x="444" y="68"/>
			<point x="425" y="46"/>
			<point x="401" y="46" type="curve" smooth="yes"/>
			<point x="372" y="46"/>
			<point x="378" y="77"/>
			<point x="384" y="95" type="curve" smooth="yes"/>
			<point x="477" y="381" type="line" smooth="yes"/>
			<point x="484" y="402"/>
			<point x="477" y="412"/>
			<point x="444" y="412" type="curve" smooth="yes"/>
			<point x="423" y="412"/>
			<point x="415" y="408"/>
			<point x="408" y="386" type="curve" smooth="yes"/>
			<point x="326" y="133" type="line" smooth="yes"/>
			<point x="302" y="60"/>
			<point x="300" y="-14"/>
		</contour>
	</outline>
	<anchor name="bottom" x="173" y="0"/>
	<anchor name="ogonek" x="403" y="10"/>
	<anchor name="top" x="303" y="400"/>
	<anchor name="topright" x="440" y="411"/>
	<guideline x="308" y="400" angle="72"/>
</glyph>
<glyph name="w" format="2">
  <advance width="803"/>
  <unicode hex="0077"/>
  <anchor x="326" y="0" name="bottom"/>
  <anchor x="475" y="500" name="top"/>
  <outline>
    <contour>
      <point x="146" y="-15" type="curve" smooth="yes"/>
      <point x="175" y="-15"/>
      <point x="191" y="-2"/>
      <point x="201" y="11" type="curve" smooth="yes"/>
      <point x="444" y="378" type="line"/>
      <point x="455" y="23" type="line" smooth="yes"/>
      <point x="455" y="-5"/>
      <point x="465" y="-15"/>
      <point x="494" y="-15" type="curve" smooth="yes"/>
      <point x="523" y="-15"/>
      <point x="543" y="-4"/>
      <point x="553" y="11" type="curve" smooth="yes"/>
      <point x="850" y="468" type="line" smooth="yes"/>
      <point x="866" y="493"/>
      <point x="851" y="515"/>
      <point x="814" y="515" type="curve" smooth="yes"/>
      <point x="795" y="515"/>
      <point x="780" y="511"/>
      <point x="765" y="488" type="curve" smooth="yes"/>
      <point x="535" y="123" type="line"/>
      <point x="524" y="469" type="line" smooth="yes"/>
      <point x="523" y="504"/>
      <point x="503" y="515"/>
      <point x="481" y="515" type="curve" smooth="yes"/>
      <point x="455" y="515"/>
      <point x="440" y="508"/>
      <point x="424" y="484" type="curve" smooth="yes"/>
      <point x="184" y="121" type="line"/>
      <point x="181" y="475" type="line" smooth="yes"/>
      <point x="181" y="505"/>
      <point x="169" y="515"/>
      <point x="140" y="515" type="curve" smooth="yes"/>
      <point x="103" y="515"/>
      <point x="96" y="495"/>
      <point x="96" y="476" type="curve" smooth="yes"/>
      <point x="108" y="23" type="line" smooth="yes"/>
      <point x="109" y="-5"/>
      <point x="118" y="-15"/>
    </contour>
  </outline>
</glyph>
<glyph name="y" format="2">
  <advance width="492"/>
  <unicode hex="0079"/>
  <anchor x="181" y="0" name="bottom"/>
  <anchor x="297" y="400" name="top"/>
  <outline>
    <contour>
      <point x="156" y="-14" type="curve" smooth="yes"/>
      <point x="205" y="-14"/>
      <point x="257" y="11"/>
      <point x="301" y="55" type="curve"/>
      <point x="246" y="-118" type="line" smooth="yes"/>
      <point x="214" y="-217"/>
      <point x="178" y="-253"/>
      <point x="102" y="-253" type="curve" smooth="yes"/>
      <point x="64" y="-253"/>
      <point x="30" y="-247"/>
      <point x="13" y="-208" type="curve" smooth="yes"/>
      <point x="6" y="-192"/>
      <point x="-4" y="-191"/>
      <point x="-26" y="-201" type="curve" smooth="yes"/>
      <point x="-50" y="-212"/>
      <point x="-46" y="-225"/>
      <point x="-38" y="-243" type="curve" smooth="yes"/>
      <point x="-20" y="-282"/>
      <point x="31" y="-315"/>
      <point x="96" y="-315" type="curve" smooth="yes"/>
      <point x="211" y="-315"/>
      <point x="268" y="-261"/>
      <point x="314" y="-120" type="curve" smooth="yes"/>
      <point x="476" y="381" type="line" smooth="yes"/>
      <point x="483" y="402"/>
      <point x="476" y="412"/>
      <point x="443" y="412" type="curve" smooth="yes"/>
      <point x="422" y="412"/>
      <point x="414" y="408"/>
      <point x="407" y="386" type="curve" smooth="yes"/>
      <point x="336" y="165" type="line"/>
      <point x="296" y="94"/>
      <point x="231" y="49"/>
      <point x="181" y="49" type="curve" smooth="yes"/>
      <point x="123" y="49"/>
      <point x="107" y="77"/>
      <point x="129" y="144" type="curve" smooth="yes"/>
      <point x="206" y="381" type="line" smooth="yes"/>
      <point x="213" y="402"/>
      <point x="206" y="412"/>
      <point x="173" y="412" type="curve" smooth="yes"/>
      <point x="152" y="412"/>
      <point x="144" y="408"/>
      <point x="137" y="386" type="curve" smooth="yes"/>
      <point x="58" y="144" type="line" smooth="yes"/>
      <point x="27" y="49"/>
      <point x="66" y="-14"/>
    </contour>
  </outline>
</glyph>
<glyph name="z" format="2">
	<unicode hex="007A"/>
	<advance width="396"/>
	<outline>
		<contour>
			<point x="9" y="0" type="curve" smooth="yes"/>
			<point x="285" y="0" type="line" smooth="yes"/>
			<point x="297" y="0"/>
			<point x="308" y="11"/>
			<point x="314" y="32" type="curve" smooth="yes"/>
			<point x="320" y="54"/>
			<point x="315" y="64"/>
			<point x="303" y="64" type="curve" smooth="yes"/>
			<point x="110" y="64" type="line"/>
			<point x="393" y="356" type="line" smooth="yes"/>
			<point x="407" y="370"/>
			<point x="403" y="400"/>
			<point x="376" y="400" type="curve" smooth="yes"/>
			<point x="125" y="400" type="line" smooth="yes"/>
			<point x="113" y="400"/>
			<point x="102" y="389"/>
			<point x="96" y="368" type="curve" smooth="yes"/>
			<point x="90" y="346"/>
			<point x="95" y="336"/>
			<point x="107" y="336" type="curve" smooth="yes"/>
			<point x="282" y="336" type="line"/>
			<point x="-2" y="44" type="line" smooth="yes"/>
			<point x="-20" y="26"/>
			<point x="-14" y="0"/>
		</contour>
	</outline>
	<anchor name="bottom" x="140" y="0"/>
	<anchor name="center" x="205" y="200"/>
	<anchor name="top" x="260" y="400"/>
</glyph>
<glyph name="braceright" format="2">
  <advance width="329"/>
  <unicode hex="007D"/>
  <outline>
    <contour>
      <point x="-34" y="-75" type="curve" smooth="yes"/>
      <point x="101" y="-75"/>
      <point x="211" y="-16"/>
      <point x="210" y="104" type="curve" smooth="yes"/>
      <point x="209" y="165"/>
      <point x="190" y="191"/>
      <point x="189" y="266" type="curve" smooth="yes"/>
      <point x="188" y="346"/>
      <point x="241" y="388"/>
      <point x="318" y="398" type="curve" smooth="yes"/>
      <point x="339" y="401"/>
      <point x="346" y="408"/>
      <point x="356" y="438" type="curve" smooth="yes"/>
      <point x="365" y="463"/>
      <point x="364" y="473"/>
      <point x="340" y="478" type="curve" smooth="yes"/>
      <point x="295" y="485"/>
      <point x="271" y="505"/>
      <point x="271" y="541" type="curve" smooth="yes"/>
      <point x="271" y="636"/>
      <point x="439" y="728"/>
      <point x="439" y="851" type="curve" smooth="yes"/>
      <point x="439" y="920"/>
      <point x="370" y="950"/>
      <point x="281" y="950" type="curve" smooth="yes"/>
      <point x="261" y="950"/>
      <point x="251" y="940"/>
      <point x="241" y="910" type="curve" smooth="yes"/>
      <point x="234" y="885"/>
      <point x="234" y="870"/>
      <point x="256" y="870" type="curve" smooth="yes"/>
      <point x="316" y="870"/>
      <point x="351" y="849"/>
      <point x="351" y="823" type="curve" smooth="yes"/>
      <point x="351" y="730"/>
      <point x="184" y="673"/>
      <point x="184" y="541" type="curve" smooth="yes"/>
      <point x="184" y="503"/>
      <point x="214" y="460"/>
      <point x="263" y="444" type="curve"/>
      <point x="155" y="415"/>
      <point x="100" y="346"/>
      <point x="101" y="266" type="curve" smooth="yes"/>
      <point x="104" y="186"/>
      <point x="121" y="154"/>
      <point x="123" y="104" type="curve" smooth="yes"/>
      <point x="124" y="20"/>
      <point x="76" y="5"/>
      <point x="-9" y="5" type="curve" smooth="yes"/>
      <point x="-29" y="5"/>
      <point x="-40" y="-5"/>
      <point x="-49" y="-35" type="curve" smooth="yes"/>
      <point x="-56" y="-56"/>
      <point x="-59" y="-75"/>
    </contour>
  </outline>
</glyph>
<glyph name="cent" format="2">
  <advance width="424"/>
  <unicode hex="00A2"/>
  <outline>
    <contour>
      <point x="191" y="-15" type="curve" smooth="yes"/>
      <point x="233" y="-15"/>
      <point x="307" y="-2"/>
      <point x="357" y="66" type="curve" smooth="yes"/>
      <point x="369" y="82"/>
      <point x="369" y="94"/>
      <point x="353" y="108" type="curve" smooth="yes"/>
      <point x="340" y="120"/>
      <point x="325" y="123"/>
      <point x="311" y="110" type="curve" smooth="yes"/>
      <point x="271" y="70"/>
      <point x="252" y="49"/>
      <point x="199" y="49" type="curve" smooth="yes"/>
      <point x="144" y="49"/>
      <point x="110" y="83"/>
      <point x="110" y="145" type="curve" smooth="yes"/>
      <point x="110" y="223"/>
      <point x="165" y="351"/>
      <point x="272" y="351" type="curve" smooth="yes"/>
      <point x="320" y="351"/>
      <point x="348" y="339"/>
      <point x="368" y="317" type="curve" smooth="yes"/>
      <point x="382" y="301"/>
      <point x="396" y="304"/>
      <point x="410" y="315" type="curve" smooth="yes"/>
      <point x="423" y="326"/>
      <point x="431" y="339"/>
      <point x="415" y="358" type="curve" smooth="yes"/>
      <point x="383" y="395"/>
      <point x="342" y="415"/>
      <point x="279" y="415" type="curve" smooth="yes"/>
      <point x="122" y="415"/>
      <point x="38" y="253"/>
      <point x="38" y="142" type="curve" smooth="yes"/>
      <point x="38" y="50"/>
      <point x="85" y="-15"/>
    </contour>
    <contour>
      <point x="126" y="-120" type="curve" smooth="yes"/>
      <point x="147" y="-120"/>
      <point x="160" y="-113"/>
      <point x="165" y="-98" type="curve" smooth="yes"/>
      <point x="363" y="510" type="line" smooth="yes"/>
      <point x="368" y="525"/>
      <point x="359" y="532"/>
      <point x="338" y="532" type="curve" smooth="yes"/>
      <point x="317" y="532"/>
      <point x="304" y="525"/>
      <point x="299" y="510" type="curve" smooth="yes"/>
      <point x="101" y="-98" type="line" smooth="yes"/>
      <point x="96" y="-113"/>
      <point x="105" y="-120"/>
    </contour>
  </outline>
</glyph>
<glyph name="sterling" format="2">
  <advance width="540"/>
  <unicode hex="00A3"/>
  <outline>
    <contour>
      <point x="-13" y="0" type="curve" smooth="yes"/>
      <point x="447" y="0" type="line" smooth="yes"/>
      <point x="465" y="0"/>
      <point x="473" y="11"/>
      <point x="480" y="34" type="curve" smooth="yes"/>
      <point x="487" y="57"/>
      <point x="483" y="64"/>
      <point x="468" y="64" type="curve" smooth="yes"/>
      <point x="173" y="64" type="line"/>
      <point x="241" y="271" type="line"/>
      <point x="408" y="271" type="line" smooth="yes"/>
      <point x="424" y="271"/>
      <point x="433" y="278"/>
      <point x="440" y="302" type="curve" smooth="yes"/>
      <point x="447" y="326"/>
      <point x="445" y="333"/>
      <point x="429" y="333" type="curve" smooth="yes"/>
      <point x="261" y="333" type="line"/>
      <point x="329" y="541" type="line" smooth="yes"/>
      <point x="353" y="613"/>
      <point x="398" y="647"/>
      <point x="462" y="647" type="curve" smooth="yes"/>
      <point x="497" y="647"/>
      <point x="536" y="634"/>
      <point x="571" y="608" type="curve" smooth="yes"/>
      <point x="587" y="596"/>
      <point x="598" y="595"/>
      <point x="615" y="611" type="curve" smooth="yes"/>
      <point x="632" y="627"/>
      <point x="631" y="640"/>
      <point x="618" y="653" type="curve" smooth="yes"/>
      <point x="584" y="687"/>
      <point x="528" y="712"/>
      <point x="466" y="712" type="curve" smooth="yes"/>
      <point x="365" y="712"/>
      <point x="297" y="655"/>
      <point x="261" y="546" type="curve" smooth="yes"/>
      <point x="191" y="333" type="line"/>
      <point x="112" y="333" type="line" smooth="yes"/>
      <point x="96" y="333"/>
      <point x="87" y="326"/>
      <point x="79" y="302" type="curve" smooth="yes"/>
      <point x="71" y="278"/>
      <point x="75" y="271"/>
      <point x="91" y="271" type="curve" smooth="yes"/>
      <point x="171" y="271" type="line"/>
      <point x="103" y="64" type="line"/>
      <point x="8" y="64" type="line" smooth="yes"/>
      <point x="-7" y="64"/>
      <point x="-16" y="58"/>
      <point x="-24" y="34" type="curve" smooth="yes"/>
      <point x="-31" y="12"/>
      <point x="-31" y="0"/>
    </contour>
  </outline>
</glyph>
<glyph name="yen" format="2">
  <advance width="534"/>
  <unicode hex="00A5"/>
  <outline>
    <contour>
      <point x="196" y="-11" type="curve" smooth="yes"/>
      <point x="219" y="-11"/>
      <point x="235" y="-4"/>
      <point x="240" y="11" type="curve" smooth="yes"/>
      <point x="336" y="306" type="line"/>
      <point x="655" y="670" type="line" smooth="yes"/>
      <point x="674" y="692"/>
      <point x="661" y="712"/>
      <point x="635" y="712" type="curve" smooth="yes"/>
      <point x="607" y="712"/>
      <point x="597" y="702"/>
      <point x="580" y="683" type="curve" smooth="yes"/>
      <point x="318" y="383" type="line"/>
      <point x="245" y="683" type="line" smooth="yes"/>
      <point x="240" y="702"/>
      <point x="234" y="712"/>
      <point x="210" y="712" type="curve" smooth="yes"/>
      <point x="182" y="712"/>
      <point x="171" y="697"/>
      <point x="176" y="676" type="curve" smooth="yes"/>
      <point x="265" y="308" type="line"/>
      <point x="168" y="11" type="line" smooth="yes"/>
      <point x="163" y="-4"/>
      <point x="173" y="-11"/>
    </contour>
    <contour>
      <point x="109" y="280" type="curve" smooth="yes"/>
      <point x="481" y="280" type="line" smooth="yes"/>
      <point x="497" y="280"/>
      <point x="506" y="287"/>
      <point x="513" y="311" type="curve" smooth="yes"/>
      <point x="521" y="335"/>
      <point x="518" y="342"/>
      <point x="502" y="342" type="curve" smooth="yes"/>
      <point x="130" y="342" type="line" smooth="yes"/>
      <point x="114" y="342"/>
      <point x="105" y="335"/>
      <point x="97" y="311" type="curve" smooth="yes"/>
      <point x="90" y="287"/>
      <point x="93" y="280"/>
    </contour>
    <contour>
      <point x="70" y="160" type="curve" smooth="yes"/>
      <point x="442" y="160" type="line" smooth="yes"/>
      <point x="458" y="160"/>
      <point x="467" y="167"/>
      <point x="475" y="191" type="curve" smooth="yes"/>
      <point x="482" y="215"/>
      <point x="479" y="222"/>
      <point x="463" y="222" type="curve" smooth="yes"/>
      <point x="91" y="222" type="line" smooth="yes"/>
      <point x="75" y="222"/>
      <point x="66" y="215"/>
      <point x="59" y="191" type="curve" smooth="yes"/>
      <point x="51" y="167"/>
      <point x="54" y="160"/>
    </contour>
  </outline>
</glyph>
<glyph name="section" format="2">
  <advance width="666"/>
  <unicode hex="00A7"/>
  <outline>
    <contour>
      <point x="643" y="244" type="curve" smooth="yes"/>
      <point x="643" y="465"/>
      <point x="319" y="484"/>
      <point x="319" y="666" type="curve" smooth="yes"/>
      <point x="319" y="758"/>
      <point x="381" y="805"/>
      <point x="470" y="805" type="curve" smooth="yes"/>
      <point x="554" y="805"/>
      <point x="619" y="771"/>
      <point x="660" y="736" type="curve" smooth="yes"/>
      <point x="673" y="725"/>
      <point x="690" y="728"/>
      <point x="705" y="743" type="curve" smooth="yes"/>
      <point x="723" y="759"/>
      <point x="726" y="774"/>
      <point x="713" y="788" type="curve" smooth="yes"/>
      <point x="664" y="840"/>
      <point x="568" y="890"/>
      <point x="470" y="890" type="curve" smooth="yes"/>
      <point x="319" y="890"/>
      <point x="226" y="793"/>
      <point x="226" y="666" type="curve" smooth="yes"/>
      <point x="226" y="434"/>
      <point x="550" y="399"/>
      <point x="550" y="244" type="curve" smooth="yes"/>
      <point x="550" y="139"/>
      <point x="471" y="83"/>
      <point x="350" y="44" type="curve"/>
      <point x="411" y="-4" type="line"/>
      <point x="534" y="38"/>
      <point x="643" y="104"/>
    </contour>
    <contour>
      <point x="83" y="293" type="curve" smooth="yes"/>
      <point x="83" y="63"/>
      <point x="398" y="49"/>
      <point x="398" y="-130" type="curve" smooth="yes"/>
      <point x="398" y="-247"/>
      <point x="299" y="-309"/>
      <point x="200" y="-309" type="curve" smooth="yes"/>
      <point x="113" y="-309"/>
      <point x="31" y="-274"/>
      <point x="-10" y="-232" type="curve" smooth="yes"/>
      <point x="-24" y="-219"/>
      <point x="-37" y="-224"/>
      <point x="-55" y="-239" type="curve" smooth="yes"/>
      <point x="-69" y="-251"/>
      <point x="-80" y="-266"/>
      <point x="-67" y="-281" type="curve" smooth="yes"/>
      <point x="-12" y="-342"/>
      <point x="81" y="-394"/>
      <point x="200" y="-394" type="curve" smooth="yes"/>
      <point x="355" y="-394"/>
      <point x="490" y="-282"/>
      <point x="490" y="-130" type="curve" smooth="yes"/>
      <point x="490" y="115"/>
      <point x="175" y="113"/>
      <point x="175" y="293" type="curve" smooth="yes"/>
      <point x="175" y="398"/>
      <point x="254" y="456"/>
      <point x="375" y="493" type="curve"/>
      <point x="314" y="540" type="line"/>
      <point x="191" y="501"/>
      <point x="83" y="433"/>
    </contour>
  </outline>
</glyph>
<glyph name="copyright" format="2">
  <advance width="724"/>
  <unicode hex="00A9"/>
  <outline>
    <contour>
      <point x="412" y="52" type="curve" smooth="yes"/>
      <point x="575" y="52"/>
      <point x="705" y="182"/>
      <point x="705" y="345" type="curve" smooth="yes"/>
      <point x="705" y="508"/>
      <point x="575" y="638"/>
      <point x="412" y="638" type="curve" smooth="yes"/>
      <point x="249" y="638"/>
      <point x="119" y="508"/>
      <point x="119" y="345" type="curve" smooth="yes"/>
      <point x="119" y="182"/>
      <point x="249" y="52"/>
    </contour>
    <contour>
      <point x="412" y="92" type="curve" smooth="yes"/>
      <point x="273" y="92"/>
      <point x="159" y="206"/>
      <point x="159" y="345" type="curve" smooth="yes"/>
      <point x="159" y="484"/>
      <point x="273" y="598"/>
      <point x="412" y="598" type="curve" smooth="yes"/>
      <point x="551" y="598"/>
      <point x="665" y="484"/>
      <point x="665" y="345" type="curve" smooth="yes"/>
      <point x="665" y="206"/>
      <point x="551" y="92"/>
    </contour>
    <contour>
      <point x="411" y="183" type="curve" smooth="yes"/>
      <point x="453" y="183"/>
      <point x="497" y="207"/>
      <point x="528" y="254" type="curve" smooth="yes"/>
      <point x="532" y="261"/>
      <point x="530" y="268"/>
      <point x="518" y="277" type="curve" smooth="yes"/>
      <point x="509" y="284"/>
      <point x="497" y="290"/>
      <point x="493" y="285" type="curve" smooth="yes"/>
      <point x="467" y="255"/>
      <point x="442" y="240"/>
      <point x="417" y="240" type="curve" smooth="yes"/>
      <point x="370" y="240"/>
      <point x="333" y="274"/>
      <point x="333" y="347" type="curve" smooth="yes"/>
      <point x="333" y="420"/>
      <point x="370" y="454"/>
      <point x="414" y="454" type="curve" smooth="yes"/>
      <point x="442" y="454"/>
      <point x="465" y="442"/>
      <point x="486" y="425" type="curve" smooth="yes"/>
      <point x="491" y="421"/>
      <point x="498" y="424"/>
      <point x="510" y="434" type="curve" smooth="yes"/>
      <point x="521" y="443"/>
      <point x="525" y="449"/>
      <point x="519" y="458" type="curve" smooth="yes"/>
      <point x="490" y="500"/>
      <point x="446" y="510"/>
      <point x="414" y="510" type="curve" smooth="yes"/>
      <point x="330" y="510"/>
      <point x="271" y="435"/>
      <point x="271" y="347" type="curve" smooth="yes"/>
      <point x="271" y="260"/>
      <point x="320" y="183"/>
    </contour>
  </outline>
</glyph>
<glyph name="logicalnot" format="2">
  <advance width="610"/>
  <unicode hex="00AC"/>
  <outline>
    <contour>
      <point x="487" y="121" type="curve" smooth="yes"/>
      <point x="508" y="121"/>
      <point x="516" y="125"/>
      <point x="523" y="147" type="curve" smooth="yes"/>
      <point x="588" y="348" type="line" smooth="yes"/>
      <point x="596" y="372"/>
      <point x="591" y="382"/>
      <point x="575" y="382" type="curve" smooth="yes"/>
      <point x="148" y="382" type="line" smooth="yes"/>
      <point x="136" y="382"/>
      <point x="126" y="372"/>
      <point x="119" y="352" type="curve" smooth="yes"/>
      <point x="111" y="328"/>
      <point x="117" y="318"/>
      <point x="129" y="318" type="curve" smooth="yes"/>
      <point x="507" y="318" type="line"/>
      <point x="454" y="152" type="line" smooth="yes"/>
      <point x="447" y="131"/>
      <point x="454" y="121"/>
    </contour>
  </outline>
</glyph>
<glyph name="degree" format="2">
  <advance width="408"/>
  <unicode hex="00B0"/>
  <outline>
    <contour>
      <point x="359" y="606" type="curve" smooth="yes"/>
      <point x="444" y="606"/>
      <point x="504" y="661"/>
      <point x="504" y="749" type="curve" smooth="yes"/>
      <point x="504" y="835"/>
      <point x="444" y="890"/>
      <point x="359" y="890" type="curve" smooth="yes"/>
      <point x="275" y="890"/>
      <point x="214" y="835"/>
      <point x="214" y="749" type="curve" smooth="yes"/>
      <point x="214" y="661"/>
      <point x="275" y="606"/>
    </contour>
    <contour>
      <point x="359" y="671" type="curve" smooth="yes"/>
      <point x="314" y="671"/>
      <point x="284" y="703"/>
      <point x="284" y="749" type="curve" smooth="yes"/>
      <point x="284" y="794"/>
      <point x="314" y="825"/>
      <point x="359" y="825" type="curve" smooth="yes"/>
      <point x="404" y="825"/>
      <point x="434" y="794"/>
      <point x="434" y="749" type="curve" smooth="yes"/>
      <point x="434" y="703"/>
      <point x="404" y="671"/>
    </contour>
  </outline>
</glyph>
<glyph name="paragraph" format="2">
  <advance width="737"/>
  <unicode hex="00B6"/>
  <outline>
    <contour>
      <point x="186" y="-312" type="curve" smooth="yes"/>
      <point x="209" y="-312"/>
      <point x="223" y="-305"/>
      <point x="228" y="-290" type="curve" smooth="yes"/>
      <point x="529" y="636" type="line"/>
      <point x="638" y="636" type="line"/>
      <point x="337" y="-290" type="line" smooth="yes"/>
      <point x="332" y="-305"/>
      <point x="342" y="-312"/>
      <point x="365" y="-312" type="curve" smooth="yes"/>
      <point x="388" y="-312"/>
      <point x="402" y="-305"/>
      <point x="407" y="-290" type="curve" smooth="yes"/>
      <point x="708" y="636" type="line"/>
      <point x="782" y="636" type="line" smooth="yes"/>
      <point x="798" y="636"/>
      <point x="806" y="644"/>
      <point x="814" y="668" type="curve" smooth="yes"/>
      <point x="822" y="692"/>
      <point x="818" y="700"/>
      <point x="802" y="700" type="curve" smooth="yes"/>
      <point x="479" y="700" type="line"/>
      <point x="158" y="-290" type="line" smooth="yes"/>
      <point x="153" y="-305"/>
      <point x="163" y="-312"/>
    </contour>
    <contour>
      <point x="327" y="211" type="curve" smooth="yes"/>
      <point x="375" y="211" type="line"/>
      <point x="539" y="700" type="line"/>
      <point x="430" y="700" type="line" smooth="yes"/>
      <point x="242" y="700"/>
      <point x="148" y="546"/>
      <point x="148" y="414" type="curve" smooth="yes"/>
      <point x="148" y="297"/>
      <point x="227" y="211"/>
    </contour>
  </outline>
</glyph>
<glyph name="AE" format="2">
	<unicode hex="00C6"/>
	<advance width="771"/>
	<outline>
		<contour>
			<point x="656" y="0" type="line" smooth="yes"/>
			<point x="668" y="0"/>
			<point x="679" y="11"/>
			<point x="685" y="32" type="curve" smooth="yes"/>
			<point x="691" y="54"/>
			<point x="686" y="64"/>
			<point x="674" y="64" type="curve" smooth="yes"/>
			<point x="410" y="64" type="line"/>
			<point x="594" y="636" type="line"/>
			<point x="861" y="636" type="line" smooth="yes"/>
			<point x="873" y="636"/>
			<point x="884" y="647"/>
			<point x="890" y="668" type="curve" smooth="yes"/>
			<point x="896" y="690"/>
			<point x="891" y="700"/>
			<point x="879" y="700" type="curve" smooth="yes"/>
			<point x="514" y="700" type="line" smooth="yes"/>
			<point x="495" y="700"/>
			<point x="483" y="692"/>
			<point x="470" y="675" type="curve" smooth="yes"/>
			<point x="-28" y="26" type="line" smooth="yes"/>
			<point x="-40" y="11"/>
			<point x="-32" y="-5"/>
			<point x="-11" y="-10" type="curve" smooth="yes"/>
			<point x="10" y="-15"/>
			<point x="26" y="-12"/>
			<point x="37" y="2" type="curve" smooth="yes"/>
			<point x="524" y="640" type="line"/>
			<point x="329" y="32" type="line" smooth="yes"/>
			<point x="321" y="8"/>
			<point x="333" y="0"/>
			<point x="360" y="0" type="curve" smooth="yes"/>
		</contour>
		<contour>
			<point x="708" y="318" type="line" smooth="yes"/>
			<point x="720" y="318"/>
			<point x="731" y="329"/>
			<point x="737" y="350" type="curve" smooth="yes"/>
			<point x="743" y="372"/>
			<point x="738" y="382"/>
			<point x="726" y="382" type="curve" smooth="yes"/>
			<point x="276" y="382" type="line"/>
			<point x="252" y="318" type="line"/>
		</contour>
	</outline>
	<anchor name="top" x="655" y="670"/>
</glyph>
<glyph name="multiply" format="2">
  <advance width="763"/>
  <unicode hex="00D7"/>
  <guideline x="201" y="536" angle="0"/>
  <guideline x="201" y="163" angle="0"/>
  <outline>
    <contour>
      <point x="576" y="215" type="curve" smooth="yes"/>
      <point x="601" y="233"/>
      <point x="601" y="251"/>
      <point x="586" y="273" type="curve" smooth="yes"/>
      <point x="326" y="655" type="line" smooth="yes"/>
      <point x="314" y="674"/>
      <point x="294" y="675"/>
      <point x="268" y="656" type="curve" smooth="yes"/>
      <point x="246" y="641"/>
      <point x="245" y="625"/>
      <point x="256" y="609" type="curve" smooth="yes"/>
      <point x="516" y="225" type="line" smooth="yes"/>
      <point x="534" y="199"/>
      <point x="551" y="198"/>
    </contour>
    <contour>
      <point x="138" y="226" type="curve" smooth="yes"/>
      <point x="155" y="203"/>
      <point x="171" y="200"/>
      <point x="191" y="215" type="curve" smooth="yes"/>
      <point x="699" y="595" type="line" smooth="yes"/>
      <point x="720" y="611"/>
      <point x="721" y="628"/>
      <point x="704" y="651" type="curve" smooth="yes"/>
      <point x="685" y="673"/>
      <point x="669" y="674"/>
      <point x="650" y="660" type="curve" smooth="yes"/>
      <point x="149" y="283" type="line" smooth="yes"/>
      <point x="126" y="265"/>
      <point x="123" y="249"/>
    </contour>
  </outline>
</glyph>
<glyph name="Thorn" format="2">
	<unicode hex="00DE"/>
	<advance width="579"/>
	<outline>
		<contour>
			<point x="71" y="-11" type="curve" smooth="yes"/>
			<point x="95" y="-11"/>
			<point x="105" y="-4"/>
			<point x="110" y="11" type="curve" smooth="yes"/>
			<point x="166" y="186" type="line"/>
			<point x="203" y="186"/>
			<point x="251" y="188"/>
			<point x="291" y="193" type="curve" smooth="yes"/>
			<point x="479" y="217"/>
			<point x="613" y="291"/>
			<point x="613" y="453" type="curve" smooth="yes"/>
			<point x="613" y="557"/>
			<point x="538" y="610"/>
			<point x="390" y="610" type="curve" smooth="yes"/>
			<point x="304" y="610" type="line"/>
			<point x="330" y="688" type="line" smooth="yes"/>
			<point x="335" y="705"/>
			<point x="323" y="712"/>
			<point x="299" y="712" type="curve" smooth="yes"/>
			<point x="275" y="712"/>
			<point x="265" y="705"/>
			<point x="260" y="690" type="curve" smooth="yes"/>
			<point x="40" y="13" type="line" smooth="yes"/>
			<point x="35" y="-4"/>
			<point x="47" y="-11"/>
		</contour>
		<contour>
			<point x="186" y="250" type="curve"/>
			<point x="282" y="546" type="line"/>
			<point x="379" y="546" type="line" smooth="yes"/>
			<point x="493" y="546"/>
			<point x="541" y="516"/>
			<point x="541" y="444" type="curve" smooth="yes"/>
			<point x="541" y="339"/>
			<point x="459" y="281"/>
			<point x="312" y="258" type="curve" smooth="yes"/>
			<point x="272" y="252"/>
			<point x="224" y="250"/>
		</contour>
	</outline>
</glyph>
<glyph name="germandbls" format="2">
  <advance width="560"/>
  <unicode hex="00DF"/>
  <outline>
    <contour>
      <point x="502" y="232" type="curve" smooth="yes"/>
      <point x="502" y="327"/>
      <point x="441" y="387"/>
      <point x="341" y="391" type="curve"/>
      <point x="355" y="379" type="line"/>
      <point x="489" y="379"/>
      <point x="579" y="472"/>
      <point x="579" y="567" type="curve" smooth="yes"/>
      <point x="579" y="657"/>
      <point x="518" y="715"/>
      <point x="425" y="715" type="curve" smooth="yes"/>
      <point x="309" y="715"/>
      <point x="241" y="636"/>
      <point x="206" y="530" type="curve" smooth="yes"/>
      <point x="-60" y="-286" type="line" smooth="yes"/>
      <point x="-67" y="-306"/>
      <point x="-47" y="-312"/>
      <point x="-30" y="-312" type="curve" smooth="yes"/>
      <point x="-6" y="-312"/>
      <point x="3" y="-306"/>
      <point x="8" y="-291" type="curve" smooth="yes"/>
      <point x="274" y="524" type="line" smooth="yes"/>
      <point x="297" y="595"/>
      <point x="336" y="651"/>
      <point x="421" y="651" type="curve" smooth="yes"/>
      <point x="479" y="651"/>
      <point x="510" y="614"/>
      <point x="510" y="562" type="curve" smooth="yes"/>
      <point x="510" y="493"/>
      <point x="444" y="419"/>
      <point x="341" y="419" type="curve" smooth="yes"/>
      <point x="330" y="419" type="line" smooth="yes"/>
      <point x="315" y="419"/>
      <point x="309" y="408"/>
      <point x="305" y="394" type="curve" smooth="yes"/>
      <point x="299" y="376"/>
      <point x="296" y="355"/>
      <point x="314" y="355" type="curve" smooth="yes"/>
      <point x="319" y="355" type="line" smooth="yes"/>
      <point x="390" y="355"/>
      <point x="433" y="309"/>
      <point x="433" y="234" type="curve" smooth="yes"/>
      <point x="433" y="131"/>
      <point x="372" y="49"/>
      <point x="287" y="49" type="curve" smooth="yes"/>
      <point x="251" y="49"/>
      <point x="235" y="53"/>
      <point x="200" y="67" type="curve" smooth="yes"/>
      <point x="188" y="72"/>
      <point x="175" y="68"/>
      <point x="166" y="51" type="curve" smooth="yes"/>
      <point x="156" y="32"/>
      <point x="160" y="19"/>
      <point x="174" y="10" type="curve" smooth="yes"/>
      <point x="197" y="-2"/>
      <point x="227" y="-15"/>
      <point x="282" y="-15" type="curve" smooth="yes"/>
      <point x="411" y="-15"/>
      <point x="502" y="93"/>
    </contour>
  </outline>
</glyph>
<glyph name="ae" format="2">
  <advance width="715"/>
  <unicode hex="00E6"/>
  <anchor x="430" y="400" name="top"/>
  <outline>
    <contour>
      <point x="32" y="115" type="curve" smooth="yes"/>
      <point x="32" y="38"/>
      <point x="71" y="-14"/>
      <point x="146" y="-14" type="curve" smooth="yes"/>
      <point x="245" y="-14"/>
      <point x="323" y="57"/>
      <point x="431" y="293" type="curve"/>
      <point x="381" y="302" type="line"/>
      <point x="283" y="114"/>
      <point x="216" y="50"/>
      <point x="158" y="50" type="curve" smooth="yes"/>
      <point x="126" y="50"/>
      <point x="106" y="72"/>
      <point x="106" y="116" type="curve" smooth="yes"/>
      <point x="106" y="212"/>
      <point x="171" y="352"/>
      <point x="302" y="352" type="curve" smooth="yes"/>
      <point x="364" y="352"/>
      <point x="403" y="339"/>
      <point x="433" y="321" type="curve"/>
      <point x="423" y="372" type="line"/>
      <point x="385" y="316"/>
      <point x="334" y="224"/>
      <point x="334" y="142" type="curve" smooth="yes"/>
      <point x="334" y="50"/>
      <point x="390" y="-15"/>
      <point x="484" y="-15" type="curve" smooth="yes"/>
      <point x="541" y="-15"/>
      <point x="590" y="8"/>
      <point x="641" y="56" type="curve" smooth="yes"/>
      <point x="655" y="69"/>
      <point x="652" y="84"/>
      <point x="637" y="98" type="curve" smooth="yes"/>
      <point x="625" y="110"/>
      <point x="612" y="113"/>
      <point x="597" y="100" type="curve" smooth="yes"/>
      <point x="564" y="72"/>
      <point x="537" y="49"/>
      <point x="492" y="49" type="curve" smooth="yes"/>
      <point x="444" y="49"/>
      <point x="406" y="83"/>
      <point x="406" y="145" type="curve" smooth="yes"/>
      <point x="406" y="224"/>
      <point x="446" y="303"/>
      <point x="498" y="361" type="curve"/>
      <point x="425" y="400"/>
      <point x="376" y="415"/>
      <point x="307" y="415" type="curve" smooth="yes"/>
      <point x="124" y="415"/>
      <point x="32" y="239"/>
    </contour>
    <contour>
      <point x="707" y="324" type="curve" smooth="yes"/>
      <point x="707" y="382"/>
      <point x="656" y="415"/>
      <point x="590" y="415" type="curve" smooth="yes"/>
      <point x="519" y="415"/>
      <point x="478" y="402"/>
      <point x="436" y="381" type="curve"/>
      <point x="446" y="316" type="line"/>
      <point x="487" y="342"/>
      <point x="525" y="351"/>
      <point x="572" y="351" type="curve" smooth="yes"/>
      <point x="622" y="351"/>
      <point x="636" y="336"/>
      <point x="636" y="309" type="curve" smooth="yes"/>
      <point x="636" y="263"/>
      <point x="546" y="207"/>
      <point x="397" y="207" type="curve"/>
      <point x="379" y="151" type="line"/>
      <point x="581" y="152"/>
      <point x="707" y="223"/>
    </contour>
  </outline>
</glyph>
<glyph name="eth" format="2">
  <advance width="603"/>
  <unicode hex="00F0"/>
  <outline>
    <contour>
      <point x="254" y="-19" type="curve" smooth="yes"/>
      <point x="428" y="-19"/>
      <point x="554" y="144"/>
      <point x="554" y="391" type="curve" smooth="yes"/>
      <point x="554" y="545"/>
      <point x="516" y="706"/>
      <point x="425" y="870" type="curve" smooth="yes"/>
      <point x="413" y="893"/>
      <point x="396" y="898"/>
      <point x="375" y="888" type="curve" smooth="yes"/>
      <point x="353" y="876"/>
      <point x="345" y="861"/>
      <point x="355" y="844" type="curve" smooth="yes"/>
      <point x="417" y="730"/>
      <point x="450" y="616"/>
      <point x="460" y="480" type="curve"/>
      <point x="430" y="505"/>
      <point x="394" y="519"/>
      <point x="345" y="519" type="curve" smooth="yes"/>
      <point x="164" y="519"/>
      <point x="63" y="318"/>
      <point x="63" y="176" type="curve" smooth="yes"/>
      <point x="63" y="63"/>
      <point x="129" y="-19"/>
    </contour>
    <contour>
      <point x="264" y="61" type="curve" smooth="yes"/>
      <point x="195" y="61"/>
      <point x="153" y="105"/>
      <point x="153" y="183" type="curve" smooth="yes"/>
      <point x="153" y="281"/>
      <point x="223" y="439"/>
      <point x="343" y="439" type="curve" smooth="yes"/>
      <point x="393" y="439"/>
      <point x="431" y="422"/>
      <point x="462" y="393" type="curve"/>
      <point x="463" y="390"/>
      <point x="463" y="387"/>
      <point x="463" y="384" type="curve" smooth="yes"/>
      <point x="463" y="191"/>
      <point x="379" y="61"/>
    </contour>
    <contour>
      <point x="331" y="620" type="curve" smooth="yes"/>
      <point x="610" y="725" type="line" smooth="yes"/>
      <point x="625" y="730"/>
      <point x="630" y="740"/>
      <point x="624" y="761" type="curve" smooth="yes"/>
      <point x="618" y="783"/>
      <point x="605" y="791"/>
      <point x="589" y="785" type="curve" smooth="yes"/>
      <point x="313" y="681" type="line" smooth="yes"/>
      <point x="299" y="676"/>
      <point x="293" y="666"/>
      <point x="296" y="649" type="curve" smooth="yes"/>
      <point x="303" y="624"/>
      <point x="318" y="615"/>
    </contour>
  </outline>
</glyph>
<glyph name="thorn" format="2">
	<unicode hex="00FE"/>
	<advance width="478"/>
	<outline>
		<contour>
			<point x="-47" y="-312" type="curve" smooth="yes"/>
			<point x="-23" y="-312"/>
			<point x="-14" y="-306"/>
			<point x="-9" y="-291" type="curve" smooth="yes"/>
			<point x="90" y="16" type="line"/>
			<point x="119" y="-2"/>
			<point x="153" y="-14"/>
			<point x="187" y="-14" type="curve" smooth="yes"/>
			<point x="361" y="-14"/>
			<point x="442" y="157"/>
			<point x="442" y="280" type="curve" smooth="yes"/>
			<point x="442" y="363"/>
			<point x="400" y="415"/>
			<point x="326" y="415" type="curve" smooth="yes"/>
			<point x="293" y="415"/>
			<point x="246" y="403"/>
			<point x="200" y="353" type="curve"/>
			<point x="307" y="681" type="line" smooth="yes"/>
			<point x="314" y="702"/>
			<point x="307" y="712"/>
			<point x="274" y="712" type="curve" smooth="yes"/>
			<point x="253" y="712"/>
			<point x="245" y="707"/>
			<point x="238" y="686" type="curve" smooth="yes"/>
			<point x="-77" y="-286" type="line" smooth="yes"/>
			<point x="-83" y="-305"/>
			<point x="-64" y="-312"/>
		</contour>
		<contour>
			<point x="107" y="68" type="curve"/>
			<point x="167" y="252" type="line"/>
			<point x="208" y="314"/>
			<point x="256" y="351"/>
			<point x="303" y="351" type="curve" smooth="yes"/>
			<point x="348" y="351"/>
			<point x="370" y="324"/>
			<point x="370" y="273" type="curve" smooth="yes"/>
			<point x="370" y="190"/>
			<point x="321" y="49"/>
			<point x="182" y="49" type="curve" smooth="yes"/>
			<point x="157" y="49"/>
			<point x="134" y="54"/>
		</contour>
	</outline>
</glyph>
<glyph name="Eng" format="2">
  <advance width="710"/>
  <unicode hex="014A"/>
  <outline>
    <contour>
      <point x="517" y="-87" type="curve" smooth="yes"/>
      <point x="769" y="690" type="line" smooth="yes"/>
      <point x="774" y="705"/>
      <point x="764" y="712"/>
      <point x="741" y="712" type="curve" smooth="yes"/>
      <point x="718" y="712"/>
      <point x="704" y="705"/>
      <point x="699" y="690" type="curve" smooth="yes"/>
      <point x="516" y="126" type="line"/>
      <point x="334" y="690" type="line" smooth="yes"/>
      <point x="329" y="705"/>
      <point x="320" y="712"/>
      <point x="301" y="712" type="curve" smooth="yes"/>
      <point x="278" y="712"/>
      <point x="264" y="705"/>
      <point x="259" y="690" type="curve" smooth="yes"/>
      <point x="39" y="11" type="line" smooth="yes"/>
      <point x="34" y="-4"/>
      <point x="44" y="-11"/>
      <point x="67" y="-11" type="curve" smooth="yes"/>
      <point x="90" y="-11"/>
      <point x="104" y="-4"/>
      <point x="109" y="11" type="curve" smooth="yes"/>
      <point x="295" y="583" type="line"/>
      <point x="479" y="12" type="line"/>
      <point x="452" y="-70" type="line" smooth="yes"/>
      <point x="434" y="-126"/>
      <point x="426" y="-144"/>
      <point x="405" y="-144" type="curve" smooth="yes"/>
      <point x="391" y="-144"/>
      <point x="380" y="-136"/>
      <point x="361" y="-113" type="curve" smooth="yes"/>
      <point x="351" y="-100"/>
      <point x="338" y="-100"/>
      <point x="322" y="-112" type="curve" smooth="yes"/>
      <point x="302" y="-127"/>
      <point x="305" y="-138"/>
      <point x="316" y="-154" type="curve" smooth="yes"/>
      <point x="337" y="-186"/>
      <point x="368" y="-204"/>
      <point x="399" y="-204" type="curve" smooth="yes"/>
      <point x="449" y="-204"/>
      <point x="484" y="-188"/>
    </contour>
  </outline>
</glyph>
<glyph name="OE" format="2">
	<unicode hex="0152"/>
	<advance width="1006"/>
	<outline>
		<contour>
			<point x="300" y="-15" type="curve" smooth="yes"/>
			<point x="549" y="-15"/>
			<point x="697" y="273"/>
			<point x="697" y="479" type="curve" smooth="yes"/>
			<point x="697" y="624"/>
			<point x="615" y="712"/>
			<point x="482" y="712" type="curve" smooth="yes"/>
			<point x="243" y="712"/>
			<point x="94" y="433"/>
			<point x="94" y="225" type="curve" smooth="yes"/>
			<point x="94" y="67"/>
			<point x="172" y="-15"/>
		</contour>
		<contour>
			<point x="302" y="15" type="curve" smooth="yes"/>
			<point x="192" y="15"/>
			<point x="127" y="86"/>
			<point x="127" y="225" type="curve" smooth="yes"/>
			<point x="127" y="420"/>
			<point x="266" y="682"/>
			<point x="480" y="682" type="curve" smooth="yes"/>
			<point x="596" y="682"/>
			<point x="670" y="611"/>
			<point x="670" y="479" type="curve" smooth="yes"/>
			<point x="670" y="287"/>
			<point x="532" y="15"/>
		</contour>
		<contour>
			<point x="556" y="0" type="curve" smooth="yes"/>
			<point x="897" y="0" type="line" smooth="yes"/>
			<point x="907" y="0"/>
			<point x="911" y="3"/>
			<point x="914" y="14" type="curve" smooth="yes"/>
			<point x="916" y="23"/>
			<point x="916" y="28"/>
			<point x="905" y="28" type="curve" smooth="yes"/>
			<point x="580" y="28" type="line"/>
			<point x="685" y="356" type="line"/>
			<point x="962" y="356" type="line" smooth="yes"/>
			<point x="972" y="356"/>
			<point x="976" y="359"/>
			<point x="979" y="370" type="curve" smooth="yes"/>
			<point x="981" y="379"/>
			<point x="981" y="384"/>
			<point x="970" y="384" type="curve" smooth="yes"/>
			<point x="694" y="384" type="line"/>
			<point x="787" y="672" type="line"/>
			<point x="1115" y="672" type="line" smooth="yes"/>
			<point x="1125" y="672"/>
			<point x="1129" y="675"/>
			<point x="1132" y="686" type="curve" smooth="yes"/>
			<point x="1134" y="695"/>
			<point x="1134" y="700"/>
			<point x="1123" y="700" type="curve" smooth="yes"/>
			<point x="781" y="700" type="line" smooth="yes"/>
			<point x="768" y="700"/>
			<point x="765" y="697"/>
			<point x="762" y="688" type="curve" smooth="yes"/>
			<point x="544" y="12" type="line" smooth="yes"/>
			<point x="541" y="3"/>
			<point x="546" y="0"/>
		</contour>
	</outline>
	<anchor name="top" x="689" y="670"/>
</glyph>
<glyph name="Uhorn" format="2">
  <advance width="863"/>
  <unicode hex="01AF"/>
  <anchor x="346" y="0" name="bottom"/>
  <anchor x="511" y="13" name="ogonek"/>
  <anchor x="598" y="838" name="top"/>
  <anchor x="909" y="888" name="topright"/>
  <outline>
    <contour>
      <point x="1119" y="1068" type="curve" smooth="yes"/>
      <point x="1107" y="1102"/>
      <point x="1028" y="1083"/>
      <point x="1038" y="1045" type="curve" smooth="yes"/>
      <point x="1064" y="951"/>
      <point x="1049" y="893"/>
      <point x="909" y="888" type="curve"/>
      <point x="889" y="828" type="line"/>
      <point x="1111" y="831"/>
      <point x="1162" y="948"/>
    </contour>
    <component base="U"/>
  </outline>
</glyph>
<glyph name="jdotless" format="2">
  <advance width="268"/>
  <unicode hex="0237"/>
  <guideline x="185" y="489" angle="72"/>
  <anchor x="211" y="500" name="top"/>
  <outline>
    <contour>
      <point x="-127" y="-394" type="curve" smooth="yes"/>
      <point x="-65" y="-394"/>
      <point x="-26" y="-375"/>
      <point x="15" y="-247" type="curve" smooth="yes"/>
      <point x="254" y="489" type="line" smooth="yes"/>
      <point x="259" y="506"/>
      <point x="248" y="515"/>
      <point x="219" y="515" type="curve" smooth="yes"/>
      <point x="190" y="515"/>
      <point x="173" y="506"/>
      <point x="168" y="489" type="curve" smooth="yes"/>
      <point x="-72" y="-251" type="line" smooth="yes"/>
      <point x="-90" y="-305"/>
      <point x="-96" y="-319"/>
      <point x="-120" y="-319" type="curve" smooth="yes"/>
      <point x="-140" y="-319"/>
      <point x="-152" y="-306"/>
      <point x="-179" y="-280" type="curve" smooth="yes"/>
      <point x="-195" y="-264"/>
      <point x="-210" y="-269"/>
      <point x="-229" y="-284" type="curve" smooth="yes"/>
      <point x="-249" y="-299"/>
      <point x="-250" y="-319"/>
      <point x="-234" y="-337" type="curve" smooth="yes"/>
      <point x="-209" y="-366"/>
      <point x="-166" y="-394"/>
    </contour>
  </outline>
</glyph>
<glyph name="tildecomb" format="2">
	<unicode hex="0303"/>
	<outline>
		<contour>
			<point x="-7" y="512" type="curve" smooth="yes"/>
			<point x="11" y="512"/>
			<point x="21" y="518"/>
			<point x="23" y="529" type="curve" smooth="yes"/>
			<point x="28" y="557"/>
			<point x="41" y="573"/>
			<point x="57" y="573" type="curve" smooth="yes"/>
			<point x="94" y="573"/>
			<point x="115" y="513"/>
			<point x="184" y="513" type="curve" smooth="yes"/>
			<point x="236" y="513"/>
			<point x="269" y="550"/>
			<point x="277" y="621" type="curve" smooth="yes"/>
			<point x="279" y="635"/>
			<point x="272" y="642"/>
			<point x="255" y="642" type="curve" smooth="yes"/>
			<point x="235" y="642"/>
			<point x="224" y="635"/>
			<point x="221" y="621" type="curve" smooth="yes"/>
			<point x="216" y="594"/>
			<point x="205" y="580"/>
			<point x="190" y="580" type="curve" smooth="yes"/>
			<point x="146" y="580"/>
			<point x="136" y="641"/>
			<point x="65" y="641" type="curve" smooth="yes"/>
			<point x="10" y="641"/>
			<point x="-23" y="605"/>
			<point x="-31" y="534" type="curve" smooth="yes"/>
			<point x="-33" y="519"/>
			<point x="-25" y="512"/>
		</contour>
	</outline>
	<anchor name="_top" x="65" y="400"/>
	<anchor name="top" x="147" y="654"/>
</glyph>
<glyph name="dotaccentcomb" format="2">
	<unicode hex="0307"/>
	<outline>
		<contour>
			<point x="116" y="535" type="curve" smooth="yes"/>
			<point x="156" y="535"/>
			<point x="174" y="566"/>
			<point x="174" y="595" type="curve" smooth="yes"/>
			<point x="174" y="622"/>
			<point x="157" y="636"/>
			<point x="135" y="636" type="curve" smooth="yes"/>
			<point x="95" y="636"/>
			<point x="77" y="605"/>
			<point x="77" y="576" type="curve" smooth="yes"/>
			<point x="77" y="549"/>
			<point x="94" y="535"/>
		</contour>
	</outline>
	<anchor name="_top" x="65" y="400"/>
	<anchor name="top" x="137" y="620"/>
</glyph>
<glyph name="hookabovecomb" format="2">
	<unicode hex="0309"/>
	<outline>
		<contour>
			<point x="137" y="688" type="curve" smooth="yes"/>
			<point x="106" y="688"/>
			<point x="80" y="680"/>
			<point x="55" y="664" type="curve" smooth="yes"/>
			<point x="43" y="655"/>
			<point x="39" y="644"/>
			<point x="44" y="633" type="curve" smooth="yes"/>
			<point x="52" y="615"/>
			<point x="63" y="608"/>
			<point x="73" y="614" type="curve" smooth="yes"/>
			<point x="90" y="624"/>
			<point x="108" y="630"/>
			<point x="123" y="630" type="curve" smooth="yes"/>
			<point x="136" y="630"/>
			<point x="143" y="625"/>
			<point x="143" y="616" type="curve" smooth="yes"/>
			<point x="143" y="605"/>
			<point x="135" y="596"/>
			<point x="116" y="585" type="curve" smooth="yes"/>
			<point x="88" y="568"/>
			<point x="77" y="549"/>
			<point x="82" y="524" type="curve" smooth="yes"/>
			<point x="87" y="500" type="line" smooth="yes"/>
			<point x="92" y="476"/>
			<point x="146" y="482"/>
			<point x="144" y="507" type="curve" smooth="yes"/>
			<point x="143" y="518" type="line" smooth="yes"/>
			<point x="142" y="528"/>
			<point x="146" y="537"/>
			<point x="173" y="552" type="curve" smooth="yes"/>
			<point x="202" y="568"/>
			<point x="221" y="590"/>
			<point x="221" y="623" type="curve" smooth="yes"/>
			<point x="221" y="664"/>
			<point x="189" y="688"/>
		</contour>
	</outline>
	<anchor name="_top" x="65" y="400"/>
	<anchor name="top" x="136" y="619"/>
</glyph>
<glyph name="caroncomb" format="2">
  <unicode hex="030C"/>
  <anchor x="81" y="500" name="_top"/>
  <anchor x="184" y="818" name="top"/>
  <outline>
    <contour>
      <point x="318" y="848" type="curve" smooth="yes"/>
      <point x="306" y="848"/>
      <point x="298" y="839"/>
      <point x="289" y="833" type="curve" smooth="yes"/>
      <point x="143" y="719" type="line"/>
      <point x="56" y="831" type="line" smooth="yes"/>
      <point x="50" y="840"/>
      <point x="44" y="848"/>
      <point x="30" y="848" type="curve" smooth="yes"/>
      <point x="18" y="848"/>
      <point x="-9" y="835"/>
      <point x="-9" y="819" type="curve" smooth="yes"/>
      <point x="-9" y="813"/>
      <point x="-7" y="806"/>
      <point x="-2" y="796" type="curve" smooth="yes"/>
      <point x="79" y="644" type="line" smooth="yes"/>
      <point x="88" y="626"/>
      <point x="104" y="618"/>
      <point x="121" y="618" type="curve" smooth="yes"/>
      <point x="143" y="618"/>
      <point x="160" y="623"/>
      <point x="179" y="640" type="curve" smooth="yes"/>
      <point x="338" y="789" type="line" smooth="yes"/>
      <point x="343" y="794"/>
      <point x="349" y="801"/>
      <point x="349" y="814" type="curve" smooth="yes"/>
      <point x="349" y="830"/>
      <point x="334" y="848"/>
    </contour>
  </outline>
</glyph>
<glyph name="commaturnedabovecomb" format="2">
  <unicode hex="0312"/>
  <guideline x="187" y="669" angle="0"/>
  <guideline x="160" y="504" angle="0"/>
  <anchor x="81" y="500" name="_top"/>
  <anchor x="184" y="818" name="top"/>
  <outline>
    <contour>
      <point x="224" y="851" type="curve" smooth="yes"/>
      <point x="208" y="861"/>
      <point x="193" y="853"/>
      <point x="175" y="835" type="curve" smooth="yes"/>
      <point x="129" y="786"/>
      <point x="89" y="723"/>
      <point x="84" y="671" type="curve" smooth="yes"/>
      <point x="81" y="646"/>
      <point x="96" y="630"/>
      <point x="126" y="630" type="curve" smooth="yes"/>
      <point x="151" y="630"/>
      <point x="168" y="639"/>
      <point x="170" y="661" type="curve" smooth="yes"/>
      <point x="176" y="721"/>
      <point x="194" y="758"/>
      <point x="230" y="810" type="curve" smooth="yes"/>
      <point x="241" y="826"/>
      <point x="240" y="841"/>
    </contour>
  </outline>
</glyph>
<glyph name="horncomb" format="2">
	<unicode hex="031B"/>
	<outline>
		<contour>
			<point x="237" y="555" type="curve" smooth="yes"/>
			<point x="227" y="582"/>
			<point x="164" y="567"/>
			<point x="172" y="537" type="curve" smooth="yes"/>
			<point x="193" y="462"/>
			<point x="181" y="416"/>
			<point x="69" y="412" type="curve"/>
			<point x="52" y="364" type="line"/>
			<point x="230" y="366"/>
			<point x="271" y="459"/>
		</contour>
	</outline>
	<anchor name="_topright" x="69" y="412"/>
</glyph>
<glyph name="dotbelowcomb" format="2">
	<unicode hex="0323"/>
	<outline>
		<contour>
			<point x="-119" y="-186" type="curve" smooth="yes"/>
			<point x="-79" y="-186"/>
			<point x="-61" y="-155"/>
			<point x="-61" y="-126" type="curve" smooth="yes"/>
			<point x="-61" y="-99"/>
			<point x="-78" y="-85"/>
			<point x="-100" y="-85" type="curve" smooth="yes"/>
			<point x="-140" y="-85"/>
			<point x="-158" y="-116"/>
			<point x="-158" y="-145" type="curve" smooth="yes"/>
			<point x="-158" y="-172"/>
			<point x="-141" y="-186"/>
		</contour>
	</outline>
	<anchor name="_bottom" x="-65" y="0"/>
	<anchor name="bottom" x="-115" y="-155"/>
</glyph>
<glyph name="strokelongcomb" format="2">
	<unicode hex="0336"/>
	<outline>
		<contour>
			<point x="-290" y="245" type="curve" smooth="yes"/>
			<point x="325" y="245" type="line" smooth="yes"/>
			<point x="344" y="245"/>
			<point x="350" y="259"/>
			<point x="353" y="273" type="curve" smooth="yes"/>
			<point x="356" y="288"/>
			<point x="357" y="303"/>
			<point x="337" y="303" type="curve" smooth="yes"/>
			<point x="-276" y="303" type="line" smooth="yes"/>
			<point x="-296" y="303"/>
			<point x="-302" y="288"/>
			<point x="-305" y="273" type="curve" smooth="yes"/>
			<point x="-308" y="259"/>
			<point x="-309" y="245"/>
		</contour>
	</outline>
	<anchor name="_center" x="25" y="274"/>
</glyph>
<glyph name="Germandbls" format="2">
  <advance width="710"/>
  <unicode hex="1E9E"/>
  <outline>
    <contour>
      <point x="367" y="-15" type="curve" smooth="yes"/>
      <point x="523" y="-15"/>
      <point x="633" y="87"/>
      <point x="633" y="211" type="curve" smooth="yes"/>
      <point x="633" y="390"/>
      <point x="462" y="416"/>
      <point x="459" y="526" type="curve" smooth="yes"/>
      <point x="457" y="603"/>
      <point x="536" y="646"/>
      <point x="625" y="646" type="curve" smooth="yes"/>
      <point x="641" y="646"/>
      <point x="650" y="655"/>
      <point x="657" y="679" type="curve" smooth="yes"/>
      <point x="665" y="703"/>
      <point x="662" y="712"/>
      <point x="646" y="712" type="curve" smooth="yes"/>
      <point x="629" y="712" type="line" smooth="yes"/>
      <point x="311" y="712"/>
      <point x="233" y="617"/>
      <point x="169" y="422" type="curve" smooth="yes"/>
      <point x="35" y="11" type="line" smooth="yes"/>
      <point x="30" y="-4"/>
      <point x="40" y="-11"/>
      <point x="63" y="-11" type="curve" smooth="yes"/>
      <point x="86" y="-11"/>
      <point x="100" y="-4"/>
      <point x="105" y="11" type="curve" smooth="yes"/>
      <point x="239" y="422" type="line" smooth="yes"/>
      <point x="288" y="573"/>
      <point x="341" y="651"/>
      <point x="609" y="651" type="curve"/>
      <point x="616" y="674" type="line"/>
      <point x="501" y="674"/>
      <point x="388" y="615"/>
      <point x="387" y="512" type="curve" smooth="yes"/>
      <point x="386" y="384"/>
      <point x="558" y="355"/>
      <point x="559" y="211" type="curve" smooth="yes"/>
      <point x="560" y="118"/>
      <point x="481" y="53"/>
      <point x="372" y="53" type="curve" smooth="yes"/>
      <point x="319" y="53"/>
      <point x="280" y="59"/>
      <point x="242" y="73" type="curve" smooth="yes"/>
      <point x="221" y="81"/>
      <point x="213" y="74"/>
      <point x="204" y="53" type="curve" smooth="yes"/>
      <point x="195" y="31"/>
      <point x="201" y="23"/>
      <point x="219" y="14" type="curve" smooth="yes"/>
      <point x="261" y="-6"/>
      <point x="311" y="-15"/>
    </contour>
  </outline>
</glyph>
<glyph name="quoteleft" format="2">
  <advance width="181"/>
  <unicode hex="2018"/>
  <outline>
    <contour>
      <point x="231" y="650" type="curve" smooth="yes"/>
      <point x="264" y="650"/>
      <point x="283" y="669"/>
      <point x="284" y="694" type="curve" smooth="yes"/>
      <point x="286" y="755"/>
      <point x="305" y="798"/>
      <point x="360" y="870" type="curve" smooth="yes"/>
      <point x="365" y="878"/>
      <point x="368" y="884"/>
      <point x="368" y="890" type="curve" smooth="yes"/>
      <point x="368" y="904"/>
      <point x="348" y="920"/>
      <point x="334" y="920" type="curve" smooth="yes"/>
      <point x="326" y="920"/>
      <point x="316" y="916"/>
      <point x="305" y="908" type="curve" smooth="yes"/>
      <point x="235" y="854"/>
      <point x="184" y="756"/>
      <point x="184" y="690" type="curve" smooth="yes"/>
      <point x="184" y="668"/>
      <point x="199" y="650"/>
    </contour>
  </outline>
</glyph>
<glyph name="quoteright" format="2">
  <advance width="206"/>
  <unicode hex="2019"/>
  <outline>
    <contour>
      <point x="323" y="920" type="curve" smooth="yes"/>
      <point x="290" y="920"/>
      <point x="271" y="901"/>
      <point x="270" y="876" type="curve" smooth="yes"/>
      <point x="268" y="815"/>
      <point x="249" y="772"/>
      <point x="194" y="700" type="curve" smooth="yes"/>
      <point x="189" y="692"/>
      <point x="186" y="686"/>
      <point x="186" y="680" type="curve" smooth="yes"/>
      <point x="186" y="666"/>
      <point x="206" y="650"/>
      <point x="220" y="650" type="curve" smooth="yes"/>
      <point x="228" y="650"/>
      <point x="238" y="654"/>
      <point x="249" y="662" type="curve" smooth="yes"/>
      <point x="319" y="716"/>
      <point x="370" y="814"/>
      <point x="370" y="880" type="curve" smooth="yes"/>
      <point x="370" y="902"/>
      <point x="355" y="920"/>
    </contour>
  </outline>
</glyph>
<glyph name="minute" format="2">
  <advance width="161"/>
  <unicode hex="2032"/>
  <outline>
    <contour>
      <point x="176" y="648" type="curve" smooth="yes"/>
      <point x="193" y="648"/>
      <point x="203" y="654"/>
      <point x="214" y="671" type="curve" smooth="yes"/>
      <point x="334" y="873" type="line" smooth="yes"/>
      <point x="350" y="900"/>
      <point x="341" y="920"/>
      <point x="301" y="920" type="curve" smooth="yes"/>
      <point x="271" y="920"/>
      <point x="257" y="910"/>
      <point x="245" y="880" type="curve" smooth="yes"/>
      <point x="155" y="679" type="line" smooth="yes"/>
      <point x="146" y="660"/>
      <point x="154" y="648"/>
    </contour>
  </outline>
</glyph>
<glyph name="guilsinglleft" format="2">
	<unicode hex="2039"/>
	<advance width="380"/>
	<outline>
		<contour>
			<point x="195" y="-11" type="curve" smooth="yes"/>
			<point x="224" y="-11"/>
			<point x="238" y="8"/>
			<point x="227" y="32" type="curve" smooth="yes"/>
			<point x="133" y="236" type="line"/>
			<point x="135" y="166" type="line"/>
			<point x="362" y="369" type="line" smooth="yes"/>
			<point x="384" y="389"/>
			<point x="362" y="412"/>
			<point x="333" y="412" type="curve" smooth="yes"/>
			<point x="317" y="412"/>
			<point x="302" y="406"/>
			<point x="283" y="390" type="curve" smooth="yes"/>
			<point x="104" y="231" type="line" smooth="yes"/>
			<point x="83" y="213"/>
			<point x="74" y="205"/>
			<point x="74" y="197" type="curve" smooth="yes"/>
			<point x="74" y="192"/>
			<point x="77" y="185"/>
			<point x="84" y="171" type="curve" smooth="yes"/>
			<point x="159" y="11" type="line" smooth="yes"/>
			<point x="167" y="-6"/>
			<point x="179" y="-11"/>
		</contour>
	</outline>
</glyph>
<glyph name="trademark" format="2">
  <advance width="768"/>
  <unicode hex="2122"/>
  <outline>
    <contour>
      <point x="274" y="355" type="curve" smooth="yes"/>
      <point x="295" y="355"/>
      <point x="306" y="362"/>
      <point x="306" y="374" type="curve" smooth="yes"/>
      <point x="306" y="654" type="line"/>
      <point x="393" y="654" type="line" smooth="yes"/>
      <point x="409" y="654"/>
      <point x="414" y="658"/>
      <point x="414" y="682" type="curve" smooth="yes"/>
      <point x="414" y="704"/>
      <point x="410" y="711"/>
      <point x="393" y="711" type="curve" smooth="yes"/>
      <point x="156" y="711" type="line" smooth="yes"/>
      <point x="139" y="711"/>
      <point x="134" y="706"/>
      <point x="134" y="682" type="curve" smooth="yes"/>
      <point x="134" y="659"/>
      <point x="139" y="654"/>
      <point x="156" y="654" type="curve" smooth="yes"/>
      <point x="242" y="654" type="line"/>
      <point x="242" y="374" type="line" smooth="yes"/>
      <point x="242" y="362"/>
      <point x="253" y="355"/>
    </contour>
    <contour>
      <point x="495" y="355" type="curve" smooth="yes"/>
      <point x="515" y="355"/>
      <point x="527" y="361"/>
      <point x="527" y="374" type="curve" smooth="yes"/>
      <point x="527" y="565" type="line"/>
      <point x="604" y="422" type="line" smooth="yes"/>
      <point x="610" y="412"/>
      <point x="617" y="411"/>
      <point x="639" y="411" type="curve" smooth="yes"/>
      <point x="658" y="411"/>
      <point x="665" y="415"/>
      <point x="670" y="423" type="curve" smooth="yes"/>
      <point x="748" y="565" type="line"/>
      <point x="748" y="374" type="line" smooth="yes"/>
      <point x="748" y="361"/>
      <point x="759" y="355"/>
      <point x="780" y="355" type="curve" smooth="yes"/>
      <point x="800" y="355"/>
      <point x="812" y="361"/>
      <point x="812" y="374" type="curve" smooth="yes"/>
      <point x="812" y="692" type="line" smooth="yes"/>
      <point x="812" y="704"/>
      <point x="806" y="711"/>
      <point x="785" y="711" type="curve" smooth="yes"/>
      <point x="768" y="711"/>
      <point x="758" y="702"/>
      <point x="751" y="690" type="curve" smooth="yes"/>
      <point x="637" y="483" type="line"/>
      <point x="524" y="690" type="line" smooth="yes"/>
      <point x="517" y="703"/>
      <point x="508" y="711"/>
      <point x="490" y="711" type="curve" smooth="yes"/>
      <point x="469" y="711"/>
      <point x="463" y="704"/>
      <point x="463" y="692" type="curve" smooth="yes"/>
      <point x="463" y="374" type="line" smooth="yes"/>
      <point x="463" y="361"/>
      <point x="474" y="355"/>
    </contour>
  </outline>
</glyph>
<glyph name="product" format="2">
  <advance width="610"/>
  <unicode hex="220F"/>
  <outline>
    <contour>
      <point x="77" y="-66" type="curve" smooth="yes"/>
      <point x="98" y="-66"/>
      <point x="106" y="-62"/>
      <point x="113" y="-40" type="curve" smooth="yes"/>
      <point x="330" y="636" type="line"/>
      <point x="562" y="636" type="line"/>
      <point x="346" y="-35" type="line" smooth="yes"/>
      <point x="339" y="-56"/>
      <point x="346" y="-66"/>
      <point x="379" y="-66" type="curve" smooth="yes"/>
      <point x="400" y="-66"/>
      <point x="408" y="-62"/>
      <point x="415" y="-40" type="curve" smooth="yes"/>
      <point x="632" y="636" type="line"/>
      <point x="722" y="636" type="line" smooth="yes"/>
      <point x="734" y="636"/>
      <point x="745" y="646"/>
      <point x="751" y="666" type="curve" smooth="yes"/>
      <point x="758" y="690"/>
      <point x="753" y="700"/>
      <point x="741" y="700" type="curve" smooth="yes"/>
      <point x="192" y="700" type="line" smooth="yes"/>
      <point x="180" y="700"/>
      <point x="169" y="690"/>
      <point x="163" y="670" type="curve" smooth="yes"/>
      <point x="156" y="646"/>
      <point x="161" y="636"/>
      <point x="173" y="636" type="curve" smooth="yes"/>
      <point x="260" y="636" type="line"/>
      <point x="44" y="-35" type="line" smooth="yes"/>
      <point x="37" y="-56"/>
      <point x="44" y="-66"/>
    </contour>
  </outline>
</glyph>
<glyph name="minus" format="2">
  <advance width="763"/>
  <unicode hex="2212"/>
  <outline>
    <contour>
      <point x="161" y="398" type="curve" smooth="yes"/>
      <point x="699" y="398" type="line" smooth="yes"/>
      <point x="714" y="398"/>
      <point x="728" y="410"/>
      <point x="735" y="435" type="curve" smooth="yes"/>
      <point x="744" y="465"/>
      <point x="738" y="478"/>
      <point x="723" y="478" type="curve" smooth="yes"/>
      <point x="185" y="478" type="line" smooth="yes"/>
      <point x="170" y="478"/>
      <point x="156" y="465"/>
      <point x="149" y="440" type="curve" smooth="yes"/>
      <point x="139" y="410"/>
      <point x="146" y="398"/>
    </contour>
  </outline>
</glyph>
<glyph name="integral" format="2">
  <advance width="506"/>
  <unicode hex="222B"/>
  <outline>
    <contour>
      <point x="-31" y="-75" type="curve" smooth="yes"/>
      <point x="78" y="-75"/>
      <point x="143" y="-35"/>
      <point x="186" y="59" type="curve" smooth="yes"/>
      <point x="503" y="740" type="line" smooth="yes"/>
      <point x="530" y="799"/>
      <point x="564" y="819"/>
      <point x="635" y="819" type="curve" smooth="yes"/>
      <point x="668" y="819"/>
      <point x="679" y="843"/>
      <point x="679" y="869" type="curve" smooth="yes"/>
      <point x="679" y="886"/>
      <point x="664" y="894"/>
      <point x="641" y="894" type="curve" smooth="yes"/>
      <point x="531" y="894"/>
      <point x="468" y="854"/>
      <point x="424" y="760" type="curve" smooth="yes"/>
      <point x="108" y="79" type="line" smooth="yes"/>
      <point x="80" y="20"/>
      <point x="46" y="0"/>
      <point x="-25" y="0" type="curve" smooth="yes"/>
      <point x="-62" y="0"/>
      <point x="-67" y="-27"/>
      <point x="-67" y="-47" type="curve" smooth="yes"/>
      <point x="-67" y="-65"/>
      <point x="-55" y="-75"/>
    </contour>
  </outline>
</glyph>
<glyph name="notequal" format="2">
	<unicode hex="2260"/>
	<advance width="610"/>
	<outline>
		<contour>
			<point x="182" y="43" type="curve" smooth="yes"/>
			<point x="199" y="43"/>
			<point x="209" y="48"/>
			<point x="216" y="61" type="curve" smooth="yes"/>
			<point x="545" y="625" type="line" smooth="yes"/>
			<point x="557" y="646"/>
			<point x="546" y="657"/>
			<point x="515" y="657" type="curve" smooth="yes"/>
			<point x="498" y="657"/>
			<point x="488" y="652"/>
			<point x="481" y="639" type="curve" smooth="yes"/>
			<point x="152" y="75" type="line" smooth="yes"/>
			<point x="140" y="54"/>
			<point x="151" y="43"/>
		</contour>
		<component base="equal"/>
	</outline>
</glyph>
<glyph name="A.cur" format="2">
  <advance width="783"/>
  <anchor x="287" y="0" name="bottom"/>
  <anchor x="680" y="10" name="ogonek"/>
  <anchor x="494" y="670" name="top"/>
  <outline>
    <contour>
      <point x="287" y="-14" type="curve" smooth="yes"/>
      <point x="451" y="-14"/>
      <point x="569" y="118"/>
      <point x="663" y="373" type="curve"/>
      <point x="620" y="381" type="line"/>
      <point x="526" y="152"/>
      <point x="422" y="54"/>
      <point x="300" y="54" type="curve" smooth="yes"/>
      <point x="245" y="54"/>
      <point x="153" y="80"/>
      <point x="153" y="216" type="curve" smooth="yes"/>
      <point x="153" y="432"/>
      <point x="309" y="644"/>
      <point x="502" y="644" type="curve" smooth="yes"/>
      <point x="576" y="644"/>
      <point x="649" y="616"/>
      <point x="672" y="526" type="curve" smooth="yes"/>
      <point x="677" y="508"/>
      <point x="689" y="501"/>
      <point x="709" y="508" type="curve" smooth="yes"/>
      <point x="734" y="517"/>
      <point x="737" y="526"/>
      <point x="729" y="555" type="curve" smooth="yes"/>
      <point x="699" y="665"/>
      <point x="615" y="712"/>
      <point x="511" y="712" type="curve" smooth="yes"/>
      <point x="262" y="712"/>
      <point x="79" y="471"/>
      <point x="79" y="213" type="curve" smooth="yes"/>
      <point x="79" y="45"/>
      <point x="192" y="-14"/>
    </contour>
    <contour>
      <point x="618" y="-14" type="curve" smooth="yes"/>
      <point x="661" y="-14"/>
      <point x="706" y="12"/>
      <point x="738" y="77" type="curve" smooth="yes"/>
      <point x="747" y="94"/>
      <point x="741" y="107"/>
      <point x="725" y="114" type="curve" smooth="yes"/>
      <point x="705" y="123"/>
      <point x="695" y="117"/>
      <point x="682" y="99" type="curve" smooth="yes"/>
      <point x="660" y="67"/>
      <point x="644" y="54"/>
      <point x="623" y="54" type="curve" smooth="yes"/>
      <point x="597" y="54"/>
      <point x="592" y="84"/>
      <point x="609" y="135" type="curve" smooth="yes"/>
      <point x="689" y="380" type="line" smooth="yes"/>
      <point x="695" y="397"/>
      <point x="682" y="404"/>
      <point x="661" y="404" type="curve" smooth="yes"/>
      <point x="637" y="404"/>
      <point x="625" y="397"/>
      <point x="620" y="382" type="curve" smooth="yes"/>
      <point x="544" y="152" type="line" smooth="yes"/>
      <point x="510" y="52"/>
      <point x="535" y="-14"/>
    </contour>
  </outline>
</glyph>
<glyph name="A.cur.ini" format="2">
	<advance width="743"/>
	<outline>
		<contour>
			<point x="287" y="-14" type="curve" smooth="yes"/>
			<point x="451" y="-14"/>
			<point x="569" y="118"/>
			<point x="663" y="373" type="curve"/>
			<point x="620" y="381" type="line"/>
			<point x="526" y="152"/>
			<point x="422" y="54"/>
			<point x="300" y="54" type="curve" smooth="yes"/>
			<point x="245" y="54"/>
			<point x="153" y="80"/>
			<point x="153" y="216" type="curve" smooth="yes"/>
			<point x="153" y="432"/>
			<point x="309" y="644"/>
			<point x="502" y="644" type="curve" smooth="yes"/>
			<point x="576" y="644"/>
			<point x="649" y="616"/>
			<point x="672" y="526" type="curve" smooth="yes"/>
			<point x="677" y="508"/>
			<point x="689" y="501"/>
			<point x="709" y="508" type="curve" smooth="yes"/>
			<point x="734" y="517"/>
			<point x="737" y="526"/>
			<point x="729" y="555" type="curve" smooth="yes"/>
			<point x="699" y="665"/>
			<point x="615" y="712"/>
			<point x="511" y="712" type="curve" smooth="yes"/>
			<point x="262" y="712"/>
			<point x="79" y="471"/>
			<point x="79" y="213" type="curve" smooth="yes"/>
			<point x="79" y="45"/>
			<point x="192" y="-14"/>
		</contour>
		<contour>
			<point x="633" y="-14" type="curve" smooth="yes"/>
			<point x="673" y="-14"/>
			<point x="693" y="46"/>
			<point x="653" y="46" type="curve" smooth="yes"/>
			<point x="603" y="46"/>
			<point x="591" y="79"/>
			<point x="615" y="153" type="curve" smooth="yes"/>
			<point x="689" y="380" type="line" smooth="yes"/>
			<point x="695" y="397"/>
			<point x="682" y="404"/>
			<point x="661" y="404" type="curve" smooth="yes"/>
			<point x="637" y="404"/>
			<point x="625" y="397"/>
			<point x="620" y="382" type="curve" smooth="yes"/>
			<point x="550" y="170" type="line" smooth="yes"/>
			<point x="511" y="52"/>
			<point x="538" y="-14"/>
		</contour>
	</outline>
	<anchor name="bottom" x="287" y="0"/>
	<anchor name="cnct" x="678" y="0"/>
	<anchor name="ogonek" x="680" y="10"/>
	<anchor name="top" x="494" y="670"/>
</glyph>
<glyph name="A.cur_locl" format="2">
  <advance width="783"/>
  <anchor x="287" y="0" name="bottom"/>
  <anchor x="680" y="10" name="ogonek"/>
  <anchor x="494" y="670" name="top"/>
  <outline>
    <contour>
      <point x="287" y="-14" type="curve" smooth="yes"/>
      <point x="451" y="-14"/>
      <point x="569" y="118"/>
      <point x="663" y="373" type="curve"/>
      <point x="620" y="381" type="line"/>
      <point x="526" y="152"/>
      <point x="422" y="54"/>
      <point x="300" y="54" type="curve" smooth="yes"/>
      <point x="245" y="54"/>
      <point x="153" y="80"/>
      <point x="153" y="216" type="curve" smooth="yes"/>
      <point x="153" y="432"/>
      <point x="309" y="644"/>
      <point x="502" y="644" type="curve" smooth="yes"/>
      <point x="591" y="644"/>
      <point x="648" y="604"/>
      <point x="673" y="525" type="curve"/>
      <point x="702" y="613" type="line"/>
      <point x="661" y="678"/>
      <point x="596" y="712"/>
      <point x="511" y="712" type="curve" smooth="yes"/>
      <point x="262" y="712"/>
      <point x="79" y="471"/>
      <point x="79" y="213" type="curve" smooth="yes"/>
      <point x="79" y="45"/>
      <point x="192" y="-14"/>
    </contour>
    <contour>
      <point x="618" y="-14" type="curve" smooth="yes"/>
      <point x="661" y="-14"/>
      <point x="706" y="12"/>
      <point x="738" y="77" type="curve" smooth="yes"/>
      <point x="747" y="94"/>
      <point x="741" y="107"/>
      <point x="725" y="114" type="curve" smooth="yes"/>
      <point x="705" y="123"/>
      <point x="695" y="117"/>
      <point x="682" y="99" type="curve" smooth="yes"/>
      <point x="660" y="67"/>
      <point x="644" y="54"/>
      <point x="623" y="54" type="curve" smooth="yes"/>
      <point x="597" y="54"/>
      <point x="593" y="85"/>
      <point x="609" y="135" type="curve" smooth="yes"/>
      <point x="790" y="688" type="line" smooth="yes"/>
      <point x="796" y="705"/>
      <point x="783" y="712"/>
      <point x="762" y="712" type="curve" smooth="yes"/>
      <point x="738" y="712"/>
      <point x="726" y="704"/>
      <point x="721" y="690" type="curve" smooth="yes"/>
      <point x="544" y="152" type="line" smooth="yes"/>
      <point x="511" y="52"/>
      <point x="535" y="-14"/>
    </contour>
  </outline>
</glyph>
<glyph name="A.cur_locl.ini" format="2">
  <advance width="929"/>
  <anchor x="359" y="0" name="bottom"/>
  <anchor x="848" y="0" name="cnct"/>
  <anchor x="850" y="13" name="ogonek"/>
  <anchor x="618" y="838" name="top"/>
  <outline>
    <contour>
      <point x="359" y="-17" type="curve" smooth="yes"/>
      <point x="494" y="-17"/>
      <point x="594" y="55"/>
      <point x="670" y="155" type="curve"/>
      <point x="666" y="139" type="line" smooth="yes"/>
      <point x="644" y="41"/>
      <point x="694" y="-17"/>
      <point x="791" y="-17" type="curve" smooth="yes"/>
      <point x="841" y="-17"/>
      <point x="866" y="58"/>
      <point x="816" y="58" type="curve" smooth="yes"/>
      <point x="754" y="58"/>
      <point x="739" y="99"/>
      <point x="769" y="191" type="curve" smooth="yes"/>
      <point x="988" y="860" type="line" smooth="yes"/>
      <point x="995" y="881"/>
      <point x="979" y="890"/>
      <point x="953" y="890" type="curve" smooth="yes"/>
      <point x="923" y="890"/>
      <point x="908" y="880"/>
      <point x="901" y="863" type="curve" smooth="yes"/>
      <point x="873" y="774" type="line"/>
      <point x="821" y="850"/>
      <point x="741" y="890"/>
      <point x="639" y="890" type="curve" smooth="yes"/>
      <point x="328" y="890"/>
      <point x="99" y="589"/>
      <point x="99" y="266" type="curve" smooth="yes"/>
      <point x="99" y="56"/>
      <point x="240" y="-17"/>
    </contour>
    <contour>
      <point x="191" y="270" type="curve" smooth="yes"/>
      <point x="191" y="540"/>
      <point x="386" y="805"/>
      <point x="628" y="805" type="curve" smooth="yes"/>
      <point x="734" y="805"/>
      <point x="804" y="759"/>
      <point x="838" y="668" type="curve"/>
      <point x="771" y="468" type="line"/>
      <point x="655" y="188"/>
      <point x="526" y="68"/>
      <point x="375" y="68" type="curve" smooth="yes"/>
      <point x="306" y="68"/>
      <point x="191" y="100"/>
    </contour>
  </outline>
</glyph>
<glyph name="A.dec" format="2">
  <advance width="918"/>
  <anchor x="466" y="0" name="bottom"/>
  <anchor x="735" y="0" name="ogonek"/>
  <anchor x="713" y="838" name="top"/>
  <outline>
    <contour>
      <point x="98" y="-17" type="curve" smooth="yes"/>
      <point x="220" y="-17"/>
      <point x="350" y="31"/>
      <point x="766" y="854" type="curve"/>
      <point x="721" y="853" type="line"/>
      <point x="685" y="576"/>
      <point x="661" y="304"/>
      <point x="676" y="15" type="curve" smooth="yes"/>
      <point x="678" y="-7"/>
      <point x="691" y="-19"/>
      <point x="718" y="-16" type="curve" smooth="yes"/>
      <point x="746" y="-14"/>
      <point x="761" y="-2"/>
      <point x="760" y="19" type="curve" smooth="yes"/>
      <point x="749" y="309"/>
      <point x="771" y="588"/>
      <point x="803" y="843" type="curve" smooth="yes"/>
      <point x="806" y="878"/>
      <point x="790" y="890"/>
      <point x="748" y="890" type="curve" smooth="yes"/>
      <point x="713" y="890"/>
      <point x="698" y="879"/>
      <point x="681" y="848" type="curve" smooth="yes"/>
      <point x="288" y="111"/>
      <point x="201" y="64"/>
      <point x="95" y="64" type="curve" smooth="yes"/>
      <point x="71" y="64"/>
      <point x="41" y="71"/>
      <point x="18" y="83" type="curve" smooth="yes"/>
      <point x="3" y="90"/>
      <point x="-10" y="81"/>
      <point x="-20" y="59" type="curve" smooth="yes"/>
      <point x="-30" y="34"/>
      <point x="-27" y="16"/>
      <point x="-11" y="8" type="curve" smooth="yes"/>
      <point x="13" y="-5"/>
      <point x="53" y="-17"/>
    </contour>
    <contour>
      <point x="684" y="9" type="curve"/>
      <point x="744" y="21" type="line"/>
      <point x="730" y="275"/>
      <point x="594" y="430"/>
      <point x="401" y="430" type="curve" smooth="yes"/>
      <point x="289" y="430"/>
      <point x="194" y="359"/>
      <point x="194" y="264" type="curve" smooth="yes"/>
      <point x="194" y="173"/>
      <point x="280" y="103"/>
      <point x="435" y="103" type="curve" smooth="yes"/>
      <point x="631" y="103"/>
      <point x="760" y="173"/>
      <point x="915" y="319" type="curve" smooth="yes"/>
      <point x="933" y="336"/>
      <point x="931" y="356"/>
      <point x="911" y="374" type="curve" smooth="yes"/>
      <point x="895" y="389"/>
      <point x="876" y="390"/>
      <point x="861" y="376" type="curve" smooth="yes"/>
      <point x="725" y="244"/>
      <point x="644" y="180"/>
      <point x="451" y="180" type="curve" smooth="yes"/>
      <point x="345" y="180"/>
      <point x="283" y="216"/>
      <point x="283" y="268" type="curve" smooth="yes"/>
      <point x="283" y="321"/>
      <point x="334" y="353"/>
      <point x="400" y="353" type="curve" smooth="yes"/>
      <point x="554" y="353"/>
      <point x="658" y="236"/>
    </contour>
  </outline>
</glyph>
<glyph name="A.dec2.ini" format="2">
	<advance width="719"/>
	<outline>
		<contour>
			<point x="609" y="-14" type="curve" smooth="yes"/>
			<point x="649" y="-14"/>
			<point x="669" y="46"/>
			<point x="629" y="46" type="curve" smooth="yes"/>
			<point x="587" y="46"/>
			<point x="572" y="70"/>
			<point x="578" y="127" type="curve" smooth="yes"/>
			<point x="593" y="292"/>
			<point x="625" y="486"/>
			<point x="668" y="694" type="curve"/>
			<point x="599" y="686" type="line"/>
			<point x="557" y="481"/>
			<point x="522" y="293"/>
			<point x="507" y="126" type="curve" smooth="yes"/>
			<point x="498" y="27"/>
			<point x="533" y="-14"/>
		</contour>
		<contour>
			<point x="149" y="-14" type="curve" smooth="yes"/>
			<point x="396" y="-14"/>
			<point x="391" y="592"/>
			<point x="650" y="644" type="curve" smooth="yes"/>
			<point x="675" y="649"/>
			<point x="684" y="667"/>
			<point x="678" y="691" type="curve" smooth="yes"/>
			<point x="673" y="712"/>
			<point x="661" y="718"/>
			<point x="644" y="714" type="curve" smooth="yes"/>
			<point x="332" y="636"/>
			<point x="317" y="54"/>
			<point x="153" y="54" type="curve" smooth="yes"/>
			<point x="117" y="54"/>
			<point x="96" y="75"/>
			<point x="96" y="121" type="curve" smooth="yes"/>
			<point x="96" y="233"/>
			<point x="196" y="283"/>
			<point x="334" y="283" type="curve" smooth="yes"/>
			<point x="645" y="283" type="line" smooth="yes"/>
			<point x="656" y="283"/>
			<point x="664" y="295"/>
			<point x="668" y="316" type="curve" smooth="yes"/>
			<point x="672" y="339"/>
			<point x="668" y="349"/>
			<point x="652" y="349" type="curve" smooth="yes"/>
			<point x="357" y="349" type="line" smooth="yes"/>
			<point x="152" y="349"/>
			<point x="23" y="267"/>
			<point x="23" y="118" type="curve" smooth="yes"/>
			<point x="23" y="36"/>
			<point x="73" y="-14"/>
		</contour>
	</outline>
	<anchor name="bottom" x="420" y="0"/>
	<anchor name="cnct" x="654" y="0"/>
	<anchor name="ogonek" x="634" y="-2"/>
	<anchor name="top" x="540" y="670"/>
</glyph>
<glyph name="A.dec_locl" format="2">
  <advance width="1043"/>
  <anchor x="466" y="0" name="bottom"/>
  <anchor x="884" y="0" name="ogonek"/>
  <anchor x="713" y="838" name="top"/>
  <outline>
    <contour>
      <point x="98" y="-17" type="curve" smooth="yes"/>
      <point x="220" y="-17"/>
      <point x="350" y="31"/>
      <point x="766" y="854" type="curve"/>
      <point x="721" y="853" type="line"/>
      <point x="695" y="618"/>
      <point x="675" y="385"/>
      <point x="675" y="213" type="curve" smooth="yes"/>
      <point x="675" y="60"/>
      <point x="721" y="-17"/>
      <point x="820" y="-17" type="curve" smooth="yes"/>
      <point x="916" y="-17"/>
      <point x="981" y="69"/>
      <point x="1029" y="209" type="curve" smooth="yes"/>
      <point x="1035" y="228"/>
      <point x="1026" y="241"/>
      <point x="1003" y="250" type="curve" smooth="yes"/>
      <point x="978" y="259"/>
      <point x="961" y="251"/>
      <point x="955" y="235" type="curve" smooth="yes"/>
      <point x="916" y="121"/>
      <point x="874" y="63"/>
      <point x="829" y="63" type="curve" smooth="yes"/>
      <point x="784" y="63"/>
      <point x="760" y="103"/>
      <point x="760" y="213" type="curve" smooth="yes"/>
      <point x="760" y="383"/>
      <point x="775" y="621"/>
      <point x="803" y="843" type="curve" smooth="yes"/>
      <point x="806" y="878"/>
      <point x="790" y="890"/>
      <point x="748" y="890" type="curve" smooth="yes"/>
      <point x="713" y="890"/>
      <point x="698" y="879"/>
      <point x="681" y="848" type="curve" smooth="yes"/>
      <point x="288" y="111"/>
      <point x="201" y="64"/>
      <point x="95" y="64" type="curve" smooth="yes"/>
      <point x="71" y="64"/>
      <point x="41" y="71"/>
      <point x="18" y="83" type="curve" smooth="yes"/>
      <point x="3" y="90"/>
      <point x="-10" y="81"/>
      <point x="-20" y="59" type="curve" smooth="yes"/>
      <point x="-30" y="34"/>
      <point x="-27" y="16"/>
      <point x="-11" y="8" type="curve" smooth="yes"/>
      <point x="13" y="-5"/>
      <point x="53" y="-17"/>
    </contour>
    <contour>
      <point x="405" y="266" type="line"/>
      <point x="719" y="266" type="line"/>
      <point x="741" y="344" type="line"/>
      <point x="428" y="344" type="line"/>
    </contour>
  </outline>
</glyph>
<glyph name="A.dec_locl.ini" format="2">
  <advance width="955"/>
  <anchor x="466" y="0" name="bottom"/>
  <anchor x="874" y="0" name="cnct"/>
  <anchor x="838" y="0" name="ogonek"/>
  <anchor x="713" y="838" name="top"/>
  <outline>
    <contour>
      <point x="98" y="-17" type="curve" smooth="yes"/>
      <point x="220" y="-17"/>
      <point x="350" y="31"/>
      <point x="766" y="854" type="curve"/>
      <point x="721" y="853" type="line"/>
      <point x="695" y="618"/>
      <point x="675" y="385"/>
      <point x="675" y="188" type="curve" smooth="yes"/>
      <point x="675" y="48"/>
      <point x="723" y="-17"/>
      <point x="818" y="-17" type="curve" smooth="yes"/>
      <point x="868" y="-17"/>
      <point x="893" y="58"/>
      <point x="843" y="58" type="curve" smooth="yes"/>
      <point x="779" y="58"/>
      <point x="760" y="96"/>
      <point x="760" y="188" type="curve" smooth="yes"/>
      <point x="760" y="383"/>
      <point x="775" y="621"/>
      <point x="803" y="843" type="curve" smooth="yes"/>
      <point x="806" y="878"/>
      <point x="790" y="890"/>
      <point x="748" y="890" type="curve" smooth="yes"/>
      <point x="713" y="890"/>
      <point x="698" y="879"/>
      <point x="681" y="848" type="curve" smooth="yes"/>
      <point x="288" y="111"/>
      <point x="201" y="64"/>
      <point x="95" y="64" type="curve" smooth="yes"/>
      <point x="71" y="64"/>
      <point x="41" y="71"/>
      <point x="18" y="83" type="curve" smooth="yes"/>
      <point x="3" y="90"/>
      <point x="-10" y="81"/>
      <point x="-20" y="59" type="curve" smooth="yes"/>
      <point x="-30" y="34"/>
      <point x="-27" y="16"/>
      <point x="-11" y="8" type="curve" smooth="yes"/>
      <point x="13" y="-5"/>
      <point x="53" y="-17"/>
    </contour>
    <contour>
      <point x="405" y="266" type="line"/>
      <point x="719" y="266" type="line"/>
      <point x="741" y="344" type="line"/>
      <point x="428" y="344" type="line"/>
    </contour>
  </outline>
</glyph>
<glyph name="AE.cur" format="2">
  <advance width="960"/>
  <anchor x="683" y="670" name="top"/>
  <outline>
    <contour>
      <point x="31" y="-14" type="curve" smooth="yes"/>
      <point x="145" y="-14"/>
      <point x="205" y="51"/>
      <point x="643" y="661" type="curve"/>
      <point x="686" y="661" type="line"/>
      <point x="699" y="700" type="line"/>
      <point x="639" y="700" type="line" smooth="yes"/>
      <point x="610" y="700"/>
      <point x="595" y="693"/>
      <point x="572" y="662" type="curve" smooth="yes"/>
      <point x="170" y="113"/>
      <point x="100" y="51"/>
      <point x="36" y="51" type="curve" smooth="yes"/>
      <point x="19" y="51"/>
      <point x="7" y="54"/>
      <point x="-13" y="62" type="curve" smooth="yes"/>
      <point x="-25" y="67"/>
      <point x="-35" y="61"/>
      <point x="-43" y="43" type="curve" smooth="yes"/>
      <point x="-51" y="23"/>
      <point x="-49" y="9"/>
      <point x="-36" y="2" type="curve" smooth="yes"/>
      <point x="-17" y="-8"/>
      <point x="3" y="-14"/>
    </contour>
    <contour>
      <point x="560" y="318" type="line"/>
      <point x="581" y="382" type="line"/>
      <point x="403" y="382" type="line"/>
      <point x="357" y="318" type="line"/>
    </contour>
    <contour>
      <point x="690" y="0" type="line" smooth="yes"/>
      <point x="789" y="0"/>
      <point x="866" y="44"/>
      <point x="912" y="127" type="curve" smooth="yes"/>
      <point x="925" y="149"/>
      <point x="922" y="165"/>
      <point x="903" y="174" type="curve" smooth="yes"/>
      <point x="883" y="185"/>
      <point x="869" y="177"/>
      <point x="857" y="155" type="curve" smooth="yes"/>
      <point x="825" y="98"/>
      <point x="768" y="64"/>
      <point x="696" y="64" type="curve" smooth="yes"/>
      <point x="509" y="64" type="line"/>
      <point x="592" y="318" type="line"/>
      <point x="748" y="318" type="line" smooth="yes"/>
      <point x="764" y="318"/>
      <point x="772" y="326"/>
      <point x="780" y="350" type="curve" smooth="yes"/>
      <point x="788" y="374"/>
      <point x="785" y="382"/>
      <point x="769" y="382" type="curve" smooth="yes"/>
      <point x="613" y="382" type="line"/>
      <point x="695" y="636" type="line"/>
      <point x="908" y="636" type="line" smooth="yes"/>
      <point x="924" y="636"/>
      <point x="933" y="644"/>
      <point x="941" y="668" type="curve" smooth="yes"/>
      <point x="948" y="692"/>
      <point x="945" y="700"/>
      <point x="929" y="700" type="curve" smooth="yes"/>
      <point x="681" y="700" type="line" smooth="yes"/>
      <point x="658" y="700"/>
      <point x="644" y="693"/>
      <point x="639" y="678" type="curve" smooth="yes"/>
      <point x="429" y="32" type="line" smooth="yes"/>
      <point x="422" y="10"/>
      <point x="431" y="0"/>
      <point x="454" y="0" type="curve" smooth="yes"/>
    </contour>
  </outline>
</glyph>
<glyph name="AE.cur.locl" format="2">
  <advance width="1200"/>
  <anchor x="854" y="838" name="top"/>
  <outline>
    <contour>
      <point x="39" y="-17" type="curve" smooth="yes"/>
      <point x="148" y="-17"/>
      <point x="218" y="31"/>
      <point x="492" y="398" type="curve"/>
      <point x="653" y="398" type="line"/>
      <point x="536" y="40" type="line" smooth="yes"/>
      <point x="528" y="13"/>
      <point x="539" y="0"/>
      <point x="568" y="0" type="curve" smooth="yes"/>
      <point x="863" y="0" type="line" smooth="yes"/>
      <point x="986" y="0"/>
      <point x="1083" y="55"/>
      <point x="1140" y="159" type="curve" smooth="yes"/>
      <point x="1156" y="186"/>
      <point x="1153" y="206"/>
      <point x="1129" y="218" type="curve" smooth="yes"/>
      <point x="1104" y="231"/>
      <point x="1086" y="221"/>
      <point x="1071" y="194" type="curve" smooth="yes"/>
      <point x="1031" y="123"/>
      <point x="960" y="80"/>
      <point x="870" y="80" type="curve" smooth="yes"/>
      <point x="636" y="80" type="line"/>
      <point x="740" y="398" type="line"/>
      <point x="935" y="398" type="line" smooth="yes"/>
      <point x="955" y="398"/>
      <point x="965" y="408"/>
      <point x="975" y="438" type="curve" smooth="yes"/>
      <point x="985" y="468"/>
      <point x="981" y="478"/>
      <point x="961" y="478" type="curve" smooth="yes"/>
      <point x="766" y="478" type="line"/>
      <point x="869" y="795" type="line"/>
      <point x="1135" y="795" type="line" smooth="yes"/>
      <point x="1155" y="795"/>
      <point x="1166" y="805"/>
      <point x="1176" y="835" type="curve" smooth="yes"/>
      <point x="1185" y="865"/>
      <point x="1181" y="875"/>
      <point x="1161" y="875" type="curve" smooth="yes"/>
      <point x="799" y="875" type="line" smooth="yes"/>
      <point x="763" y="875"/>
      <point x="744" y="866"/>
      <point x="715" y="828" type="curve" smooth="yes"/>
      <point x="213" y="141"/>
      <point x="125" y="64"/>
      <point x="45" y="64" type="curve" smooth="yes"/>
      <point x="24" y="64"/>
      <point x="9" y="68"/>
      <point x="-16" y="78" type="curve" smooth="yes"/>
      <point x="-31" y="84"/>
      <point x="-44" y="76"/>
      <point x="-54" y="54" type="curve" smooth="yes"/>
      <point x="-64" y="29"/>
      <point x="-61" y="11"/>
      <point x="-45" y="3" type="curve" smooth="yes"/>
      <point x="-21" y="-10"/>
      <point x="4" y="-17"/>
    </contour>
    <contour>
      <point x="551" y="478" type="line"/>
      <point x="617" y="567"/>
      <point x="693" y="672"/>
      <point x="782" y="795" type="curve"/>
      <point x="679" y="478" type="line"/>
    </contour>
  </outline>
</glyph>
<glyph name="AE.cur.locl.ini" format="2">
  <advance width="1100"/>
  <anchor x="854" y="838" name="top"/>
  <outline>
    <contour>
      <point x="39" y="-17" type="curve" smooth="yes"/>
      <point x="181" y="-17"/>
      <point x="256" y="64"/>
      <point x="804" y="826" type="curve"/>
      <point x="858" y="826" type="line"/>
      <point x="874" y="875" type="line"/>
      <point x="799" y="875" type="line" smooth="yes"/>
      <point x="763" y="875"/>
      <point x="744" y="866"/>
      <point x="715" y="828" type="curve" smooth="yes"/>
      <point x="213" y="141"/>
      <point x="125" y="64"/>
      <point x="45" y="64" type="curve" smooth="yes"/>
      <point x="24" y="64"/>
      <point x="9" y="68"/>
      <point x="-16" y="78" type="curve" smooth="yes"/>
      <point x="-31" y="84"/>
      <point x="-44" y="76"/>
      <point x="-54" y="54" type="curve" smooth="yes"/>
      <point x="-64" y="29"/>
      <point x="-61" y="11"/>
      <point x="-45" y="3" type="curve" smooth="yes"/>
      <point x="-21" y="-10"/>
      <point x="4" y="-17"/>
    </contour>
    <contour>
      <point x="700" y="398" type="line"/>
      <point x="726" y="478" type="line"/>
      <point x="504" y="478" type="line"/>
      <point x="446" y="398" type="line"/>
    </contour>
    <contour>
      <point x="863" y="0" type="line"/>
      <point x="903" y="0"/>
      <point x="910" y="80"/>
      <point x="870" y="80" type="curve" smooth="yes"/>
      <point x="636" y="80" type="line"/>
      <point x="740" y="398" type="line"/>
      <point x="935" y="398" type="line" smooth="yes"/>
      <point x="955" y="398"/>
      <point x="965" y="408"/>
      <point x="975" y="438" type="curve" smooth="yes"/>
      <point x="985" y="468"/>
      <point x="981" y="478"/>
      <point x="961" y="478" type="curve" smooth="yes"/>
      <point x="766" y="478" type="line"/>
      <point x="869" y="795" type="line"/>
      <point x="1135" y="795" type="line" smooth="yes"/>
      <point x="1155" y="795"/>
      <point x="1166" y="805"/>
      <point x="1176" y="835" type="curve" smooth="yes"/>
      <point x="1185" y="865"/>
      <point x="1181" y="875"/>
      <point x="1161" y="875" type="curve" smooth="yes"/>
      <point x="851" y="875" type="line" smooth="yes"/>
      <point x="823" y="875"/>
      <point x="805" y="866"/>
      <point x="799" y="848" type="curve" smooth="yes"/>
      <point x="536" y="40" type="line" smooth="yes"/>
      <point x="528" y="13"/>
      <point x="539" y="0"/>
      <point x="568" y="0" type="curve" smooth="yes"/>
    </contour>
  </outline>
</glyph>
<glyph name="B.cur" format="2">
	<advance width="715"/>
	<outline>
		<contour>
			<point x="382" y="-10" type="curve" smooth="yes"/>
			<point x="550" y="-10"/>
			<point x="677" y="94"/>
			<point x="677" y="243" type="curve" smooth="yes"/>
			<point x="677" y="316"/>
			<point x="619" y="368"/>
			<point x="541" y="378" type="curve"/>
			<point x="541" y="379" type="line"/>
			<point x="646" y="392"/>
			<point x="726" y="470"/>
			<point x="726" y="559" type="curve" smooth="yes"/>
			<point x="726" y="652"/>
			<point x="649" y="712"/>
			<point x="481" y="712" type="curve" smooth="yes"/>
			<point x="348" y="712"/>
			<point x="236" y="670"/>
			<point x="166" y="604" type="curve" smooth="yes"/>
			<point x="153" y="591"/>
			<point x="152" y="578"/>
			<point x="160" y="565" type="curve" smooth="yes"/>
			<point x="169" y="552"/>
			<point x="186" y="538"/>
			<point x="204" y="554" type="curve" smooth="yes"/>
			<point x="269" y="612"/>
			<point x="366" y="648"/>
			<point x="478" y="648" type="curve" smooth="yes"/>
			<point x="595" y="648"/>
			<point x="654" y="618"/>
			<point x="654" y="549" type="curve" smooth="yes"/>
			<point x="654" y="484"/>
			<point x="577" y="418"/>
			<point x="478" y="406" type="curve"/>
			<point x="467" y="411"/>
			<point x="453" y="417"/>
			<point x="433" y="417" type="curve" smooth="yes"/>
			<point x="380" y="417"/>
			<point x="366" y="380"/>
			<point x="366" y="361" type="curve" smooth="yes"/>
			<point x="366" y="345"/>
			<point x="378" y="331"/>
			<point x="405" y="331" type="curve" smooth="yes"/>
			<point x="423" y="331"/>
			<point x="440" y="338"/>
			<point x="459" y="346" type="curve"/>
			<point x="539" y="346"/>
			<point x="604" y="309"/>
			<point x="604" y="243" type="curve" smooth="yes"/>
			<point x="604" y="108"/>
			<point x="486" y="54"/>
			<point x="382" y="54" type="curve" smooth="yes"/>
			<point x="356" y="54"/>
			<point x="325" y="59"/>
			<point x="297" y="70" type="curve" smooth="yes"/>
			<point x="280" y="76"/>
			<point x="270" y="71"/>
			<point x="262" y="57" type="curve" smooth="yes"/>
			<point x="250" y="38"/>
			<point x="254" y="26"/>
			<point x="274" y="15" type="curve" smooth="yes"/>
			<point x="299" y="1"/>
			<point x="339" y="-10"/>
		</contour>
		<contour>
			<point x="90" y="-14" type="curve" smooth="yes"/>
			<point x="174" y="-14"/>
			<point x="217" y="48"/>
			<point x="254" y="162" type="curve" smooth="yes"/>
			<point x="381" y="557" type="line" smooth="yes"/>
			<point x="386" y="574"/>
			<point x="374" y="581"/>
			<point x="350" y="581" type="curve" smooth="yes"/>
			<point x="326" y="581"/>
			<point x="314" y="574"/>
			<point x="309" y="559" type="curve" smooth="yes"/>
			<point x="179" y="153" type="line" smooth="yes"/>
			<point x="155" y="77"/>
			<point x="134" y="54"/>
			<point x="98" y="54" type="curve" smooth="yes"/>
			<point x="72" y="54"/>
			<point x="48" y="67"/>
			<point x="29" y="89" type="curve" smooth="yes"/>
			<point x="14" y="107"/>
			<point x="6" y="111"/>
			<point x="-12" y="103" type="curve" smooth="yes"/>
			<point x="-28" y="96"/>
			<point x="-33" y="84"/>
			<point x="-26" y="65" type="curve" smooth="yes"/>
			<point x="-12" y="26"/>
			<point x="36" y="-14"/>
		</contour>
	</outline>
	<anchor name="bottom" x="374" y="0"/>
	<anchor name="center" x="235" y="206"/>
	<anchor name="top" x="523" y="670"/>
	<guideline x="222" y="104" angle="72.99"/>
</glyph>
<glyph name="B.dec" format="2">
  <advance width="735"/>
  <anchor x="374" y="0" name="bottom"/>
  <anchor x="206" y="206" name="center"/>
  <anchor x="528" y="670" name="top"/>
  <outline>
    <contour>
      <point x="404" y="-10" type="curve" smooth="yes"/>
      <point x="572" y="-10"/>
      <point x="696" y="95"/>
      <point x="696" y="240" type="curve" smooth="yes"/>
      <point x="696" y="312"/>
      <point x="652" y="368"/>
      <point x="570" y="381" type="curve"/>
      <point x="570" y="382" type="line"/>
      <point x="686" y="402"/>
      <point x="757" y="475"/>
      <point x="757" y="571" type="curve" smooth="yes"/>
      <point x="757" y="661"/>
      <point x="699" y="712"/>
      <point x="592" y="712" type="curve" smooth="yes"/>
      <point x="469" y="712"/>
      <point x="314" y="622"/>
      <point x="235" y="389" type="curve"/>
      <point x="297" y="389" type="line"/>
      <point x="360" y="575"/>
      <point x="490" y="646"/>
      <point x="580" y="646" type="curve" smooth="yes"/>
      <point x="649" y="646"/>
      <point x="684" y="620"/>
      <point x="684" y="565" type="curve" smooth="yes"/>
      <point x="684" y="489"/>
      <point x="617" y="426"/>
      <point x="506" y="409" type="curve"/>
      <point x="487" y="416"/>
      <point x="465" y="419"/>
      <point x="450" y="419" type="curve" smooth="yes"/>
      <point x="415" y="419"/>
      <point x="393" y="402"/>
      <point x="393" y="374" type="curve" smooth="yes"/>
      <point x="393" y="353"/>
      <point x="411" y="338"/>
      <point x="437" y="338" type="curve" smooth="yes"/>
      <point x="454" y="338"/>
      <point x="475" y="344"/>
      <point x="496" y="353" type="curve"/>
      <point x="573" y="347"/>
      <point x="623" y="306"/>
      <point x="623" y="237" type="curve" smooth="yes"/>
      <point x="623" y="132"/>
      <point x="536" y="56"/>
      <point x="425" y="56" type="curve" smooth="yes"/>
      <point x="380" y="56"/>
      <point x="347" y="62"/>
      <point x="309" y="88" type="curve" smooth="yes"/>
      <point x="298" y="96"/>
      <point x="283" y="91"/>
      <point x="272" y="75" type="curve" smooth="yes"/>
      <point x="259" y="56"/>
      <point x="259" y="39"/>
      <point x="272" y="29" type="curve" smooth="yes"/>
      <point x="308" y="3"/>
      <point x="362" y="-10"/>
    </contour>
    <contour>
      <point x="136" y="-11" type="curve" smooth="yes"/>
      <point x="160" y="-11"/>
      <point x="172" y="-4"/>
      <point x="177" y="11" type="curve" smooth="yes"/>
      <point x="395" y="688" type="line" smooth="yes"/>
      <point x="400" y="705"/>
      <point x="388" y="712"/>
      <point x="365" y="712" type="curve" smooth="yes"/>
      <point x="340" y="712"/>
      <point x="331" y="707"/>
      <point x="323" y="690" type="curve" smooth="yes"/>
      <point x="287" y="614"/>
      <point x="240" y="572"/>
      <point x="141" y="533" type="curve" smooth="yes"/>
      <point x="118" y="524"/>
      <point x="112" y="510"/>
      <point x="118" y="491" type="curve" smooth="yes"/>
      <point x="125" y="469"/>
      <point x="139" y="458"/>
      <point x="162" y="468" type="curve" smooth="yes"/>
      <point x="257" y="507"/>
      <point x="328" y="567"/>
      <point x="371" y="672" type="curve"/>
      <point x="359" y="693" type="line"/>
      <point x="324" y="685" type="line"/>
      <point x="105" y="13" type="line" smooth="yes"/>
      <point x="100" y="-4"/>
      <point x="112" y="-11"/>
    </contour>
  </outline>
</glyph>
<glyph name="C.cur" format="2">
	<advance width="620"/>
	<outline>
		<contour>
			<point x="343" y="-15" type="curve" smooth="yes"/>
			<point x="410" y="-15"/>
			<point x="484" y="11"/>
			<point x="584" y="108" type="curve" smooth="yes"/>
			<point x="596" y="120"/>
			<point x="594" y="129"/>
			<point x="580" y="146" type="curve" smooth="yes"/>
			<point x="569" y="159"/>
			<point x="557" y="164"/>
			<point x="544" y="153" type="curve" smooth="yes"/>
			<point x="475" y="93"/>
			<point x="433" y="53"/>
			<point x="355" y="53" type="curve" smooth="yes"/>
			<point x="234" y="53"/>
			<point x="175" y="128"/>
			<point x="175" y="265" type="curve" smooth="yes"/>
			<point x="175" y="426"/>
			<point x="304" y="644"/>
			<point x="498" y="644" type="curve" smooth="yes"/>
			<point x="576" y="644"/>
			<point x="631" y="626"/>
			<point x="665" y="595" type="curve" smooth="yes"/>
			<point x="679" y="582"/>
			<point x="688" y="585"/>
			<point x="702" y="596" type="curve" smooth="yes"/>
			<point x="717" y="608"/>
			<point x="722" y="615"/>
			<point x="714" y="627" type="curve" smooth="yes"/>
			<point x="675" y="682"/>
			<point x="602" y="712"/>
			<point x="510" y="712" type="curve" smooth="yes"/>
			<point x="234" y="712"/>
			<point x="100" y="436"/>
			<point x="100" y="252" type="curve" smooth="yes"/>
			<point x="100" y="90"/>
			<point x="196" y="-15"/>
		</contour>
	</outline>
	<anchor name="bottom" x="285" y="0"/>
	<anchor name="top" x="492" y="670"/>
</glyph>
<glyph name="D.cur" format="2">
	<advance width="800"/>
	<outline>
		<contour>
			<point x="388" y="-13" type="curve" smooth="yes"/>
			<point x="636" y="-13"/>
			<point x="804" y="221"/>
			<point x="804" y="435" type="curve" smooth="yes"/>
			<point x="804" y="583"/>
			<point x="717" y="712"/>
			<point x="478" y="712" type="curve" smooth="yes"/>
			<point x="362" y="712"/>
			<point x="236" y="671"/>
			<point x="166" y="604" type="curve" smooth="yes"/>
			<point x="152" y="590"/>
			<point x="152" y="577"/>
			<point x="160" y="565" type="curve" smooth="yes"/>
			<point x="169" y="552"/>
			<point x="186" y="538"/>
			<point x="204" y="554" type="curve" smooth="yes"/>
			<point x="266" y="610"/>
			<point x="373" y="644"/>
			<point x="468" y="644" type="curve" smooth="yes"/>
			<point x="660" y="644"/>
			<point x="731" y="553"/>
			<point x="731" y="435" type="curve" smooth="yes"/>
			<point x="731" y="257"/>
			<point x="591" y="52"/>
			<point x="391" y="52" type="curve" smooth="yes"/>
			<point x="346" y="52"/>
			<point x="318" y="60"/>
			<point x="287" y="71" type="curve" smooth="yes"/>
			<point x="270" y="77"/>
			<point x="261" y="71"/>
			<point x="252" y="58" type="curve" smooth="yes"/>
			<point x="240" y="41"/>
			<point x="244" y="28"/>
			<point x="264" y="16" type="curve" smooth="yes"/>
			<point x="288" y="2"/>
			<point x="324" y="-13"/>
		</contour>
		<contour>
			<point x="90" y="-14" type="curve" smooth="yes"/>
			<point x="174" y="-14"/>
			<point x="217" y="48"/>
			<point x="254" y="162" type="curve" smooth="yes"/>
			<point x="381" y="557" type="line" smooth="yes"/>
			<point x="386" y="574"/>
			<point x="374" y="581"/>
			<point x="350" y="581" type="curve" smooth="yes"/>
			<point x="326" y="581"/>
			<point x="314" y="574"/>
			<point x="309" y="559" type="curve" smooth="yes"/>
			<point x="179" y="153" type="line" smooth="yes"/>
			<point x="155" y="77"/>
			<point x="134" y="54"/>
			<point x="98" y="54" type="curve" smooth="yes"/>
			<point x="72" y="54"/>
			<point x="48" y="67"/>
			<point x="29" y="89" type="curve" smooth="yes"/>
			<point x="14" y="107"/>
			<point x="6" y="111"/>
			<point x="-12" y="103" type="curve" smooth="yes"/>
			<point x="-28" y="96"/>
			<point x="-33" y="84"/>
			<point x="-26" y="65" type="curve" smooth="yes"/>
			<point x="-12" y="26"/>
			<point x="36" y="-14"/>
		</contour>
	</outline>
	<anchor name="bottom" x="378" y="0"/>
	<anchor name="center" x="335" y="350"/>
	<anchor name="top" x="564" y="670"/>
</glyph>
<glyph name="D.dec" format="2">
  <advance width="999"/>
  <anchor x="478" y="0" name="bottom"/>
  <anchor x="424" y="438" name="center"/>
  <anchor x="710" y="838" name="top"/>
  <outline>
    <contour>
      <point x="146" y="-17" type="curve" smooth="yes"/>
      <point x="239" y="-17"/>
      <point x="298" y="39"/>
      <point x="345" y="183" type="curve" smooth="yes"/>
      <point x="516" y="703" type="line" smooth="yes"/>
      <point x="524" y="724"/>
      <point x="508" y="733"/>
      <point x="478" y="733" type="curve" smooth="yes"/>
      <point x="448" y="733"/>
      <point x="433" y="724"/>
      <point x="426" y="705" type="curve" smooth="yes"/>
      <point x="261" y="194" type="line" smooth="yes"/>
      <point x="230" y="98"/>
      <point x="204" y="63"/>
      <point x="159" y="63" type="curve" smooth="yes"/>
      <point x="130" y="63"/>
      <point x="118" y="73"/>
      <point x="118" y="89" type="curve" smooth="yes"/>
      <point x="118" y="103"/>
      <point x="128" y="123"/>
      <point x="169" y="123" type="curve" smooth="yes"/>
      <point x="270" y="123"/>
      <point x="395" y="-12"/>
      <point x="571" y="-12" type="curve" smooth="yes"/>
      <point x="799" y="-12"/>
      <point x="1016" y="210"/>
      <point x="1016" y="518" type="curve" smooth="yes"/>
      <point x="1016" y="749"/>
      <point x="845" y="890"/>
      <point x="578" y="890" type="curve" smooth="yes"/>
      <point x="368" y="890"/>
      <point x="254" y="814"/>
      <point x="204" y="698" type="curve" smooth="yes"/>
      <point x="196" y="680"/>
      <point x="198" y="660"/>
      <point x="220" y="651" type="curve" smooth="yes"/>
      <point x="243" y="643"/>
      <point x="258" y="643"/>
      <point x="270" y="664" type="curve" smooth="yes"/>
      <point x="329" y="765"/>
      <point x="410" y="808"/>
      <point x="581" y="808" type="curve" smooth="yes"/>
      <point x="790" y="808"/>
      <point x="925" y="695"/>
      <point x="925" y="511" type="curve" smooth="yes"/>
      <point x="925" y="255"/>
      <point x="753" y="70"/>
      <point x="580" y="70" type="curve" smooth="yes"/>
      <point x="413" y="70"/>
      <point x="315" y="203"/>
      <point x="170" y="203" type="curve" smooth="yes"/>
      <point x="86" y="203"/>
      <point x="26" y="151"/>
      <point x="26" y="80" type="curve" smooth="yes"/>
      <point x="26" y="24"/>
      <point x="79" y="-17"/>
    </contour>
  </outline>
</glyph>
<glyph name="E.cur" format="2">
  <advance width="698"/>
  <guideline x="250" y="15" angle="255.07"/>
  <guideline x="104" y="134" angle="192.88"/>
  <guideline x="221" y="492" angle="183.47"/>
  <anchor x="316" y="0" name="bottom"/>
  <anchor x="440" y="0" name="ogonek"/>
  <anchor x="533" y="838" name="top"/>
  <outline>
    <contour>
      <point x="313" y="-19" type="curve" smooth="yes"/>
      <point x="411" y="-19"/>
      <point x="518" y="14"/>
      <point x="631" y="128" type="curve" smooth="yes"/>
      <point x="655" y="151"/>
      <point x="658" y="165"/>
      <point x="636" y="186" type="curve" smooth="yes"/>
      <point x="616" y="206"/>
      <point x="604" y="206"/>
      <point x="581" y="184" type="curve" smooth="yes"/>
      <point x="503" y="105"/>
      <point x="418" y="69"/>
      <point x="335" y="69" type="curve" smooth="yes"/>
      <point x="223" y="69"/>
      <point x="155" y="111"/>
      <point x="155" y="193" type="curve" smooth="yes"/>
      <point x="155" y="313"/>
      <point x="278" y="419"/>
      <point x="426" y="419" type="curve" smooth="yes"/>
      <point x="544" y="419" type="line" smooth="yes"/>
      <point x="564" y="419"/>
      <point x="575" y="430"/>
      <point x="584" y="459" type="curve" smooth="yes"/>
      <point x="593" y="489"/>
      <point x="590" y="499"/>
      <point x="568" y="499" type="curve" smooth="yes"/>
      <point x="444" y="499" type="line" smooth="yes"/>
      <point x="339" y="499"/>
      <point x="301" y="556"/>
      <point x="301" y="620" type="curve" smooth="yes"/>
      <point x="301" y="714"/>
      <point x="379" y="803"/>
      <point x="510" y="803" type="curve" smooth="yes"/>
      <point x="584" y="803"/>
      <point x="650" y="780"/>
      <point x="696" y="744" type="curve" smooth="yes"/>
      <point x="721" y="724"/>
      <point x="735" y="720"/>
      <point x="754" y="738" type="curve" smooth="yes"/>
      <point x="770" y="751"/>
      <point x="778" y="766"/>
      <point x="760" y="789" type="curve" smooth="yes"/>
      <point x="709" y="855"/>
      <point x="630" y="890"/>
      <point x="530" y="890" type="curve" smooth="yes"/>
      <point x="345" y="890"/>
      <point x="210" y="779"/>
      <point x="210" y="618" type="curve" smooth="yes"/>
      <point x="210" y="543"/>
      <point x="255" y="478"/>
      <point x="316" y="463" type="curve"/>
      <point x="170" y="433"/>
      <point x="61" y="311"/>
      <point x="61" y="183" type="curve" smooth="yes"/>
      <point x="61" y="60"/>
      <point x="154" y="-19"/>
    </contour>
  </outline>
</glyph>
<glyph name="F.cur" format="2">
  <advance width="593"/>
  <guideline x="725"/>
  <guideline x="573"/>
  <outline>
    <contour>
      <point x="105" y="-14" type="curve" smooth="yes"/>
      <point x="189" y="-14"/>
      <point x="232" y="48"/>
      <point x="269" y="162" type="curve" smooth="yes"/>
      <point x="320" y="320" type="line"/>
      <point x="557" y="320" type="line" smooth="yes"/>
      <point x="573" y="320"/>
      <point x="582" y="328"/>
      <point x="588" y="350" type="curve" smooth="yes"/>
      <point x="593" y="370"/>
      <point x="591" y="384"/>
      <point x="575" y="384" type="curve" smooth="yes"/>
      <point x="341" y="384" type="line"/>
      <point x="422" y="636" type="line"/>
      <point x="703" y="636" type="line" smooth="yes"/>
      <point x="719" y="636"/>
      <point x="728" y="644"/>
      <point x="734" y="666" type="curve" smooth="yes"/>
      <point x="739" y="686"/>
      <point x="737" y="700"/>
      <point x="721" y="700" type="curve" smooth="yes"/>
      <point x="358" y="700" type="line" smooth="yes"/>
      <point x="269" y="700"/>
      <point x="196" y="672"/>
      <point x="139" y="609" type="curve" smooth="yes"/>
      <point x="124" y="592"/>
      <point x="119" y="578"/>
      <point x="135" y="562" type="curve" smooth="yes"/>
      <point x="149" y="548"/>
      <point x="163" y="544"/>
      <point x="178" y="560" type="curve" smooth="yes"/>
      <point x="233" y="616"/>
      <point x="283" y="636"/>
      <point x="345" y="636" type="curve" smooth="yes"/>
      <point x="350" y="636" type="line"/>
      <point x="194" y="153" type="line" smooth="yes"/>
      <point x="170" y="77"/>
      <point x="149" y="54"/>
      <point x="113" y="54" type="curve" smooth="yes"/>
      <point x="87" y="54"/>
      <point x="63" y="67"/>
      <point x="44" y="89" type="curve" smooth="yes"/>
      <point x="29" y="107"/>
      <point x="21" y="111"/>
      <point x="3" y="103" type="curve" smooth="yes"/>
      <point x="-13" y="96"/>
      <point x="-18" y="84"/>
      <point x="-11" y="65" type="curve" smooth="yes"/>
      <point x="3" y="26"/>
      <point x="51" y="-14"/>
    </contour>
  </outline>
</glyph>
<glyph name="F.cur_locl" format="2">
	<advance width="660"/>
	<outline>
		<contour>
			<point x="180" y="-14" type="curve" smooth="yes"/>
			<point x="413" y="-14"/>
			<point x="599" y="316"/>
			<point x="599" y="516" type="curve" smooth="yes"/>
			<point x="599" y="645"/>
			<point x="527" y="712"/>
			<point x="410" y="712" type="curve" smooth="yes"/>
			<point x="320" y="712"/>
			<point x="246" y="684"/>
			<point x="176" y="631" type="curve" smooth="yes"/>
			<point x="159" y="617"/>
			<point x="155" y="603"/>
			<point x="164" y="589" type="curve" smooth="yes"/>
			<point x="177" y="568"/>
			<point x="191" y="563"/>
			<point x="209" y="576" type="curve" smooth="yes"/>
			<point x="271" y="620"/>
			<point x="329" y="644"/>
			<point x="407" y="644" type="curve" smooth="yes"/>
			<point x="481" y="644"/>
			<point x="526" y="602"/>
			<point x="526" y="513" type="curve" smooth="yes"/>
			<point x="526" y="340"/>
			<point x="365" y="54"/>
			<point x="183" y="54" type="curve" smooth="yes"/>
			<point x="136" y="54"/>
			<point x="102" y="79"/>
			<point x="102" y="125" type="curve" smooth="yes"/>
			<point x="102" y="271"/>
			<point x="314" y="395"/>
			<point x="691" y="429" type="curve"/>
			<point x="665" y="455" type="line"/>
			<point x="634" y="362" type="line" smooth="yes"/>
			<point x="627" y="342"/>
			<point x="636" y="333"/>
			<point x="664" y="333" type="curve" smooth="yes"/>
			<point x="685" y="333"/>
			<point x="697" y="342"/>
			<point x="704" y="362" type="curve" smooth="yes"/>
			<point x="732" y="448" type="line" smooth="yes"/>
			<point x="743" y="482"/>
			<point x="730" y="497"/>
			<point x="695" y="494" type="curve" smooth="yes"/>
			<point x="281" y="459"/>
			<point x="29" y="310"/>
			<point x="29" y="122" type="curve" smooth="yes"/>
			<point x="29" y="36"/>
			<point x="89" y="-14"/>
		</contour>
	</outline>
</glyph>
